<mxfile host="65bd71144e">
    <diagram id="cQ2qrCD3lSDedmzUj2bq" name="Page-1">
        <mxGraphModel dx="4144" dy="4049" grid="0" gridSize="10" guides="1" tooltips="1" connect="1" arrows="1" fold="1" page="0" pageScale="1" pageWidth="850" pageHeight="1100" background="#ffffff" math="0" shadow="0">
            <root>
                <mxCell id="0"/>
                <mxCell id="1" parent="0"/>
                <mxCell id="626" value="1" style="edgeStyle=none;html=1;exitX=0.5;exitY=0;exitDx=0;exitDy=0;entryX=1;entryY=0.5;entryDx=0;entryDy=0;strokeColor=#080808;fontColor=#FFFFFF;endArrow=none;endFill=0;" parent="1" source="555" target="619" edge="1">
                    <mxGeometry relative="1" as="geometry"/>
                </mxCell>
                <UserObject label="Branch" lucidchartObjectId="vIj4CVTvdON-" id="555">
                    <mxCell style="html=1;overflow=block;blockSpacing=1;whiteSpace=wrap;fontSize=16.7;fontColor=#FFFFFF;fontStyle=4;spacing=3.8;strokeColor=#3a414a;strokeOpacity=100;rounded=1;absoluteArcSize=1;arcSize=9;strokeWidth=0.8;container=0;" parent="1" vertex="1">
                        <mxGeometry x="-55" y="340" width="105" height="90" as="geometry"/>
                    </mxCell>
                </UserObject>
                <UserObject label="" lucidchartObjectId="oJj4rZdUhGGG" id="556">
                    <mxCell style="html=1;jettySize=18;whiteSpace=wrap;fontSize=13;strokeColor=#3a414a;strokeOpacity=100;strokeWidth=0.8;rounded=1;arcSize=12;edgeStyle=orthogonalEdgeStyle;startArrow=none;endArrow=block;endFill=1;exitX=-0.004;exitY=0.951;exitPerimeter=0;entryX=0.5;entryY=-0.004;entryPerimeter=0;fontColor=#FFFFFF;" parent="1" source="555" target="557" edge="1">
                        <mxGeometry width="100" height="100" relative="1" as="geometry">
                            <Array as="points"/>
                        </mxGeometry>
                    </mxCell>
                </UserObject>
                <UserObject label="branchCode" lucidchartObjectId="pJj4fhKvWE0~" id="557">
                    <mxCell style="html=1;overflow=block;blockSpacing=1;whiteSpace=wrap;ellipse;fontSize=16.7;fontColor=#FFFFFF;fontStyle=4;spacing=3.8;strokeColor=#3a414a;strokeOpacity=100;rounded=1;absoluteArcSize=1;arcSize=9;strokeWidth=0.8;container=0;" parent="1" vertex="1">
                        <mxGeometry x="-205" y="535" width="120" height="90" as="geometry"/>
                    </mxCell>
                </UserObject>
                <UserObject label="" lucidchartObjectId="EJj4MQPF1q8c" id="558">
                    <mxCell style="html=1;jettySize=18;whiteSpace=wrap;fontSize=13;strokeColor=#3a414a;strokeOpacity=100;strokeWidth=0.8;rounded=1;arcSize=12;edgeStyle=orthogonalEdgeStyle;startArrow=none;endArrow=block;endFill=1;exitX=0.5;exitY=1.004;exitPerimeter=0;entryX=0.5;entryY=-0.004;entryPerimeter=0;fontColor=#FFFFFF;" parent="1" source="555" target="559" edge="1">
                        <mxGeometry width="100" height="100" relative="1" as="geometry">
                            <Array as="points"/>
                        </mxGeometry>
                    </mxCell>
                </UserObject>
                <UserObject label="shortName" lucidchartObjectId="FJj4pdPQ1vGf" id="559">
                    <mxCell style="html=1;overflow=block;blockSpacing=1;whiteSpace=wrap;ellipse;fontSize=16.7;fontColor=#FFFFFF;spacing=3.8;strokeColor=#3a414a;strokeOpacity=100;rounded=1;absoluteArcSize=1;arcSize=9;strokeWidth=0.8;container=0;" parent="1" vertex="1">
                        <mxGeometry x="-62" y="535" width="120" height="90" as="geometry"/>
                    </mxCell>
                </UserObject>
                <UserObject label="" lucidchartObjectId="QJj4DCeb4y13" id="560">
                    <mxCell style="html=1;jettySize=18;whiteSpace=wrap;fontSize=13;strokeColor=#3a414a;strokeOpacity=100;strokeWidth=0.8;rounded=1;arcSize=12;edgeStyle=orthogonalEdgeStyle;startArrow=none;endArrow=block;endFill=1;exitX=1.001;exitY=0.968;exitPerimeter=0;entryX=0.5;entryY=-0.004;entryPerimeter=0;fontColor=#FFFFFF;" parent="1" source="555" target="561" edge="1">
                        <mxGeometry width="100" height="100" relative="1" as="geometry">
                            <Array as="points"/>
                        </mxGeometry>
                    </mxCell>
                </UserObject>
                <UserObject label="detailedAddress" lucidchartObjectId="RJj4Nv5jxB6U" id="561">
                    <mxCell style="html=1;overflow=block;blockSpacing=1;whiteSpace=wrap;ellipse;fontSize=16.7;spacing=3.8;strokeOpacity=100;rounded=1;absoluteArcSize=1;arcSize=9;strokeWidth=0.8;container=0;" parent="1" vertex="1">
                        <mxGeometry x="80" y="535" width="135" height="90" as="geometry"/>
                    </mxCell>
                </UserObject>
                <UserObject label="Test" lucidchartObjectId="DNj4.F0lc7NE" id="562">
                    <mxCell style="html=1;overflow=block;blockSpacing=1;whiteSpace=wrap;fontSize=16.7;fontColor=#FFFFFF;spacing=3.8;strokeColor=#3a414a;strokeOpacity=100;rounded=1;absoluteArcSize=1;arcSize=9;strokeWidth=0.8;container=0;" parent="1" vertex="1">
                        <mxGeometry x="500" y="340" width="120" height="90" as="geometry"/>
                    </mxCell>
                </UserObject>
                <UserObject label="Provides" lucidchartObjectId="gOj4ogpJtUef" id="563">
                    <mxCell style="html=1;overflow=block;blockSpacing=1;whiteSpace=wrap;shape=rhombus;fontSize=16.7;fontColor=#FFFFFF;spacing=3.8;strokeColor=#3a414a;strokeOpacity=100;rounded=1;absoluteArcSize=1;arcSize=9;strokeWidth=0.8;container=0;" parent="1" vertex="1">
                        <mxGeometry x="215" y="333" width="131" height="114" as="geometry"/>
                    </mxCell>
                </UserObject>
                <UserObject label="" lucidchartObjectId="COj4ff8z5fO8" id="564">
                    <mxCell style="html=1;jettySize=18;whiteSpace=wrap;fontSize=13;strokeColor=#3a414a;strokeOpacity=100;strokeWidth=1.5;rounded=1;arcSize=12;edgeStyle=orthogonalEdgeStyle;startArrow=none;endArrow=none;exitX=0.013;exitY=0.5;exitPerimeter=0;entryX=1.004;entryY=0.552;entryPerimeter=0;fontColor=#FFFFFF;" parent="1" source="563" target="555" edge="1">
                        <mxGeometry width="100" height="100" relative="1" as="geometry">
                            <Array as="points"/>
                        </mxGeometry>
                    </mxCell>
                </UserObject>
                <mxCell id="565" value="M" style="text;html=1;resizable=0;labelBackgroundColor=default;align=center;verticalAlign=middle;fontStyle=1;fontColor=#FFFFFF;fontSize=13.3;container=0;" parent="564" vertex="1">
                    <mxGeometry relative="1" as="geometry">
                        <mxPoint as="offset"/>
                    </mxGeometry>
                </mxCell>
                <UserObject label="" lucidchartObjectId="SOj4xEYiAWdq" id="566">
                    <mxCell style="html=1;jettySize=18;whiteSpace=wrap;fontSize=13;strokeColor=#3a414a;strokeOpacity=100;strokeWidth=1.5;rounded=1;arcSize=12;edgeStyle=orthogonalEdgeStyle;startArrow=none;endArrow=none;exitX=0.987;exitY=0.5;exitPerimeter=0;entryX=-0.003;entryY=0.552;entryPerimeter=0;fontColor=#FFFFFF;" parent="1" source="563" target="562" edge="1">
                        <mxGeometry width="100" height="100" relative="1" as="geometry">
                            <Array as="points"/>
                        </mxGeometry>
                    </mxCell>
                </UserObject>
                <mxCell id="567" value="M" style="text;html=1;resizable=0;labelBackgroundColor=default;align=center;verticalAlign=middle;fontStyle=1;fontColor=#FFFFFF;fontSize=13.3;container=0;" parent="566" vertex="1">
                    <mxGeometry x="-0.10454195576897074" relative="1" as="geometry">
                        <mxPoint as="offset"/>
                    </mxGeometry>
                </mxCell>
                <UserObject label="" lucidchartObjectId="Qmo46mvCvN0i" id="568">
                    <mxCell style="html=1;jettySize=18;whiteSpace=wrap;fontSize=13;strokeColor=#3a414a;strokeOpacity=100;strokeWidth=0.8;rounded=1;arcSize=12;edgeStyle=orthogonalEdgeStyle;startArrow=none;endArrow=none;exitX=0.127;exitY=0.838;exitPerimeter=0;entryX=0.5;entryY=-0.004;entryPerimeter=0;fontColor=#FFFFFF;" parent="1" source="561" target="569" edge="1">
                        <mxGeometry width="100" height="100" relative="1" as="geometry">
                            <Array as="points"/>
                        </mxGeometry>
                    </mxCell>
                </UserObject>
                <UserObject label="city" lucidchartObjectId="Rmo4VcnXd6Fe" id="569">
                    <mxCell style="html=1;overflow=block;blockSpacing=1;whiteSpace=wrap;ellipse;fontSize=16.7;fontColor=#FFFFFF;spacing=3.8;strokeColor=#3a414a;strokeOpacity=100;rounded=1;absoluteArcSize=1;arcSize=9;strokeWidth=0.8;container=0;" parent="1" vertex="1">
                        <mxGeometry x="5" y="745" width="120" height="90" as="geometry"/>
                    </mxCell>
                </UserObject>
                <UserObject label="" lucidchartObjectId="2mo4ZCQY~aoN" id="570">
                    <mxCell style="html=1;jettySize=18;whiteSpace=wrap;fontSize=13;strokeColor=#3a414a;strokeOpacity=100;strokeWidth=0.8;rounded=1;arcSize=12;edgeStyle=orthogonalEdgeStyle;startArrow=none;endArrow=none;exitX=0.5;exitY=1.004;exitPerimeter=0;entryX=0.5;entryY=-0.004;entryPerimeter=0;fontColor=#FFFFFF;" parent="1" source="561" target="571" edge="1">
                        <mxGeometry width="100" height="100" relative="1" as="geometry">
                            <Array as="points"/>
                        </mxGeometry>
                    </mxCell>
                </UserObject>
                <UserObject label="area" lucidchartObjectId="2mo4UlvWyfNX" id="571">
                    <mxCell style="html=1;overflow=block;blockSpacing=1;whiteSpace=wrap;ellipse;fontSize=16.7;fontColor=#FFFFFF;spacing=3.8;strokeColor=#3a414a;strokeOpacity=100;rounded=1;absoluteArcSize=1;arcSize=9;strokeWidth=0.8;container=0;" parent="1" vertex="1">
                        <mxGeometry x="148" y="745" width="120" height="90" as="geometry"/>
                    </mxCell>
                </UserObject>
                <UserObject label="" lucidchartObjectId="-mo49B85d1nU" id="572">
                    <mxCell style="html=1;jettySize=18;whiteSpace=wrap;fontSize=13;strokeColor=#3a414a;strokeOpacity=100;strokeWidth=0.8;rounded=1;arcSize=12;edgeStyle=orthogonalEdgeStyle;startArrow=none;endArrow=none;exitX=0.818;exitY=0.89;exitPerimeter=0;entryX=0.5;entryY=-0.004;entryPerimeter=0;fontColor=#FFFFFF;" parent="1" source="561" target="573" edge="1">
                        <mxGeometry width="100" height="100" relative="1" as="geometry">
                            <Array as="points"/>
                        </mxGeometry>
                    </mxCell>
                </UserObject>
                <UserObject label="street" lucidchartObjectId="_mo4g86t6qgl" id="573">
                    <mxCell style="html=1;overflow=block;blockSpacing=1;whiteSpace=wrap;ellipse;fontSize=16.7;fontColor=#FFFFFF;spacing=3.8;strokeColor=#3a414a;strokeOpacity=100;rounded=1;absoluteArcSize=1;arcSize=9;strokeWidth=0.8;container=0;" parent="1" vertex="1">
                        <mxGeometry x="275" y="745" width="120" height="90" as="geometry"/>
                    </mxCell>
                </UserObject>
                <UserObject label="" lucidchartObjectId="wno4SNLKn2v5" id="574">
                    <mxCell style="html=1;jettySize=18;whiteSpace=wrap;fontSize=13;strokeColor=#3a414a;strokeOpacity=100;strokeWidth=0.8;rounded=1;arcSize=12;edgeStyle=orthogonalEdgeStyle;startArrow=none;endArrow=none;exitX=1.003;exitY=0.5;exitPerimeter=0;entryX=0.5;entryY=-0.004;entryPerimeter=0;fontColor=#FFFFFF;" parent="1" source="561" target="575" edge="1">
                        <mxGeometry width="100" height="100" relative="1" as="geometry">
                            <Array as="points"/>
                        </mxGeometry>
                    </mxCell>
                </UserObject>
                <UserObject label="BuildingNumber" lucidchartObjectId="xno48BczLpQX" id="575">
                    <mxCell style="html=1;overflow=block;blockSpacing=1;whiteSpace=wrap;ellipse;fontSize=16.7;fontColor=#FFFFFF;spacing=3.8;strokeColor=#3a414a;strokeOpacity=100;rounded=1;absoluteArcSize=1;arcSize=9;strokeWidth=0.8;container=0;" parent="1" vertex="1">
                        <mxGeometry x="425" y="745" width="135" height="90" as="geometry"/>
                    </mxCell>
                </UserObject>
                <UserObject label="" lucidchartObjectId="Tno4bpAUU.Fk" id="576">
                    <mxCell style="html=1;jettySize=18;whiteSpace=wrap;fontSize=13;strokeColor=#3a414a;strokeOpacity=100;strokeWidth=0.8;rounded=1;arcSize=12;edgeStyle=orthogonalEdgeStyle;startArrow=none;endArrow=none;exitX=0.323;exitY=0.972;exitPerimeter=0;entryX=0.5;entryY=-0.004;entryPerimeter=0;fontColor=#FFFFFF;" parent="1" source="561" target="577" edge="1">
                        <mxGeometry width="100" height="100" relative="1" as="geometry">
                            <Array as="points"/>
                        </mxGeometry>
                    </mxCell>
                </UserObject>
                <UserObject label="FloorNumber" lucidchartObjectId="Uno4B-7Ddkf9" id="577">
                    <mxCell style="html=1;overflow=block;blockSpacing=1;whiteSpace=wrap;ellipse;fontSize=16.7;fontColor=#FFFFFF;spacing=3.8;strokeColor=#3a414a;strokeOpacity=100;rounded=1;absoluteArcSize=1;arcSize=9;strokeWidth=0.8;container=0;" parent="1" vertex="1">
                        <mxGeometry x="80" y="865" width="120" height="90" as="geometry"/>
                    </mxCell>
                </UserObject>
                <UserObject label="" lucidchartObjectId="Sqo4trSe.m_x" id="578">
                    <mxCell style="html=1;jettySize=18;whiteSpace=wrap;fontSize=13;strokeColor=#3a414a;strokeOpacity=100;strokeWidth=0.8;rounded=1;arcSize=12;edgeStyle=orthogonalEdgeStyle;startArrow=none;endArrow=none;exitX=-0.001;exitY=0.967;exitPerimeter=0;entryX=0.5;entryY=-0.004;entryPerimeter=0;fontColor=#FFFFFF;" parent="1" source="562" target="579" edge="1">
                        <mxGeometry width="100" height="100" relative="1" as="geometry">
                            <Array as="points"/>
                        </mxGeometry>
                    </mxCell>
                </UserObject>
                <UserObject label="TestCode" lucidchartObjectId="Tqo4K4G3bVY4" id="579">
                    <mxCell style="html=1;overflow=block;blockSpacing=1;whiteSpace=wrap;ellipse;fontSize=16.7;fontColor=#FFFFFF;fontStyle=4;spacing=3.8;strokeColor=#3a414a;strokeOpacity=100;rounded=1;absoluteArcSize=1;arcSize=9;strokeWidth=0.8;container=0;" parent="1" vertex="1">
                        <mxGeometry x="410" y="460" width="120" height="90" as="geometry"/>
                    </mxCell>
                </UserObject>
                <UserObject label="" lucidchartObjectId="6qo4xmNfYWpz" id="580">
                    <mxCell style="html=1;jettySize=18;whiteSpace=wrap;fontSize=13;strokeColor=#3a414a;strokeOpacity=100;strokeWidth=0.8;rounded=1;arcSize=12;edgeStyle=orthogonalEdgeStyle;startArrow=none;endArrow=none;exitX=0.5;exitY=1.004;exitPerimeter=0;entryX=0.5;entryY=-0.004;entryPerimeter=0;fontColor=#FFFFFF;" parent="1" source="562" target="581" edge="1">
                        <mxGeometry width="100" height="100" relative="1" as="geometry">
                            <Array as="points"/>
                        </mxGeometry>
                    </mxCell>
                </UserObject>
                <UserObject label="TestName" lucidchartObjectId="7qo4_AFUN3-Y" id="581">
                    <mxCell style="html=1;overflow=block;blockSpacing=1;whiteSpace=wrap;ellipse;fontSize=16.7;fontColor=#FFFFFF;spacing=3.8;strokeColor=#3a414a;strokeOpacity=100;rounded=1;absoluteArcSize=1;arcSize=9;strokeWidth=0.8;container=0;" parent="1" vertex="1">
                        <mxGeometry x="560" y="460" width="120" height="90" as="geometry"/>
                    </mxCell>
                </UserObject>
                <UserObject label="" lucidchartObjectId="pro4VGGB3Lh6" id="582">
                    <mxCell style="html=1;jettySize=18;whiteSpace=wrap;fontSize=13;strokeColor=#3a414a;strokeOpacity=100;strokeWidth=0.8;rounded=1;arcSize=12;edgeStyle=orthogonalEdgeStyle;startArrow=none;endArrow=none;exitX=0.283;exitY=1.004;exitPerimeter=0;entryX=0.5;entryY=-0.004;entryPerimeter=0;fontColor=#FFFFFF;" parent="1" source="562" target="583" edge="1">
                        <mxGeometry width="100" height="100" relative="1" as="geometry">
                            <Array as="points">
                                <mxPoint x="534" y="528"/>
                                <mxPoint x="550" y="528"/>
                                <mxPoint x="550" y="625"/>
                            </Array>
                        </mxGeometry>
                    </mxCell>
                </UserObject>
                <UserObject label="Cost" lucidchartObjectId="qro4slCi~f5." id="583">
                    <mxCell style="html=1;overflow=block;blockSpacing=1;whiteSpace=wrap;ellipse;fontSize=16.7;fontColor=#FFFFFF;spacing=3.8;strokeColor=#3a414a;strokeOpacity=100;rounded=1;absoluteArcSize=1;arcSize=9;strokeWidth=0.8;container=0;" parent="1" vertex="1">
                        <mxGeometry x="560" y="625" width="120" height="90" as="geometry"/>
                    </mxCell>
                </UserObject>
                <UserObject label="" lucidchartObjectId="Jro4V2Lu3CFu" id="584">
                    <mxCell style="html=1;jettySize=18;whiteSpace=wrap;fontSize=13;strokeColor=#3a414a;strokeOpacity=100;strokeWidth=0.8;rounded=1;arcSize=12;edgeStyle=orthogonalEdgeStyle;startArrow=none;endArrow=none;exitX=1.003;exitY=0.5;exitPerimeter=0;entryX=0.5;entryY=-0.004;entryPerimeter=0;fontColor=#FFFFFF;" parent="1" source="562" target="585" edge="1">
                        <mxGeometry width="100" height="100" relative="1" as="geometry">
                            <Array as="points"/>
                        </mxGeometry>
                    </mxCell>
                </UserObject>
                <UserObject label="Duration" lucidchartObjectId="Kro4oHGazUrX" id="585">
                    <mxCell style="html=1;overflow=block;blockSpacing=1;whiteSpace=wrap;ellipse;fontSize=16.7;fontColor=#FFFFFF;spacing=3.8;strokeColor=#3a414a;strokeOpacity=100;rounded=1;absoluteArcSize=1;arcSize=9;strokeWidth=0.8;container=0;" parent="1" vertex="1">
                        <mxGeometry x="710" y="460" width="120" height="90" as="geometry"/>
                    </mxCell>
                </UserObject>
                <UserObject label="Patient" lucidchartObjectId="uso4-fy2ku-O" id="586">
                    <mxCell style="html=1;overflow=block;blockSpacing=1;whiteSpace=wrap;fontSize=16.7;fontColor=#FFFFFF;spacing=3.8;strokeColor=#3a414a;strokeOpacity=100;rounded=1;absoluteArcSize=1;arcSize=9;strokeWidth=0.8;container=0;" parent="1" vertex="1">
                        <mxGeometry x="-55" y="10" width="120" height="90" as="geometry"/>
                    </mxCell>
                </UserObject>
                <UserObject label="" lucidchartObjectId="Uso4sTubiYsV" id="587">
                    <mxCell style="html=1;jettySize=18;whiteSpace=wrap;fontSize=13;strokeColor=#3a414a;strokeOpacity=100;strokeWidth=0.8;rounded=1;arcSize=12;edgeStyle=orthogonalEdgeStyle;startArrow=none;endArrow=none;exitX=-0.003;exitY=0.5;exitPerimeter=0;entryX=0.5;entryY=1.004;entryPerimeter=0;fontColor=#FFFFFF;" parent="1" source="586" target="588" edge="1">
                        <mxGeometry width="100" height="100" relative="1" as="geometry">
                            <Array as="points"/>
                        </mxGeometry>
                    </mxCell>
                </UserObject>
                <UserObject label="PatientID" lucidchartObjectId="Vso4AWzRSHmj" id="588">
                    <mxCell style="html=1;overflow=block;blockSpacing=1;whiteSpace=wrap;ellipse;fontSize=16.7;fontColor=#FFFFFF;fontStyle=4;spacing=3.8;strokeColor=#3a414a;strokeOpacity=100;rounded=1;absoluteArcSize=1;arcSize=9;strokeWidth=0.8;container=0;" parent="1" vertex="1">
                        <mxGeometry x="-235" y="-65" width="120" height="90" as="geometry"/>
                    </mxCell>
                </UserObject>
                <UserObject label="" lucidchartObjectId="~so4HkT6adTF" id="589">
                    <mxCell style="html=1;jettySize=18;whiteSpace=wrap;fontSize=13;strokeColor=#3a414a;strokeOpacity=100;strokeWidth=0.8;rounded=1;arcSize=12;edgeStyle=orthogonalEdgeStyle;startArrow=none;endArrow=none;exitX=0.006;exitY=0.016;exitPerimeter=0;entryX=0.5;entryY=1.004;entryPerimeter=0;fontColor=#FFFFFF;" parent="1" source="586" target="590" edge="1">
                        <mxGeometry width="100" height="100" relative="1" as="geometry">
                            <Array as="points"/>
                        </mxGeometry>
                    </mxCell>
                </UserObject>
                <UserObject label="FullName" lucidchartObjectId="ato4RoKM8O2C" id="590">
                    <mxCell style="html=1;overflow=block;blockSpacing=1;whiteSpace=wrap;ellipse;fontSize=16.7;fontColor=#FFFFFF;spacing=3.8;strokeColor=#3a414a;strokeOpacity=100;rounded=1;absoluteArcSize=1;arcSize=9;strokeWidth=0.8;container=0;" parent="1" vertex="1">
                        <mxGeometry x="-115" y="-110" width="120" height="90" as="geometry"/>
                    </mxCell>
                </UserObject>
                <UserObject label="" lucidchartObjectId="rto48056h3LF" id="591">
                    <mxCell style="html=1;jettySize=18;whiteSpace=wrap;fontSize=13;strokeColor=#3a414a;strokeOpacity=100;strokeWidth=0.8;rounded=1;arcSize=12;edgeStyle=orthogonalEdgeStyle;startArrow=none;endArrow=none;exitX=0.8;exitY=-0.004;exitPerimeter=0;entryX=0.5;entryY=1.004;entryPerimeter=0;fontColor=#FFFFFF;" parent="1" source="586" target="592" edge="1">
                        <mxGeometry width="100" height="100" relative="1" as="geometry">
                            <Array as="points"/>
                        </mxGeometry>
                    </mxCell>
                </UserObject>
                <UserObject label="Age" lucidchartObjectId="sto4s1_o~1oE" id="592">
                    <mxCell style="html=1;overflow=block;blockSpacing=1;whiteSpace=wrap;ellipse;fontSize=16.7;fontColor=#FFFFFF;spacing=3.8;strokeColor=#3a414a;strokeOpacity=100;rounded=1;absoluteArcSize=1;arcSize=9;dashed=1;fixDash=1;dashPattern=1 4;strokeWidth=0.8;container=0;" parent="1" vertex="1">
                        <mxGeometry x="28" y="-125" width="120" height="90" as="geometry"/>
                    </mxCell>
                </UserObject>
                <UserObject label="" lucidchartObjectId="Cto4En6dcjV5" id="593">
                    <mxCell style="html=1;jettySize=18;whiteSpace=wrap;fontSize=13;strokeColor=#3a414a;strokeOpacity=100;strokeWidth=0.8;rounded=1;arcSize=12;edgeStyle=orthogonalEdgeStyle;startArrow=none;endArrow=none;exitX=1.003;exitY=0.283;exitPerimeter=0;entryX=0.5;entryY=1.004;entryPerimeter=0;fontColor=#FFFFFF;" parent="1" source="586" target="594" edge="1">
                        <mxGeometry width="100" height="100" relative="1" as="geometry">
                            <Array as="points"/>
                        </mxGeometry>
                    </mxCell>
                </UserObject>
                <UserObject label="MobileNumber" lucidchartObjectId="Dto4a7EI03jo" id="594">
                    <mxCell style="html=1;overflow=block;blockSpacing=1;whiteSpace=wrap;ellipse;fontSize=16.7;fontColor=#FFFFFF;spacing=3.8;strokeColor=#3a414a;strokeOpacity=100;rounded=1;absoluteArcSize=1;arcSize=9;strokeWidth=0.8;container=0;" parent="1" vertex="1">
                        <mxGeometry x="170" y="-125" width="135" height="90" as="geometry"/>
                    </mxCell>
                </UserObject>
                <UserObject label="DateofBirth" lucidchartObjectId="-to4YWLKVFP3" id="595">
                    <mxCell style="html=1;overflow=block;blockSpacing=1;whiteSpace=wrap;ellipse;fontSize=16.7;fontColor=#FFFFFF;spacing=3.8;strokeColor=#3a414a;strokeOpacity=100;rounded=1;absoluteArcSize=1;arcSize=9;strokeWidth=0.8;container=0;" parent="1" vertex="1">
                        <mxGeometry x="335" y="-125" width="120" height="90" as="geometry"/>
                    </mxCell>
                </UserObject>
                <UserObject label="" lucidchartObjectId="iuo4iLEfnQZU" id="596">
                    <mxCell style="html=1;jettySize=18;whiteSpace=wrap;fontSize=13;strokeColor=#3a414a;strokeOpacity=100;strokeWidth=0.8;rounded=1;arcSize=12;edgeStyle=orthogonalEdgeStyle;startArrow=none;endArrow=none;exitX=1.003;exitY=0.5;exitPerimeter=0;entryX=0.5;entryY=1.004;entryPerimeter=0;fontColor=#FFFFFF;" parent="1" source="586" target="595" edge="1">
                        <mxGeometry width="100" height="100" relative="1" as="geometry">
                            <Array as="points"/>
                        </mxGeometry>
                    </mxCell>
                </UserObject>
                <UserObject label="" lucidchartObjectId="Iuo4Cz8~5u-Z" id="597">
                    <mxCell style="html=1;jettySize=18;whiteSpace=wrap;fontSize=13;strokeColor=#3a414a;strokeOpacity=100;strokeWidth=0.8;rounded=1;arcSize=12;edgeStyle=orthogonalEdgeStyle;startArrow=none;endArrow=none;exitX=1.003;exitY=0.758;exitPerimeter=0;entryX=0.5;entryY=1.004;entryPerimeter=0;fontColor=#FFFFFF;" parent="1" source="586" target="598" edge="1">
                        <mxGeometry width="100" height="100" relative="1" as="geometry">
                            <Array as="points"/>
                        </mxGeometry>
                    </mxCell>
                </UserObject>
                <UserObject label="Gender" lucidchartObjectId="Kuo4m8zMZUXj" id="598">
                    <mxCell style="html=1;overflow=block;blockSpacing=1;whiteSpace=wrap;ellipse;fontSize=16.7;fontColor=#FFFFFF;spacing=3.8;strokeColor=#3a414a;strokeOpacity=100;rounded=1;absoluteArcSize=1;arcSize=9;strokeWidth=0.8;container=0;" parent="1" vertex="1">
                        <mxGeometry x="485" y="-125" width="120" height="90" as="geometry"/>
                    </mxCell>
                </UserObject>
                <UserObject label="" lucidchartObjectId="3uo47WADw.zZ" id="599">
                    <mxCell style="html=1;jettySize=18;whiteSpace=wrap;fontSize=13;strokeColor=#3a414a;strokeOpacity=100;strokeWidth=0.8;rounded=1;arcSize=12;edgeStyle=orthogonalEdgeStyle;startArrow=none;endArrow=none;exitX=0.6;exitY=-0.004;exitPerimeter=0;entryX=0.5;entryY=1.004;entryPerimeter=0;fontColor=#FFFFFF;" parent="1" source="586" target="600" edge="1">
                        <mxGeometry width="100" height="100" relative="1" as="geometry">
                            <Array as="points"/>
                        </mxGeometry>
                    </mxCell>
                </UserObject>
                <UserObject label="ChoronicDiseases" lucidchartObjectId="4uo47Gu7ZaBX" id="600">
                    <mxCell style="html=1;overflow=block;blockSpacing=1;whiteSpace=wrap;ellipse;fontSize=16.7;fontColor=#FFFFFF;spacing=3.8;strokeColor=#3a414a;strokeOpacity=100;rounded=1;absoluteArcSize=1;arcSize=9;strokeWidth=0.8;container=0;" parent="1" vertex="1">
                        <mxGeometry x="-43" y="-230" width="153" height="90" as="geometry"/>
                    </mxCell>
                </UserObject>
                <mxCell id="628" value="1" style="edgeStyle=none;html=1;exitX=0.5;exitY=1;exitDx=0;exitDy=0;entryX=0.271;entryY=0.272;entryDx=0;entryDy=0;entryPerimeter=0;strokeColor=#080808;fontColor=#FFFFFF;endArrow=none;endFill=0;" parent="1" source="601" target="627" edge="1">
                    <mxGeometry relative="1" as="geometry"/>
                </mxCell>
                <UserObject label="Employee" lucidchartObjectId="Avo4K4Txcepa" id="601">
                    <mxCell style="html=1;overflow=block;blockSpacing=1;whiteSpace=wrap;fontSize=16.7;fontColor=#FFFFFF;spacing=3.8;strokeColor=#3a414a;strokeOpacity=100;rounded=1;absoluteArcSize=1;arcSize=9;strokeWidth=0.8;container=0;" parent="1" vertex="1">
                        <mxGeometry x="-400" y="160" width="120" height="90" as="geometry"/>
                    </mxCell>
                </UserObject>
                <UserObject label="" lucidchartObjectId="6vo4F9JUxIe3" id="602">
                    <mxCell style="html=1;jettySize=18;whiteSpace=wrap;fontSize=13;strokeColor=#3a414a;strokeOpacity=100;strokeWidth=0.8;rounded=1;arcSize=12;edgeStyle=orthogonalEdgeStyle;startArrow=none;endArrow=none;exitX=-0.003;exitY=0.5;exitPerimeter=0;entryX=1.003;entryY=0.5;entryPerimeter=0;fontColor=#FFFFFF;" parent="1" source="601" target="603" edge="1">
                        <mxGeometry width="100" height="100" relative="1" as="geometry">
                            <Array as="points"/>
                        </mxGeometry>
                    </mxCell>
                </UserObject>
                <UserObject label="EmployeeID" lucidchartObjectId="7vo4_zbyh-pw" id="603">
                    <mxCell style="html=1;overflow=block;blockSpacing=1;whiteSpace=wrap;ellipse;fontSize=16.7;fontColor=#FFFFFF;fontStyle=4;spacing=3.8;strokeColor=#3a414a;strokeOpacity=100;rounded=1;absoluteArcSize=1;arcSize=9;strokeWidth=0.8;container=0;" parent="1" vertex="1">
                        <mxGeometry x="-610" y="160" width="120" height="90" as="geometry"/>
                    </mxCell>
                </UserObject>
                <UserObject label="" lucidchartObjectId="hwo4-wxiY.Vb" id="604">
                    <mxCell style="html=1;jettySize=18;whiteSpace=wrap;fontSize=13;strokeColor=#3a414a;strokeOpacity=100;strokeWidth=0.8;rounded=1;arcSize=12;edgeStyle=orthogonalEdgeStyle;startArrow=none;endArrow=none;exitX=-0.001;exitY=0.966;exitPerimeter=0;entryX=1.003;entryY=0.5;entryPerimeter=0;fontColor=#FFFFFF;" parent="1" source="601" target="605" edge="1">
                        <mxGeometry width="100" height="100" relative="1" as="geometry">
                            <Array as="points"/>
                        </mxGeometry>
                    </mxCell>
                </UserObject>
                <UserObject label="FullName" lucidchartObjectId="iwo4z26Tj4mf" id="605">
                    <mxCell style="html=1;overflow=block;blockSpacing=1;whiteSpace=wrap;ellipse;fontSize=16.7;fontColor=#FFFFFF;spacing=3.8;strokeColor=#3a414a;strokeOpacity=100;rounded=1;absoluteArcSize=1;arcSize=9;strokeWidth=0.8;container=0;" parent="1" vertex="1">
                        <mxGeometry x="-610" y="265" width="120" height="90" as="geometry"/>
                    </mxCell>
                </UserObject>
                <UserObject label="" lucidchartObjectId="uwo4ftPf7JzT" id="606">
                    <mxCell style="html=1;jettySize=18;whiteSpace=wrap;fontSize=13;strokeColor=#3a414a;strokeOpacity=100;strokeWidth=0.8;rounded=1;arcSize=12;edgeStyle=orthogonalEdgeStyle;startArrow=none;endArrow=none;exitX=-0.003;exitY=0.768;exitPerimeter=0;entryX=1.003;entryY=0.5;entryPerimeter=0;fontColor=#FFFFFF;" parent="1" source="601" target="607" edge="1">
                        <mxGeometry width="100" height="100" relative="1" as="geometry">
                            <Array as="points">
                                <mxPoint x="-460" y="229"/>
                                <mxPoint x="-460" y="258"/>
                                <mxPoint x="-608" y="258"/>
                                <mxPoint x="-608" y="265"/>
                                <mxPoint x="-641" y="265"/>
                            </Array>
                        </mxGeometry>
                    </mxCell>
                </UserObject>
                <UserObject label="Salary" lucidchartObjectId="vwo4ItI2PX~l" id="607">
                    <mxCell style="html=1;overflow=block;blockSpacing=1;whiteSpace=wrap;ellipse;fontSize=16.7;fontColor=#FFFFFF;spacing=3.8;strokeColor=#3a414a;strokeOpacity=100;rounded=1;absoluteArcSize=1;arcSize=9;strokeWidth=0.8;container=0;" parent="1" vertex="1">
                        <mxGeometry x="-761" y="211" width="120" height="90" as="geometry"/>
                    </mxCell>
                </UserObject>
                <UserObject label="" lucidchartObjectId="Cwo4fitZWpqa" id="608">
                    <mxCell style="html=1;jettySize=18;whiteSpace=wrap;fontSize=13;strokeColor=#3a414a;strokeOpacity=100;strokeWidth=0.8;rounded=1;arcSize=12;edgeStyle=orthogonalEdgeStyle;startArrow=none;endArrow=none;exitX=0.25;exitY=1;entryX=1.003;entryY=0.5;entryPerimeter=0;fontColor=#FFFFFF;exitDx=0;exitDy=0;" parent="1" source="601" target="609" edge="1">
                        <mxGeometry width="100" height="100" relative="1" as="geometry">
                            <Array as="points"/>
                        </mxGeometry>
                    </mxCell>
                </UserObject>
                <UserObject label="Team" lucidchartObjectId="Dwo4s8nvD3Lu" id="609">
                    <mxCell style="html=1;overflow=block;blockSpacing=1;whiteSpace=wrap;ellipse;fontSize=16.7;fontColor=#FFFFFF;spacing=3.8;strokeColor=#3a414a;strokeOpacity=100;rounded=1;absoluteArcSize=1;arcSize=9;strokeWidth=0.8;container=0;" parent="1" vertex="1">
                        <mxGeometry x="-610" y="377" width="120" height="90" as="geometry"/>
                    </mxCell>
                </UserObject>
                <UserObject label="" lucidchartObjectId="Nwo47M1hI4HA" id="610">
                    <mxCell style="html=1;jettySize=18;whiteSpace=wrap;fontSize=13;strokeColor=#3a414a;strokeOpacity=100;strokeWidth=0.8;rounded=1;arcSize=12;edgeStyle=orthogonalEdgeStyle;startArrow=none;endArrow=none;exitX=0.027;exitY=-0.002;exitPerimeter=0;entryX=0.5;entryY=1;fontColor=#FFFFFF;entryDx=0;entryDy=0;" parent="1" source="601" target="611" edge="1">
                        <mxGeometry width="100" height="100" relative="1" as="geometry">
                            <Array as="points">
                                <mxPoint x="-537" y="160"/>
                                <mxPoint x="-537" y="155"/>
                                <mxPoint x="-633" y="155"/>
                            </Array>
                        </mxGeometry>
                    </mxCell>
                </UserObject>
                <UserObject label="StartTime" lucidchartObjectId="Owo4ut_y0q1~" id="611">
                    <mxCell style="html=1;overflow=block;blockSpacing=1;whiteSpace=wrap;ellipse;fontSize=16.7;fontColor=#FFFFFF;spacing=3.8;strokeColor=#3a414a;strokeOpacity=100;rounded=1;absoluteArcSize=1;arcSize=9;strokeWidth=0.8;container=0;" parent="1" vertex="1">
                        <mxGeometry x="-677" y="40" width="120" height="90" as="geometry"/>
                    </mxCell>
                </UserObject>
                <UserObject label="" lucidchartObjectId="5wo4TWyzSrLe" id="612">
                    <mxCell style="html=1;jettySize=18;whiteSpace=wrap;fontSize=13;strokeColor=#3a414a;strokeOpacity=100;strokeWidth=0.8;rounded=1;arcSize=12;edgeStyle=orthogonalEdgeStyle;startArrow=none;endArrow=none;exitX=0.25;exitY=0;entryX=0.5;entryY=1.004;entryPerimeter=0;fontColor=#FFFFFF;exitDx=0;exitDy=0;" parent="1" source="601" target="613" edge="1">
                        <mxGeometry width="100" height="100" relative="1" as="geometry">
                            <Array as="points"/>
                        </mxGeometry>
                    </mxCell>
                </UserObject>
                <UserObject label="EndTime" lucidchartObjectId="6wo4.R~CA4Tp" id="613">
                    <mxCell style="html=1;overflow=block;blockSpacing=1;whiteSpace=wrap;ellipse;fontSize=16.7;fontColor=#FFFFFF;spacing=3.8;strokeColor=#3a414a;strokeOpacity=100;rounded=1;absoluteArcSize=1;arcSize=9;strokeWidth=0.8;container=0;" parent="1" vertex="1">
                        <mxGeometry x="-535" y="40" width="120" height="90" as="geometry"/>
                    </mxCell>
                </UserObject>
                <UserObject label="Visit" lucidchartObjectId="Mxo4fV5MwkX." id="614">
                    <mxCell style="html=1;overflow=block;blockSpacing=1;whiteSpace=wrap;shape=rhombus;fontSize=16.7;fontColor=#FFFFFF;spacing=3.8;strokeColor=#3a414a;strokeOpacity=100;rounded=1;absoluteArcSize=1;arcSize=9;strokeWidth=0.8;container=0;" parent="1" vertex="1">
                        <mxGeometry x="230" y="117" width="131" height="114" as="geometry"/>
                    </mxCell>
                </UserObject>
                <UserObject label="" lucidchartObjectId="Yxo44XdrCr_e" id="615">
                    <mxCell style="html=1;jettySize=18;whiteSpace=wrap;fontSize=13;strokeColor=#3a414a;strokeOpacity=100;strokeWidth=0.8;rounded=1;arcSize=12;edgeStyle=orthogonalEdgeStyle;startArrow=none;endArrow=none;exitX=0.991;exitY=0.988;exitPerimeter=0;entryX=0.013;entryY=0.5;entryPerimeter=0;fontColor=#FFFFFF;" parent="1" source="586" target="614" edge="1">
                        <mxGeometry width="100" height="100" relative="1" as="geometry">
                            <Array as="points"/>
                        </mxGeometry>
                    </mxCell>
                </UserObject>
                <mxCell id="708" value="M" style="edgeLabel;html=1;align=center;verticalAlign=middle;resizable=0;points=[];fontColor=#f7f7f8;" parent="615" vertex="1" connectable="0">
                    <mxGeometry x="-0.2004" y="2" relative="1" as="geometry">
                        <mxPoint as="offset"/>
                    </mxGeometry>
                </mxCell>
                <UserObject label="" lucidchartObjectId="2xo4FcPNFaJ4" id="617">
                    <mxCell style="html=1;jettySize=18;whiteSpace=wrap;fontSize=13;strokeColor=#3a414a;strokeOpacity=100;strokeWidth=0.8;rounded=1;arcSize=12;edgeStyle=orthogonalEdgeStyle;startArrow=none;endArrow=none;exitX=0.987;exitY=0.5;exitPerimeter=0;entryX=0.5;entryY=-0.004;entryPerimeter=0;fontColor=#FFFFFF;" parent="1" source="614" target="562" edge="1">
                        <mxGeometry width="100" height="100" relative="1" as="geometry">
                            <Array as="points"/>
                        </mxGeometry>
                    </mxCell>
                </UserObject>
                <mxCell id="618" value="M" style="text;html=1;resizable=0;labelBackgroundColor=default;align=center;verticalAlign=middle;fontStyle=1;fontColor=#FFFFFF;fontSize=13.3;container=0;" parent="617" vertex="1">
                    <mxGeometry x="0.5209351390778336" relative="1" as="geometry"/>
                </mxCell>
                <UserObject label="WorksAt" lucidchartObjectId="Mxo4fV5MwkX." id="619">
                    <mxCell style="html=1;overflow=block;blockSpacing=1;whiteSpace=wrap;shape=rhombus;fontSize=16.7;fontColor=#FFFFFF;spacing=3.8;strokeColor=#3a414a;strokeOpacity=100;rounded=1;absoluteArcSize=1;arcSize=9;strokeWidth=0.8;container=0;" parent="1" vertex="1">
                        <mxGeometry x="-210.5" y="219" width="131" height="114" as="geometry"/>
                    </mxCell>
                </UserObject>
                <mxCell id="620" value="M" style="edgeStyle=none;html=1;exitX=1;exitY=0.5;exitDx=0;exitDy=0;entryX=0;entryY=0.5;entryDx=0;entryDy=0;strokeColor=#080808;endArrow=none;endFill=0;fontColor=#FFFFFF;" parent="1" source="601" target="619" edge="1">
                    <mxGeometry relative="1" as="geometry"/>
                </mxCell>
                <UserObject label="Date" lucidchartObjectId="RJj4Nv5jxB6U" id="621">
                    <mxCell style="html=1;overflow=block;blockSpacing=1;whiteSpace=wrap;ellipse;fontSize=16.7;fontColor=#FFFFFF;spacing=3.8;strokeColor=#3a414a;strokeOpacity=100;rounded=1;absoluteArcSize=1;arcSize=9;strokeWidth=0.8;container=0;" parent="1" vertex="1">
                        <mxGeometry x="90" y="220" width="135" height="90" as="geometry"/>
                    </mxCell>
                </UserObject>
                <mxCell id="624" style="edgeStyle=none;html=1;exitX=0.5;exitY=0;exitDx=0;exitDy=0;entryX=0.755;entryY=0.769;entryDx=0;entryDy=0;entryPerimeter=0;strokeColor=#080808;endArrow=none;endFill=0;fontColor=#FFFFFF;" parent="1" source="622" target="614" edge="1">
                    <mxGeometry relative="1" as="geometry"/>
                </mxCell>
                <UserObject label="Time" lucidchartObjectId="RJj4Nv5jxB6U" id="622">
                    <mxCell style="html=1;overflow=block;blockSpacing=1;whiteSpace=wrap;ellipse;fontSize=16.7;fontColor=#FFFFFF;spacing=3.8;strokeColor=#3a414a;strokeOpacity=100;rounded=1;absoluteArcSize=1;arcSize=9;strokeWidth=0.8;container=0;" parent="1" vertex="1">
                        <mxGeometry x="335" y="231" width="135" height="90" as="geometry"/>
                    </mxCell>
                </UserObject>
                <mxCell id="623" style="edgeStyle=none;html=1;exitX=0.249;exitY=0.739;exitDx=0;exitDy=0;strokeColor=#080808;endArrow=none;endFill=0;exitPerimeter=0;fontColor=#FFFFFF;" parent="1" source="614" target="621" edge="1">
                    <mxGeometry relative="1" as="geometry"/>
                </mxCell>
                <mxCell id="629" value="1" style="edgeStyle=none;html=1;exitX=1;exitY=0.5;exitDx=0;exitDy=0;entryX=0;entryY=0.5;entryDx=0;entryDy=0;strokeColor=#080808;fontColor=#FFFFFF;endArrow=none;endFill=0;" parent="1" source="627" target="555" edge="1">
                    <mxGeometry relative="1" as="geometry"/>
                </mxCell>
                <UserObject label="Manages" lucidchartObjectId="Mxo4fV5MwkX." id="627">
                    <mxCell style="html=1;overflow=block;blockSpacing=1;whiteSpace=wrap;shape=rhombus;fontSize=16.7;fontColor=#FFFFFF;spacing=3.8;strokeColor=#3a414a;strokeOpacity=100;rounded=1;absoluteArcSize=1;arcSize=9;strokeWidth=0.8;container=0;" parent="1" vertex="1">
                        <mxGeometry x="-303" y="316" width="131" height="114" as="geometry"/>
                    </mxCell>
                </UserObject>
                <UserObject label="Office" lucidchartObjectId="-Bi4lroBbc4t" id="630">
                    <mxCell style="html=1;overflow=block;blockSpacing=1;whiteSpace=wrap;fontSize=16.7;fontColor=#f7f7f8;spacing=3.8;strokeColor=#3a414a;strokeOpacity=100;rounded=1;absoluteArcSize=1;arcSize=9;strokeWidth=0.8;" parent="1" vertex="1">
                        <mxGeometry x="-319" y="-2117" width="120" height="90" as="geometry"/>
                    </mxCell>
                </UserObject>
                <UserObject label="id" lucidchartObjectId="jCi4UJ0F_Q.W" id="631">
                    <mxCell style="html=1;overflow=block;blockSpacing=1;whiteSpace=wrap;ellipse;fontSize=16.7;fontColor=#f7f7f8;fontStyle=4;spacing=3.8;strokeColor=#3a414a;strokeOpacity=100;rounded=1;absoluteArcSize=1;arcSize=9;strokeWidth=0.8;" parent="1" vertex="1">
                        <mxGeometry x="-551" y="-2117" width="120" height="90" as="geometry"/>
                    </mxCell>
                </UserObject>
                <UserObject label="" lucidchartObjectId="qCi4DI6-EHts" id="632">
                    <mxCell style="html=1;jettySize=18;whiteSpace=wrap;fontSize=13;strokeColor=#3a414a;strokeOpacity=100;strokeWidth=0.8;rounded=1;arcSize=12;edgeStyle=orthogonalEdgeStyle;startArrow=none;endArrow=block;endFill=1;exitX=-0.003;exitY=0.5;exitPerimeter=0;entryX=1.003;entryY=0.5;entryPerimeter=0;fontColor=#f7f7f8;" parent="1" source="630" target="631" edge="1">
                        <mxGeometry width="100" height="100" relative="1" as="geometry">
                            <Array as="points"/>
                        </mxGeometry>
                    </mxCell>
                </UserObject>
                <UserObject label="contactNo" lucidchartObjectId="uDi4~2BoHnol" id="633">
                    <mxCell style="html=1;overflow=block;blockSpacing=1;whiteSpace=wrap;ellipse;fontSize=16.7;fontColor=#f7f7f8;spacing=3.8;strokeColor=#3a414a;strokeOpacity=100;rounded=1;absoluteArcSize=1;arcSize=9;strokeWidth=0.8;" parent="1" vertex="1">
                        <mxGeometry x="-551" y="-2001" width="120" height="90" as="geometry"/>
                    </mxCell>
                </UserObject>
                <UserObject label="" lucidchartObjectId="CDi4ey9Mm97w" id="634">
                    <mxCell style="html=1;jettySize=18;whiteSpace=wrap;fontSize=13;strokeColor=#3a414a;strokeOpacity=100;strokeWidth=0.8;rounded=1;arcSize=12;edgeStyle=orthogonalEdgeStyle;startArrow=none;endArrow=block;endFill=1;exitX=0.5;exitY=1.004;exitPerimeter=0;entryX=1.003;entryY=0.5;entryPerimeter=0;fontColor=#f7f7f8;" parent="1" source="630" target="633" edge="1">
                        <mxGeometry width="100" height="100" relative="1" as="geometry">
                            <Array as="points"/>
                        </mxGeometry>
                    </mxCell>
                </UserObject>
                <UserObject label="address" lucidchartObjectId="GDi46bz57fam" id="635">
                    <mxCell style="html=1;overflow=block;blockSpacing=1;whiteSpace=wrap;ellipse;fontSize=16.7;fontColor=#f7f7f8;spacing=3.8;strokeColor=#3a414a;strokeOpacity=100;rounded=1;absoluteArcSize=1;arcSize=9;strokeWidth=0.8;" parent="1" vertex="1">
                        <mxGeometry x="-551" y="-2232" width="120" height="90" as="geometry"/>
                    </mxCell>
                </UserObject>
                <UserObject label="" lucidchartObjectId="YDi47OldffAD" id="636">
                    <mxCell style="html=1;jettySize=18;whiteSpace=wrap;fontSize=13;strokeColor=#3a414a;strokeOpacity=100;strokeWidth=0.8;rounded=1;arcSize=12;edgeStyle=orthogonalEdgeStyle;startArrow=none;endArrow=block;endFill=1;exitX=0.5;exitY=-0.004;exitPerimeter=0;entryX=1.003;entryY=0.5;entryPerimeter=0;fontColor=#f7f7f8;" parent="1" source="630" target="635" edge="1">
                        <mxGeometry width="100" height="100" relative="1" as="geometry">
                            <Array as="points"/>
                        </mxGeometry>
                    </mxCell>
                </UserObject>
                <UserObject label="" lucidchartObjectId="rLi4_iroDpUo" id="637">
                    <mxCell style="html=1;jettySize=18;whiteSpace=wrap;fontSize=13;strokeColor=#3a414a;strokeOpacity=100;strokeWidth=1.5;rounded=1;arcSize=12;edgeStyle=orthogonalEdgeStyle;startArrow=ERone;startSize=10;endArrow=ERone;endSize=10;exitX=0.987;exitY=0.5;exitPerimeter=0;entryX=-0.003;entryY=0.5;entryPerimeter=0;fontColor=#F7F7F8;" parent="1" source="641" target="642" edge="1">
                        <mxGeometry width="100" height="100" relative="1" as="geometry">
                            <Array as="points"/>
                        </mxGeometry>
                    </mxCell>
                </UserObject>
                <mxCell id="638" value="M" style="text;html=1;resizable=0;labelBackgroundColor=default;align=center;verticalAlign=middle;fontStyle=1;fontColor=#F7F7F8;fontSize=13.3;" parent="637" vertex="1">
                    <mxGeometry x="0.49291597862753345" relative="1" as="geometry">
                        <mxPoint as="offset"/>
                    </mxGeometry>
                </mxCell>
                <UserObject label="" lucidchartObjectId="PKi4BTNqFGvj" id="639">
                    <mxCell style="html=1;jettySize=18;whiteSpace=wrap;fontSize=13;strokeColor=#3a414a;strokeOpacity=100;strokeWidth=0.8;rounded=1;arcSize=12;edgeStyle=orthogonalEdgeStyle;startArrow=ERone;startSize=10;endArrow=ERone;endSize=10;exitX=1.003;exitY=0.5;exitPerimeter=0;entryX=0.013;entryY=0.5;entryPerimeter=0;fontColor=#F7F7F8;" parent="1" source="630" target="641" edge="1">
                        <mxGeometry width="100" height="100" relative="1" as="geometry">
                            <Array as="points"/>
                        </mxGeometry>
                    </mxCell>
                </UserObject>
                <mxCell id="640" value="1" style="text;html=1;resizable=0;labelBackgroundColor=default;align=center;verticalAlign=middle;fontStyle=1;fontColor=#F7F7F8;fontSize=13.3;" parent="639" vertex="1">
                    <mxGeometry x="-0.7737649746535704" relative="1" as="geometry">
                        <mxPoint as="offset"/>
                    </mxGeometry>
                </mxCell>
                <UserObject label="rentApply" lucidchartObjectId="mLi4-R6VgvgX" id="641">
                    <mxCell style="html=1;overflow=block;blockSpacing=1;whiteSpace=wrap;shape=rhombus;fontSize=16.7;fontColor=#F7F7F8;spacing=3.8;strokeColor=#3a414a;strokeOpacity=100;rounded=1;absoluteArcSize=1;arcSize=9;strokeWidth=0.8;" parent="1" vertex="1">
                        <mxGeometry x="-86" y="-2129" width="131" height="114" as="geometry"/>
                    </mxCell>
                </UserObject>
                <UserObject label="CarOwner" lucidchartObjectId="kMi40kWA1ipJ" id="642">
                    <mxCell style="html=1;overflow=block;blockSpacing=1;whiteSpace=wrap;fontSize=16.7;fontColor=#f7f7f8;spacing=3.8;strokeColor=#3a414a;strokeOpacity=100;rounded=1;absoluteArcSize=1;arcSize=9;strokeWidth=0.8;" parent="1" vertex="1">
                        <mxGeometry x="199" y="-2117" width="120" height="90" as="geometry"/>
                    </mxCell>
                </UserObject>
                <UserObject label="" lucidchartObjectId="EOi4ZM-teR8a" id="643">
                    <mxCell style="html=1;jettySize=18;whiteSpace=wrap;fontSize=13;strokeColor=#3a414a;strokeOpacity=100;strokeWidth=0.8;rounded=1;arcSize=12;edgeStyle=orthogonalEdgeStyle;startArrow=ERone;startSize=10;endArrow=ERone;endSize=10;exitX=0.5;exitY=-0.004;exitPerimeter=0;entryX=-0.003;entryY=0.5;entryPerimeter=0;fontColor=#f7f7f8;" parent="1" source="642" target="644" edge="1">
                        <mxGeometry width="100" height="100" relative="1" as="geometry">
                            <Array as="points"/>
                        </mxGeometry>
                    </mxCell>
                </UserObject>
                <UserObject label="NationalID" lucidchartObjectId="GOi4IHfr94v~" id="644">
                    <mxCell style="html=1;overflow=block;blockSpacing=1;whiteSpace=wrap;ellipse;fontSize=16.7;fontColor=#f7f7f8;fontStyle=4;spacing=3.8;strokeColor=#3a414a;strokeOpacity=100;rounded=1;absoluteArcSize=1;arcSize=9;strokeWidth=0.8;" parent="1" vertex="1">
                        <mxGeometry x="409" y="-2247" width="120" height="90" as="geometry"/>
                    </mxCell>
                </UserObject>
                <UserObject label="" lucidchartObjectId="1Oi4MkIlg9n1" id="645">
                    <mxCell style="html=1;jettySize=18;whiteSpace=wrap;fontSize=13;strokeColor=#3a414a;strokeOpacity=100;strokeWidth=0.8;rounded=1;arcSize=12;edgeStyle=orthogonalEdgeStyle;startArrow=ERone;startSize=10;endArrow=ERone;endSize=10;exitX=1.003;exitY=0.5;exitPerimeter=0;entryX=-0.003;entryY=0.5;entryPerimeter=0;fontColor=#f7f7f8;" parent="1" source="642" target="646" edge="1">
                        <mxGeometry width="100" height="100" relative="1" as="geometry">
                            <Array as="points"/>
                        </mxGeometry>
                    </mxCell>
                </UserObject>
                <UserObject label="FullName" lucidchartObjectId="2Oi4ZVM0QvpV" id="646">
                    <mxCell style="html=1;overflow=block;blockSpacing=1;whiteSpace=wrap;ellipse;fontSize=16.7;fontColor=#f7f7f8;spacing=3.8;strokeColor=#3a414a;strokeOpacity=100;rounded=1;absoluteArcSize=1;arcSize=9;strokeWidth=0.8;" parent="1" vertex="1">
                        <mxGeometry x="409" y="-2117" width="120" height="90" as="geometry"/>
                    </mxCell>
                </UserObject>
                <UserObject label="" lucidchartObjectId="ePi4mEU3iP8~" id="647">
                    <mxCell style="html=1;jettySize=18;whiteSpace=wrap;fontSize=13;strokeColor=#3a414a;strokeOpacity=100;strokeWidth=0.8;rounded=1;arcSize=12;edgeStyle=orthogonalEdgeStyle;startArrow=ERone;startSize=10;endArrow=ERone;endSize=10;exitX=0.5;exitY=1.004;exitPerimeter=0;entryX=-0.003;entryY=0.5;entryPerimeter=0;fontColor=#f7f7f8;" parent="1" source="642" target="648" edge="1">
                        <mxGeometry width="100" height="100" relative="1" as="geometry">
                            <Array as="points"/>
                        </mxGeometry>
                    </mxCell>
                </UserObject>
                <UserObject label="bankAccountNo" lucidchartObjectId="gPi4Pb_DvMvJ" id="648">
                    <mxCell style="html=1;overflow=block;blockSpacing=1;whiteSpace=wrap;ellipse;fontSize=16.7;fontColor=#f7f7f8;spacing=3.8;strokeColor=#3a414a;strokeOpacity=100;rounded=1;absoluteArcSize=1;arcSize=9;strokeWidth=0.8;" parent="1" vertex="1">
                        <mxGeometry x="404" y="-1962" width="130" height="98" as="geometry"/>
                    </mxCell>
                </UserObject>
                <UserObject label="Car" lucidchartObjectId="oWi4qeMdCnRM" id="649">
                    <mxCell style="html=1;overflow=block;blockSpacing=1;whiteSpace=wrap;fontSize=16.7;fontColor=#f7f7f8;spacing=3.8;strokeColor=#3a414a;strokeOpacity=100;rounded=1;absoluteArcSize=1;arcSize=9;strokeWidth=0.8;" parent="1" vertex="1">
                        <mxGeometry x="199" y="-1632" width="120" height="90" as="geometry"/>
                    </mxCell>
                </UserObject>
                <UserObject label="" lucidchartObjectId="9Wi4wZDG5Le7" id="650">
                    <mxCell style="html=1;jettySize=18;whiteSpace=wrap;fontSize=13;strokeColor=#3a414a;strokeOpacity=100;strokeWidth=0.8;rounded=1;arcSize=12;edgeStyle=orthogonalEdgeStyle;startArrow=ERone;startSize=10;endArrow=ERone;endSize=10;exitX=0.5;exitY=1.004;exitPerimeter=0;entryX=-0.003;entryY=0.5;entryPerimeter=0;fontColor=#f7f7f8;" parent="1" source="649" target="651" edge="1">
                        <mxGeometry width="100" height="100" relative="1" as="geometry">
                            <Array as="points"/>
                        </mxGeometry>
                    </mxCell>
                </UserObject>
                <UserObject label="carID" lucidchartObjectId="-Wi4RDviZwwq" id="651">
                    <mxCell style="html=1;overflow=block;blockSpacing=1;whiteSpace=wrap;ellipse;fontSize=16.7;fontColor=#f7f7f8;fontStyle=4;spacing=3.8;strokeColor=#3a414a;strokeOpacity=100;rounded=1;absoluteArcSize=1;arcSize=9;strokeWidth=0.8;" parent="1" vertex="1">
                        <mxGeometry x="409" y="-1392" width="120" height="90" as="geometry"/>
                    </mxCell>
                </UserObject>
                <UserObject label="" lucidchartObjectId="tXi46wiAINg4" id="652">
                    <mxCell style="html=1;jettySize=18;whiteSpace=wrap;fontSize=13;strokeColor=#3a414a;strokeOpacity=100;strokeWidth=0.8;rounded=1;arcSize=12;edgeStyle=orthogonalEdgeStyle;startArrow=ERone;startSize=10;endArrow=ERone;endSize=10;exitX=0.994;exitY=0.984;exitPerimeter=0;entryX=-0.003;entryY=0.5;entryPerimeter=0;fontColor=#f7f7f8;" parent="1" source="649" target="653" edge="1">
                        <mxGeometry width="100" height="100" relative="1" as="geometry">
                            <Array as="points"/>
                        </mxGeometry>
                    </mxCell>
                </UserObject>
                <UserObject label="modelBrand" lucidchartObjectId="vXi4OF9jsHdz" id="653">
                    <mxCell style="html=1;overflow=block;blockSpacing=1;whiteSpace=wrap;ellipse;fontSize=16.7;fontColor=#f7f7f8;spacing=3.8;strokeColor=#3a414a;strokeOpacity=100;rounded=1;absoluteArcSize=1;arcSize=9;strokeWidth=0.8;" parent="1" vertex="1">
                        <mxGeometry x="409" y="-1512" width="120" height="90" as="geometry"/>
                    </mxCell>
                </UserObject>
                <UserObject label="" lucidchartObjectId="KXi4_j.FRCpQ" id="654">
                    <mxCell style="html=1;jettySize=18;whiteSpace=wrap;fontSize=13;strokeColor=#3a414a;strokeOpacity=100;strokeWidth=0.8;rounded=1;arcSize=12;edgeStyle=orthogonalEdgeStyle;startArrow=ERone;startSize=10;endArrow=ERone;endSize=10;exitX=1.003;exitY=0.5;exitPerimeter=0;entryX=-0.003;entryY=0.5;entryPerimeter=0;fontColor=#f7f7f8;" parent="1" source="649" target="655" edge="1">
                        <mxGeometry width="100" height="100" relative="1" as="geometry">
                            <Array as="points"/>
                        </mxGeometry>
                    </mxCell>
                </UserObject>
                <UserObject label="modelName" lucidchartObjectId="LXi4qldkGjaR" id="655">
                    <mxCell style="html=1;overflow=block;blockSpacing=1;whiteSpace=wrap;ellipse;fontSize=16.7;fontColor=#f7f7f8;spacing=3.8;strokeColor=#3a414a;strokeOpacity=100;rounded=1;absoluteArcSize=1;arcSize=9;strokeWidth=0.8;" parent="1" vertex="1">
                        <mxGeometry x="409" y="-1632" width="120" height="90" as="geometry"/>
                    </mxCell>
                </UserObject>
                <UserObject label="" lucidchartObjectId="8Xi4nno6JDd." id="656">
                    <mxCell style="html=1;jettySize=18;whiteSpace=wrap;fontSize=13;strokeColor=#3a414a;strokeOpacity=100;strokeWidth=0.8;rounded=1;arcSize=12;edgeStyle=orthogonalEdgeStyle;startArrow=ERone;startSize=10;endArrow=ERone;endSize=10;exitX=0.982;exitY=0.003;exitPerimeter=0;entryX=-0.003;entryY=0.5;entryPerimeter=0;fontColor=#f7f7f8;" parent="1" source="649" target="657" edge="1">
                        <mxGeometry width="100" height="100" relative="1" as="geometry">
                            <Array as="points"/>
                        </mxGeometry>
                    </mxCell>
                </UserObject>
                <UserObject label="modelYear" lucidchartObjectId="9Xi4iU26o3mK" id="657">
                    <mxCell style="html=1;overflow=block;blockSpacing=1;whiteSpace=wrap;ellipse;fontSize=16.7;fontColor=#f7f7f8;spacing=3.8;strokeColor=#3a414a;strokeOpacity=100;rounded=1;absoluteArcSize=1;arcSize=9;strokeWidth=0.8;" parent="1" vertex="1">
                        <mxGeometry x="409" y="-1737" width="120" height="90" as="geometry"/>
                    </mxCell>
                </UserObject>
                <UserObject label="" lucidchartObjectId="pYi4MeGNKEAt" id="658">
                    <mxCell style="html=1;jettySize=18;whiteSpace=wrap;fontSize=13;strokeColor=#3a414a;strokeOpacity=100;strokeWidth=0.8;rounded=1;arcSize=12;edgeStyle=orthogonalEdgeStyle;startArrow=ERone;startSize=10;endArrow=ERone;endSize=10;exitX=0.5;exitY=-0.004;exitPerimeter=0;entryX=-0.003;entryY=0.5;entryPerimeter=0;fontColor=#f7f7f8;" parent="1" source="649" target="659" edge="1">
                        <mxGeometry width="100" height="100" relative="1" as="geometry">
                            <Array as="points"/>
                        </mxGeometry>
                    </mxCell>
                </UserObject>
                <UserObject label="licenseImage" lucidchartObjectId="qYi4DWcxNg~7" id="659">
                    <mxCell style="html=1;overflow=block;blockSpacing=1;whiteSpace=wrap;ellipse;fontSize=16.7;fontColor=#f7f7f8;spacing=3.8;strokeColor=#3a414a;strokeOpacity=100;rounded=1;absoluteArcSize=1;arcSize=9;strokeWidth=0.8;" parent="1" vertex="1">
                        <mxGeometry x="409" y="-1846" width="120" height="90" as="geometry"/>
                    </mxCell>
                </UserObject>
                <UserObject label="" lucidchartObjectId="W0i4-kYg567R" id="660">
                    <mxCell style="html=1;jettySize=18;whiteSpace=wrap;fontSize=13;strokeColor=#3a414a;strokeOpacity=100;strokeWidth=0.8;rounded=1;arcSize=12;edgeStyle=orthogonalEdgeStyle;startArrow=ERone;startSize=10;endArrow=ERone;endSize=10;entryX=-0.003;entryY=0.5;entryPerimeter=0;fontColor=#f7f7f8;" parent="1" target="661" edge="1">
                        <mxGeometry width="100" height="100" relative="1" as="geometry">
                            <Array as="points">
                                <mxPoint x="199" y="-1227"/>
                            </Array>
                            <mxPoint x="199" y="-1543" as="sourcePoint"/>
                        </mxGeometry>
                    </mxCell>
                </UserObject>
                <UserObject label="rentValue" lucidchartObjectId="X0i4yx36sONb" id="661">
                    <mxCell style="html=1;overflow=block;blockSpacing=1;whiteSpace=wrap;ellipse;fontSize=16.7;fontColor=#f7f7f8;spacing=3.8;strokeColor=#3a414a;strokeOpacity=100;rounded=1;absoluteArcSize=1;arcSize=9;strokeWidth=0.8;" parent="1" vertex="1">
                        <mxGeometry x="404" y="-1272" width="120" height="90" as="geometry"/>
                    </mxCell>
                </UserObject>
                <UserObject label="" lucidchartObjectId="o1i48x~F-heK" id="662">
                    <mxCell style="html=1;jettySize=18;whiteSpace=wrap;fontSize=13;strokeColor=#3a414a;strokeOpacity=100;strokeWidth=0.8;rounded=1;arcSize=12;edgeStyle=orthogonalEdgeStyle;startArrow=ERone;startSize=10;endArrow=ERone;endSize=10;exitX=-0.001;exitY=0.967;exitPerimeter=0;entryX=-0.003;entryY=0.5;entryPerimeter=0;fontColor=#f7f7f8;" parent="1" source="649" target="663" edge="1">
                        <mxGeometry width="100" height="100" relative="1" as="geometry">
                            <Array as="points"/>
                        </mxGeometry>
                    </mxCell>
                </UserObject>
                <UserObject label="carStatus" lucidchartObjectId="p1i4sGqz1ZsT" id="663">
                    <mxCell style="html=1;overflow=block;blockSpacing=1;whiteSpace=wrap;ellipse;fontSize=16.7;fontColor=#f7f7f8;spacing=3.8;strokeColor=#3a414a;strokeOpacity=100;rounded=1;absoluteArcSize=1;arcSize=9;strokeWidth=0.8;" parent="1" vertex="1">
                        <mxGeometry x="404" y="-1152" width="120" height="90" as="geometry"/>
                    </mxCell>
                </UserObject>
                <UserObject label="rents" lucidchartObjectId="bbj4EJTglDtM" id="664">
                    <mxCell style="html=1;overflow=block;blockSpacing=1;whiteSpace=wrap;shape=rhombus;fontSize=16.7;fontColor=#f7f7f8;spacing=3.8;strokeColor=#3a414a;strokeOpacity=100;rounded=1;absoluteArcSize=1;arcSize=9;strokeWidth=0.8;" parent="1" vertex="1">
                        <mxGeometry x="159" y="-1902" width="131" height="114" as="geometry"/>
                    </mxCell>
                </UserObject>
                <UserObject label="" lucidchartObjectId="obj4HWK2VGrL" id="665">
                    <mxCell style="html=1;jettySize=18;whiteSpace=wrap;fontSize=13;strokeColor=#3a414a;strokeOpacity=100;strokeWidth=1.5;rounded=1;arcSize=12;edgeStyle=orthogonalEdgeStyle;startArrow=ERone;startSize=10;endArrow=ERone;endSize=10;exitX=0.5;exitY=0.011;exitPerimeter=0;entryX=0.018;entryY=0.998;entryPerimeter=0;fontColor=#F7F7F8;" parent="1" source="664" target="642" edge="1">
                        <mxGeometry width="100" height="100" relative="1" as="geometry">
                            <Array as="points"/>
                        </mxGeometry>
                    </mxCell>
                </UserObject>
                <mxCell id="666" value="1" style="text;html=1;resizable=0;labelBackgroundColor=default;align=center;verticalAlign=middle;fontStyle=1;fontColor=#F7F7F8;fontSize=13.3;" parent="665" vertex="1">
                    <mxGeometry x="0.2257363750571839" relative="1" as="geometry">
                        <mxPoint as="offset"/>
                    </mxGeometry>
                </mxCell>
                <UserObject label="" lucidchartObjectId="rbj4iJiMqS~G" id="667">
                    <mxCell style="html=1;jettySize=18;whiteSpace=wrap;fontSize=13;strokeColor=#3a414a;strokeOpacity=100;strokeWidth=1.5;rounded=1;arcSize=12;edgeStyle=orthogonalEdgeStyle;startArrow=ERone;startSize=10;endArrow=ERone;endSize=10;exitX=0.5;exitY=0.989;exitPerimeter=0;entryX=0.001;entryY=0.025;entryPerimeter=0;fontColor=#F7F7F8;" parent="1" source="664" target="649" edge="1">
                        <mxGeometry width="100" height="100" relative="1" as="geometry">
                            <Array as="points"/>
                        </mxGeometry>
                    </mxCell>
                </UserObject>
                <mxCell id="668" value="M" style="text;html=1;resizable=0;labelBackgroundColor=default;align=center;verticalAlign=middle;fontStyle=1;fontColor=#F7F7F8;fontSize=13.3;" parent="667" vertex="1">
                    <mxGeometry x="-0.13131729378579726" relative="1" as="geometry">
                        <mxPoint as="offset"/>
                    </mxGeometry>
                </mxCell>
                <UserObject label="rents" lucidchartObjectId="gej4-EVqFjb-" id="669">
                    <mxCell style="html=1;overflow=block;blockSpacing=1;whiteSpace=wrap;shape=rhombus;fontSize=16.7;fontColor=#F7F7F8;spacing=3.8;strokeColor=#3a414a;strokeOpacity=100;rounded=1;absoluteArcSize=1;arcSize=9;strokeWidth=0.8;" parent="1" vertex="1">
                        <mxGeometry x="-86" y="-1888" width="131" height="114" as="geometry"/>
                    </mxCell>
                </UserObject>
                <UserObject label="" lucidchartObjectId="nej44x6nDvV2" id="670">
                    <mxCell style="html=1;jettySize=18;whiteSpace=wrap;fontSize=13;strokeColor=#3a414a;strokeOpacity=100;strokeWidth=0.8;rounded=1;arcSize=12;edgeStyle=orthogonalEdgeStyle;startArrow=ERone;startSize=10;endArrow=ERone;endSize=10;exitX=0.999;exitY=0.975;exitPerimeter=0;entryX=0.013;entryY=0.5;entryPerimeter=0;fontColor=#F7F7F8;" parent="1" source="630" target="669" edge="1">
                        <mxGeometry width="100" height="100" relative="1" as="geometry">
                            <Array as="points"/>
                        </mxGeometry>
                    </mxCell>
                </UserObject>
                <mxCell id="671" value="1" style="text;html=1;resizable=0;labelBackgroundColor=default;align=center;verticalAlign=middle;fontStyle=1;fontColor=#F7F7F8;fontSize=13.3;" parent="670" vertex="1">
                    <mxGeometry relative="1" as="geometry">
                        <mxPoint as="offset"/>
                    </mxGeometry>
                </mxCell>
                <UserObject label="" lucidchartObjectId="sej4HYMrBw1j" id="672">
                    <mxCell style="html=1;jettySize=18;whiteSpace=wrap;fontSize=13;strokeColor=#3a414a;strokeOpacity=100;strokeWidth=1.5;rounded=1;arcSize=12;edgeStyle=orthogonalEdgeStyle;startArrow=ERone;startSize=10;endArrow=ERone;endSize=10;exitX=0.987;exitY=0.5;exitPerimeter=0;entryX=-0.003;entryY=0.5;entryPerimeter=0;fontColor=#F7F7F8;" parent="1" source="669" target="649" edge="1">
                        <mxGeometry width="100" height="100" relative="1" as="geometry">
                            <Array as="points"/>
                        </mxGeometry>
                    </mxCell>
                </UserObject>
                <mxCell id="673" value="M" style="text;html=1;resizable=0;labelBackgroundColor=default;align=center;verticalAlign=middle;fontStyle=1;fontColor=#F7F7F8;fontSize=13.3;" parent="672" vertex="1">
                    <mxGeometry x="-0.08765879795608866" relative="1" as="geometry">
                        <mxPoint as="offset"/>
                    </mxGeometry>
                </mxCell>
                <UserObject label="Tenant" lucidchartObjectId="5ej4~wOt5ld-" id="674">
                    <mxCell style="html=1;overflow=block;blockSpacing=1;whiteSpace=wrap;fontSize=16.7;fontColor=#f7f7f8;spacing=3.8;strokeColor=#3a414a;strokeOpacity=100;rounded=1;absoluteArcSize=1;arcSize=9;strokeWidth=0.8;" parent="1" vertex="1">
                        <mxGeometry x="-341" y="-1635" width="120" height="90" as="geometry"/>
                    </mxCell>
                </UserObject>
                <UserObject label="" lucidchartObjectId="rfj4BfNHMLRv" id="675">
                    <mxCell style="html=1;jettySize=18;whiteSpace=wrap;fontSize=13;strokeColor=#3a414a;strokeOpacity=100;strokeWidth=0.8;rounded=1;arcSize=12;edgeStyle=orthogonalEdgeStyle;startArrow=ERone;startSize=10;endArrow=ERone;endSize=10;exitX=0.5;exitY=-0.004;exitPerimeter=0;entryX=1.003;entryY=0.5;entryPerimeter=0;fontColor=#f7f7f8;" parent="1" source="674" target="676" edge="1">
                        <mxGeometry width="100" height="100" relative="1" as="geometry">
                            <Array as="points"/>
                        </mxGeometry>
                    </mxCell>
                </UserObject>
                <UserObject label="NatinalID" lucidchartObjectId="tfj4msuyDyFP" id="676">
                    <mxCell style="html=1;overflow=block;blockSpacing=1;whiteSpace=wrap;ellipse;fontSize=16.7;fontColor=#f7f7f8;fontStyle=4;spacing=3.8;strokeColor=#3a414a;strokeOpacity=100;rounded=1;absoluteArcSize=1;arcSize=9;strokeWidth=0.8;" parent="1" vertex="1">
                        <mxGeometry x="-551" y="-1755" width="120" height="90" as="geometry"/>
                    </mxCell>
                </UserObject>
                <UserObject label="" lucidchartObjectId="Nfj4leLsk~LJ" id="677">
                    <mxCell style="html=1;jettySize=18;whiteSpace=wrap;fontSize=13;strokeColor=#3a414a;strokeOpacity=100;strokeWidth=0.8;rounded=1;arcSize=12;edgeStyle=orthogonalEdgeStyle;startArrow=ERone;startSize=10;endArrow=ERone;endSize=10;exitX=-0.003;exitY=0.5;exitPerimeter=0;entryX=1.002;entryY=0.5;entryPerimeter=0;fontColor=#f7f7f8;" parent="1" source="674" target="678" edge="1">
                        <mxGeometry width="100" height="100" relative="1" as="geometry">
                            <Array as="points"/>
                        </mxGeometry>
                    </mxCell>
                </UserObject>
                <UserObject label="validDrivingLicense" lucidchartObjectId="Nfj4PlQi_Lx1" id="678">
                    <mxCell style="html=1;overflow=block;blockSpacing=1;whiteSpace=wrap;ellipse;fontSize=16.7;fontColor=#f7f7f8;spacing=3.8;strokeColor=#3a414a;strokeOpacity=100;rounded=1;absoluteArcSize=1;arcSize=9;strokeWidth=0.8;" parent="1" vertex="1">
                        <mxGeometry x="-566" y="-1637" width="157" height="94" as="geometry"/>
                    </mxCell>
                </UserObject>
                <UserObject label="" lucidchartObjectId="tgj4uwkcj2AY" id="679">
                    <mxCell style="html=1;jettySize=18;whiteSpace=wrap;fontSize=13;strokeColor=#3a414a;strokeOpacity=100;strokeWidth=0.8;rounded=1;arcSize=12;edgeStyle=orthogonalEdgeStyle;startArrow=ERone;startSize=10;endArrow=ERone;endSize=10;exitX=0.5;exitY=1.004;exitPerimeter=0;entryX=1.003;entryY=0.5;entryPerimeter=0;fontColor=#f7f7f8;" parent="1" source="674" target="680" edge="1">
                        <mxGeometry width="100" height="100" relative="1" as="geometry">
                            <Array as="points"/>
                        </mxGeometry>
                    </mxCell>
                </UserObject>
                <UserObject label="mobileNumber" lucidchartObjectId="ugj4-~0KcsaI" id="680">
                    <mxCell style="html=1;overflow=block;blockSpacing=1;whiteSpace=wrap;ellipse;fontSize=16.7;fontColor=#f7f7f8;spacing=3.8;strokeColor=#3a414a;strokeOpacity=100;rounded=1;absoluteArcSize=1;arcSize=9;strokeWidth=0.8;" parent="1" vertex="1">
                        <mxGeometry x="-566" y="-1500" width="150" height="90" as="geometry"/>
                    </mxCell>
                </UserObject>
                <UserObject label="orders" lucidchartObjectId="Bnj4HyU~b3-X" id="681">
                    <mxCell style="html=1;overflow=block;blockSpacing=1;whiteSpace=wrap;shape=rhombus;fontSize=16.7;fontColor=#F7F7F8;spacing=3.8;strokeColor=#3a414a;strokeOpacity=100;rounded=1;absoluteArcSize=1;arcSize=9;strokeWidth=0.8;" parent="1" vertex="1">
                        <mxGeometry x="-86" y="-1647" width="131" height="114" as="geometry"/>
                    </mxCell>
                </UserObject>
                <UserObject label="" lucidchartObjectId="Mnj4y_DtxvXe" id="682">
                    <mxCell style="html=1;jettySize=18;whiteSpace=wrap;fontSize=13;strokeColor=#3a414a;strokeOpacity=100;strokeWidth=1.5;rounded=1;arcSize=12;edgeStyle=orthogonalEdgeStyle;startArrow=ERone;startSize=10;endArrow=ERone;endSize=10;exitX=1.003;exitY=0.5;exitPerimeter=0;entryX=0.013;entryY=0.5;entryPerimeter=0;fontColor=#F7F7F8;" parent="1" source="674" target="681" edge="1">
                        <mxGeometry width="100" height="100" relative="1" as="geometry">
                            <Array as="points"/>
                        </mxGeometry>
                    </mxCell>
                </UserObject>
                <mxCell id="683" value="M" style="text;html=1;resizable=0;labelBackgroundColor=default;align=center;verticalAlign=middle;fontStyle=1;fontColor=#F7F7F8;fontSize=13.3;" parent="682" vertex="1">
                    <mxGeometry x="-0.2183505469510909" relative="1" as="geometry">
                        <mxPoint as="offset"/>
                    </mxGeometry>
                </mxCell>
                <UserObject label="" lucidchartObjectId="Onj4EX472n3q" id="684">
                    <mxCell style="html=1;jettySize=18;whiteSpace=wrap;fontSize=13;strokeColor=#3a414a;strokeOpacity=100;strokeWidth=0.8;rounded=1;arcSize=12;edgeStyle=orthogonalEdgeStyle;startArrow=ERone;startSize=10;endArrow=ERone;endSize=10;exitX=0.987;exitY=0.5;exitPerimeter=0;fontColor=#F7F7F8;" parent="1" source="681" edge="1">
                        <mxGeometry width="100" height="100" relative="1" as="geometry">
                            <Array as="points"/>
                            <mxPoint x="199" y="-1587" as="targetPoint"/>
                        </mxGeometry>
                    </mxCell>
                </UserObject>
                <mxCell id="685" value="M" style="text;html=1;resizable=0;labelBackgroundColor=default;align=center;verticalAlign=middle;fontStyle=1;fontColor=#F7F7F8;fontSize=13.3;" parent="684" vertex="1">
                    <mxGeometry x="-0.37085015815401845" relative="1" as="geometry">
                        <mxPoint as="offset"/>
                    </mxGeometry>
                </mxCell>
                <UserObject label="" lucidchartObjectId="lwj4xYmZ.Rj~" id="686">
                    <mxCell style="html=1;jettySize=18;whiteSpace=wrap;fontSize=13;strokeColor=#3a414a;strokeOpacity=100;strokeWidth=0.8;rounded=1;arcSize=12;edgeStyle=orthogonalEdgeStyle;startArrow=ERone;startSize=10;endArrow=ERone;endSize=10;exitX=0.5;exitY=1;entryX=1;entryY=0.5;fontColor=#f7f7f8;exitDx=0;exitDy=0;entryDx=0;entryDy=0;" parent="1" source="681" target="687" edge="1">
                        <mxGeometry width="100" height="100" relative="1" as="geometry">
                            <Array as="points">
                                <mxPoint x="-20" y="-1392"/>
                            </Array>
                        </mxGeometry>
                    </mxCell>
                </UserObject>
                <UserObject label="transactionID" lucidchartObjectId="nwj4OM4Kh~hP" id="687">
                    <mxCell style="html=1;overflow=block;blockSpacing=1;whiteSpace=wrap;ellipse;fontSize=16.7;fontColor=#f7f7f8;fontStyle=4;spacing=3.8;strokeColor=#3a414a;strokeOpacity=100;rounded=1;absoluteArcSize=1;arcSize=9;strokeWidth=0.8;" parent="1" vertex="1">
                        <mxGeometry x="-296" y="-1437" width="120" height="90" as="geometry"/>
                    </mxCell>
                </UserObject>
                <UserObject label="" lucidchartObjectId="4wj4IQHFiwPE" id="688">
                    <mxCell style="html=1;jettySize=18;whiteSpace=wrap;fontSize=13;strokeColor=#3a414a;strokeOpacity=100;strokeWidth=0.8;rounded=1;arcSize=12;edgeStyle=orthogonalEdgeStyle;startArrow=ERone;startSize=10;endArrow=ERone;endSize=10;exitX=0.5;exitY=1;entryX=1.003;entryY=0.5;entryPerimeter=0;fontColor=#f7f7f8;exitDx=0;exitDy=0;" parent="1" source="681" target="689" edge="1">
                        <mxGeometry width="100" height="100" relative="1" as="geometry">
                            <Array as="points"/>
                        </mxGeometry>
                    </mxCell>
                </UserObject>
                <UserObject label="startDate" lucidchartObjectId="5wj4L3hJENu~" id="689">
                    <mxCell style="html=1;overflow=block;blockSpacing=1;whiteSpace=wrap;ellipse;fontSize=16.7;fontColor=#f7f7f8;spacing=3.8;strokeColor=#3a414a;strokeOpacity=100;rounded=1;absoluteArcSize=1;arcSize=9;strokeWidth=0.8;" parent="1" vertex="1">
                        <mxGeometry x="-296" y="-1329" width="120" height="90" as="geometry"/>
                    </mxCell>
                </UserObject>
                <UserObject label="" lucidchartObjectId="lxj4A8TbRCq1" id="690">
                    <mxCell style="html=1;jettySize=18;whiteSpace=wrap;fontSize=13;strokeColor=#3a414a;strokeOpacity=100;strokeWidth=0.8;rounded=1;arcSize=12;edgeStyle=orthogonalEdgeStyle;startArrow=ERone;startSize=10;endArrow=ERone;endSize=10;exitX=0.5;exitY=1;entryX=1.003;entryY=0.5;entryPerimeter=0;fontColor=#f7f7f8;exitDx=0;exitDy=0;" parent="1" source="681" target="691" edge="1">
                        <mxGeometry width="100" height="100" relative="1" as="geometry">
                            <Array as="points"/>
                        </mxGeometry>
                    </mxCell>
                </UserObject>
                <UserObject label="endDate" lucidchartObjectId="nxj4KyUka57Y" id="691">
                    <mxCell style="html=1;overflow=block;blockSpacing=1;whiteSpace=wrap;ellipse;fontSize=16.7;fontColor=#f7f7f8;spacing=3.8;strokeColor=#3a414a;strokeOpacity=100;rounded=1;absoluteArcSize=1;arcSize=9;strokeWidth=0.8;" parent="1" vertex="1">
                        <mxGeometry x="-296" y="-1212" width="120" height="90" as="geometry"/>
                    </mxCell>
                </UserObject>
                <UserObject label="" lucidchartObjectId="qyj428ufISbv" id="692">
                    <mxCell style="html=1;jettySize=18;whiteSpace=wrap;fontSize=13;strokeColor=#3a414a;strokeOpacity=100;strokeWidth=0.8;rounded=1;arcSize=12;edgeStyle=orthogonalEdgeStyle;startArrow=ERone;startSize=10;endArrow=ERone;endSize=10;exitX=0.5;exitY=1;entryX=1.003;entryY=0.5;entryPerimeter=0;fontColor=#f7f7f8;exitDx=0;exitDy=0;" parent="1" source="681" target="693" edge="1">
                        <mxGeometry width="100" height="100" relative="1" as="geometry">
                            <Array as="points"/>
                        </mxGeometry>
                    </mxCell>
                </UserObject>
                <UserObject label="duration" lucidchartObjectId="syj4PiHl_r.D" id="693">
                    <mxCell style="html=1;overflow=block;blockSpacing=1;whiteSpace=wrap;ellipse;fontSize=16.7;fontColor=#f7f7f8;spacing=3.8;strokeColor=#3a414a;strokeOpacity=100;rounded=1;absoluteArcSize=1;arcSize=9;dashed=1;fixDash=1;dashPattern=3 8;strokeWidth=0.8;" parent="1" vertex="1">
                        <mxGeometry x="-296" y="-1095" width="120" height="90" as="geometry"/>
                    </mxCell>
                </UserObject>
                <UserObject label="" lucidchartObjectId="4yj4k8rJOsXg" id="694">
                    <mxCell style="html=1;jettySize=18;whiteSpace=wrap;fontSize=13;strokeColor=#3a414a;strokeOpacity=100;strokeWidth=0.8;rounded=1;arcSize=12;edgeStyle=orthogonalEdgeStyle;startArrow=ERone;startSize=10;endArrow=ERone;endSize=10;exitX=0.5;exitY=1;entryX=1.003;entryY=0.5;entryPerimeter=0;fontColor=#f7f7f8;exitDx=0;exitDy=0;" parent="1" source="681" target="695" edge="1">
                        <mxGeometry width="100" height="100" relative="1" as="geometry">
                            <Array as="points"/>
                        </mxGeometry>
                    </mxCell>
                </UserObject>
                <UserObject label="paymentMethod" lucidchartObjectId="5yj4~ADtRR6." id="695">
                    <mxCell style="html=1;overflow=block;blockSpacing=1;whiteSpace=wrap;ellipse;fontSize=16.7;fontColor=#f7f7f8;spacing=3.8;strokeColor=#3a414a;strokeOpacity=100;rounded=1;absoluteArcSize=1;arcSize=9;strokeWidth=0.8;" parent="1" vertex="1">
                        <mxGeometry x="-303" y="-978" width="135" height="90" as="geometry"/>
                    </mxCell>
                </UserObject>
                <mxCell id="696" value="Branch" style="html=1;overflow=block;blockSpacing=1;swimlane;childLayout=stackLayout;horizontal=1;horizontalStack=0;resizeParent=1;resizeParentMax=0;resizeLast=0;collapsible=0;fontStyle=0;marginBottom=0;swimlaneFillColor=#ffffff;startSize=25;whiteSpace=wrap;fontSize=16.7;fontColor=#333333;align=left;spacing=0;strokeColor=#666666;strokeOpacity=100;rounded=1;absoluteArcSize=1;arcSize=9;strokeWidth=0.8;fillColor=#f5f5f5;" parent="1" vertex="1">
                    <mxGeometry x="975" y="-85.75" width="270" height="211" as="geometry"/>
                </mxCell>
                <mxCell id="697" value="BranchCode (PK)&#10;ShortName&#10;City&#10;Area&#10;Street&#10;BuildingNumber&#10;FloorNumber&#10;" style="part=1;html=1;resizeHeight=0;strokeColor=none;fillColor=none;align=left;verticalAlign=middle;spacingLeft=4;spacingRight=4;overflow=hidden;rotatable=0;points=[[0,0.5],[1,0.5]];portConstraint=eastwest;swimlaneFillColor=#ffffff;strokeOpacity=100;whiteSpace=wrap;fontSize=16.7;fontColor=#3a414a;" parent="696" vertex="1">
                    <mxGeometry y="25" width="270" height="100" as="geometry"/>
                </mxCell>
                <mxCell id="698" value="" style="line;strokeWidth=1;fillColor=none;align=left;verticalAlign=middle;spacingTop=-1;spacingLeft=3;spacingRight=3;rotatable=0;labelPosition=right;points=[];portConstraint=eastwest;" parent="696" vertex="1">
                    <mxGeometry y="125" width="270" height="8" as="geometry"/>
                </mxCell>
                <mxCell id="699" value="" style="part=1;html=1;resizeHeight=0;strokeColor=none;fillColor=none;align=left;verticalAlign=middle;spacingLeft=4;spacingRight=4;overflow=hidden;rotatable=0;points=[[0,0.5],[1,0.5]];portConstraint=eastwest;swimlaneFillColor=#ffffff;strokeOpacity=100;whiteSpace=wrap;fontSize=13;" parent="696" vertex="1">
                    <mxGeometry y="133" width="270" height="78" as="geometry"/>
                </mxCell>
                <mxCell id="700" value="Tests" style="html=1;overflow=block;blockSpacing=1;swimlane;childLayout=stackLayout;horizontal=1;horizontalStack=0;resizeParent=1;resizeParentMax=0;resizeLast=0;collapsible=0;fontStyle=0;marginBottom=0;swimlaneFillColor=#ffffff;startSize=25;whiteSpace=wrap;fontSize=16.7;fontColor=#3a414a;align=left;spacing=0;strokeColor=#3a414a;strokeOpacity=100;fillOpacity=100;rounded=1;absoluteArcSize=1;arcSize=9;fillColor=#ffffff;strokeWidth=0.8;" parent="1" vertex="1">
                    <mxGeometry x="975" y="513" width="270" height="275.75" as="geometry"/>
                </mxCell>
                <mxCell id="701" value="&lt;div style=&quot;display: flex; justify-content: null; text-align: null; align-items: baseline; font-size: 0; line-height: 1.25;margin-top: -2px;&quot;&gt;&lt;span&gt;&lt;span style=&quot;font-size:16.7px;color:#3a414a;&quot;&gt;TestCode (PK)&#10;&lt;/span&gt;&lt;/span&gt;&lt;/div&gt;&lt;div style=&quot;display: flex; justify-content: null; text-align: null; align-items: baseline; font-size: 0; line-height: 1.25;margin-top: -2px;&quot;&gt;&lt;span&gt;&lt;span style=&quot;font-size:16.7px;color:#3a414a;&quot;&gt;TestName&#10;&lt;/span&gt;&lt;/span&gt;&lt;/div&gt;&lt;div style=&quot;display: flex; justify-content: null; text-align: null; align-items: baseline; font-size: 0; line-height: 1.25;margin-top: -2px;&quot;&gt;&lt;span&gt;&lt;span style=&quot;font-size:16.7px;color:#3a414a;&quot;&gt;Cost&#10;&lt;/span&gt;&lt;/span&gt;&lt;/div&gt;&lt;div style=&quot;display: flex; justify-content: null; text-align: null; align-items: baseline; font-size: 0; line-height: 1.25;margin-top: -2px;&quot;&gt;&lt;span&gt;&lt;span style=&quot;font-size:16.7px;color:#3a414a;&quot;&gt;Duration&lt;/span&gt;&lt;/span&gt;&lt;/div&gt;" style="part=1;html=1;resizeHeight=0;strokeColor=none;fillColor=none;align=left;verticalAlign=middle;spacingLeft=4;spacingRight=4;overflow=hidden;rotatable=0;points=[[0,0.5],[1,0.5]];portConstraint=eastwest;swimlaneFillColor=#ffffff;strokeOpacity=100;fillOpacity=100;whiteSpace=wrap;fontSize=16.7;fontColor=#3a414a;" parent="700" vertex="1">
                    <mxGeometry y="25" width="270" height="250.75" as="geometry"/>
                </mxCell>
                <mxCell id="702" value="Patents" style="html=1;overflow=block;blockSpacing=1;swimlane;childLayout=stackLayout;horizontal=1;horizontalStack=0;resizeParent=1;resizeParentMax=0;resizeLast=0;collapsible=0;fontStyle=0;marginBottom=0;swimlaneFillColor=#ffffff;startSize=25;whiteSpace=wrap;fontSize=16.7;fontColor=#3a414a;align=left;spacing=0;strokeColor=#3a414a;strokeOpacity=100;fillOpacity=100;rounded=1;absoluteArcSize=1;arcSize=9;fillColor=#ffffff;strokeWidth=0.8;" parent="1" vertex="1">
                    <mxGeometry x="975" y="150" width="270" height="335.75" as="geometry"/>
                </mxCell>
                <mxCell id="703" value="&lt;div style=&quot;display: flex; justify-content: null; text-align: null; align-items: baseline; font-size: 0; line-height: 1.25;margin-top: -2px;&quot;&gt;&lt;span&gt;&lt;span style=&quot;font-size:16.7px;color:#3a414a;&quot;&gt;PatientID (PK)&#10;&lt;/span&gt;&lt;/span&gt;&lt;/div&gt;&lt;div style=&quot;display: flex; justify-content: null; text-align: null; align-items: baseline; font-size: 0; line-height: 1.25;margin-top: -2px;&quot;&gt;&lt;span&gt;&lt;span style=&quot;font-size:16.7px;color:#3a414a;&quot;&gt;FullName&#10;&lt;/span&gt;&lt;/span&gt;&lt;/div&gt;&lt;div style=&quot;display: flex; justify-content: null; text-align: null; align-items: baseline; font-size: 0; line-height: 1.25;margin-top: -2px;&quot;&gt;&lt;span&gt;&lt;span style=&quot;font-size:16.7px;color:#3a414a;&quot;&gt;Age&#10;&lt;/span&gt;&lt;/span&gt;&lt;/div&gt;&lt;div style=&quot;display: flex; justify-content: null; text-align: null; align-items: baseline; font-size: 0; line-height: 1.25;margin-top: -2px;&quot;&gt;&lt;span&gt;&lt;span style=&quot;font-size:16.7px;color:#3a414a;&quot;&gt;MobileNumber&#10;&lt;/span&gt;&lt;/span&gt;&lt;/div&gt;&lt;div style=&quot;display: flex; justify-content: null; text-align: null; align-items: baseline; font-size: 0; line-height: 1.25;margin-top: -2px;&quot;&gt;&lt;span&gt;&lt;span style=&quot;font-size:16.7px;color:#3a414a;&quot;&gt;DateOfBirth&#10;&lt;/span&gt;&lt;/span&gt;&lt;/div&gt;&lt;div style=&quot;display: flex; justify-content: null; text-align: null; align-items: baseline; font-size: 0; line-height: 1.25;margin-top: -2px;&quot;&gt;&lt;span&gt;&lt;span style=&quot;font-size:16.7px;color:#3a414a;&quot;&gt;Gender&#10;&lt;/span&gt;&lt;/span&gt;&lt;/div&gt;&lt;div style=&quot;display: flex; justify-content: null; text-align: null; align-items: baseline; font-size: 0; line-height: 1.25;margin-top: -2px;&quot;&gt;&lt;span&gt;&lt;span style=&quot;font-size:16.7px;color:#3a414a;&quot;&gt;ChronicDiseases&lt;/span&gt;&lt;/span&gt;&lt;/div&gt;" style="part=1;html=1;resizeHeight=0;strokeColor=none;fillColor=none;align=left;verticalAlign=middle;spacingLeft=4;spacingRight=4;overflow=hidden;rotatable=0;points=[[0,0.5],[1,0.5]];portConstraint=eastwest;swimlaneFillColor=#ffffff;strokeOpacity=100;fillOpacity=100;whiteSpace=wrap;fontSize=16.7;fontColor=#3a414a;" parent="702" vertex="1">
                    <mxGeometry y="25" width="270" height="310.75" as="geometry"/>
                </mxCell>
                <mxCell id="704" value="Visits" style="html=1;overflow=block;blockSpacing=1;swimlane;childLayout=stackLayout;horizontal=1;horizontalStack=0;resizeParent=1;resizeParentMax=0;resizeLast=0;collapsible=0;fontStyle=0;marginBottom=0;swimlaneFillColor=#ffffff;startSize=25;whiteSpace=wrap;fontSize=16.7;fontColor=#3a414a;align=left;spacing=0;strokeColor=#3a414a;strokeOpacity=100;fillOpacity=100;rounded=1;absoluteArcSize=1;arcSize=9;fillColor=#ffffff;strokeWidth=0.8;" parent="1" vertex="1">
                    <mxGeometry x="1277" y="-82.87" width="270" height="335.75" as="geometry"/>
                </mxCell>
                <mxCell id="705" value="&lt;div style=&quot;display: flex; justify-content: flex-start; text-align: left; align-items: baseline; font-size: 0; line-height: 1.25;margin-top: -2px;&quot;&gt;&lt;span&gt;&lt;span style=&quot;font-size:16.7px;color:#3a414a;&quot;&gt;VisitID (PK)&#10;&lt;/span&gt;&lt;/span&gt;&lt;/div&gt;&lt;div style=&quot;display: flex; justify-content: flex-start; text-align: left; align-items: baseline; font-size: 0; line-height: 1.25;margin-top: -2px;&quot;&gt;&lt;span&gt;&lt;span style=&quot;font-size:16.7px;color:#3a414a;&quot;&gt;PatientID (FK)&#10;&lt;/span&gt;&lt;/span&gt;&lt;/div&gt;&lt;div style=&quot;display: flex; justify-content: flex-start; text-align: left; align-items: baseline; font-size: 0; line-height: 1.25;margin-top: -2px;&quot;&gt;&lt;span&gt;&lt;span style=&quot;font-size:16.7px;color:#3a414a;&quot;&gt;BranchCode (FK)&#10;&lt;/span&gt;&lt;/span&gt;&lt;/div&gt;&lt;div style=&quot;display: flex; justify-content: flex-start; text-align: left; align-items: baseline; font-size: 0; line-height: 1.25;margin-top: -2px;&quot;&gt;&lt;span&gt;&lt;span style=&quot;font-size:16.7px;color:#3a414a;&quot;&gt;TestCode (FK)&#10;&lt;/span&gt;&lt;/span&gt;&lt;/div&gt;&lt;div style=&quot;display: flex; justify-content: flex-start; text-align: left; align-items: baseline; font-size: 0; line-height: 1.25;margin-top: -2px;&quot;&gt;&lt;span&gt;&lt;span style=&quot;font-size:16.7px;color:#3a414a;&quot;&gt;Date&#10;&lt;/span&gt;&lt;/span&gt;&lt;/div&gt;&lt;div style=&quot;display: flex; justify-content: flex-start; text-align: left; align-items: baseline; font-size: 0; line-height: 1.25;margin-top: -2px;&quot;&gt;&lt;span&gt;&lt;span style=&quot;font-size:16.7px;color:#3a414a;&quot;&gt;Time&lt;/span&gt;&lt;/span&gt;&lt;/div&gt;" style="part=1;html=1;resizeHeight=0;strokeColor=none;fillColor=none;verticalAlign=middle;spacingLeft=4;spacingRight=4;overflow=hidden;rotatable=0;points=[[0,0.5],[1,0.5]];portConstraint=eastwest;swimlaneFillColor=#ffffff;strokeOpacity=100;fillOpacity=100;whiteSpace=wrap;fontSize=16.7;fontColor=#3a414a;align=left;" parent="704" vertex="1">
                    <mxGeometry y="25" width="270" height="310.75" as="geometry"/>
                </mxCell>
                <mxCell id="706" value="Employee" style="html=1;overflow=block;blockSpacing=1;swimlane;childLayout=stackLayout;horizontal=1;horizontalStack=0;resizeParent=1;resizeParentMax=0;resizeLast=0;collapsible=0;fontStyle=0;marginBottom=0;swimlaneFillColor=#ffffff;startSize=25;whiteSpace=wrap;fontSize=16.7;fontColor=#3a414a;align=left;spacing=0;strokeColor=#3a414a;strokeOpacity=100;fillOpacity=100;rounded=1;absoluteArcSize=1;arcSize=9;fillColor=#ffffff;strokeWidth=0.8;" parent="1" vertex="1">
                    <mxGeometry x="669" y="-85.75" width="270" height="335.75" as="geometry"/>
                </mxCell>
                <mxCell id="707" value="&lt;div style=&quot;display: flex; justify-content: flex-start; text-align: left; align-items: baseline; font-size: 0; line-height: 1.25;margin-top: -2px;&quot;&gt;&lt;span&gt;&lt;span style=&quot;font-size:16.7px;color:#3a414a;&quot;&gt;EmployeeID (PK)&lt;br&gt;&lt;/span&gt;&lt;/span&gt;&lt;/div&gt;&lt;div style=&quot;display: flex; justify-content: flex-start; text-align: left; align-items: baseline; font-size: 0; line-height: 1.25;margin-top: -2px;&quot;&gt;&lt;span&gt;&lt;span style=&quot;font-size:16.7px;color:#3a414a;&quot;&gt;FullName&lt;br&gt;&lt;/span&gt;&lt;/span&gt;&lt;/div&gt;&lt;div style=&quot;display: flex; justify-content: flex-start; text-align: left; align-items: baseline; font-size: 0; line-height: 1.25;margin-top: -2px;&quot;&gt;&lt;span&gt;&lt;span style=&quot;font-size:16.7px;color:#3a414a;&quot;&gt;Salary&lt;br&gt;&lt;/span&gt;&lt;/span&gt;&lt;/div&gt;&lt;div style=&quot;display: flex; justify-content: flex-start; text-align: left; align-items: baseline; font-size: 0; line-height: 1.25;margin-top: -2px;&quot;&gt;&lt;span&gt;&lt;span style=&quot;font-size:16.7px;color:#3a414a;&quot;&gt;Team&lt;br&gt;&lt;/span&gt;&lt;/span&gt;&lt;/div&gt;&lt;div style=&quot;display: flex; justify-content: flex-start; text-align: left; align-items: baseline; font-size: 0; line-height: 1.25;margin-top: -2px;&quot;&gt;&lt;span&gt;&lt;span style=&quot;font-size:16.7px;color:#3a414a;&quot;&gt;StartTime&lt;br&gt;&lt;/span&gt;&lt;/span&gt;&lt;/div&gt;&lt;div style=&quot;display: flex; justify-content: flex-start; text-align: left; align-items: baseline; font-size: 0; line-height: 1.25;margin-top: -2px;&quot;&gt;&lt;span&gt;&lt;span style=&quot;font-size:16.7px;color:#3a414a;&quot;&gt;EndTime&lt;br&gt;&lt;/span&gt;&lt;/span&gt;&lt;/div&gt;&lt;div style=&quot;display: flex; justify-content: flex-start; text-align: left; align-items: baseline; font-size: 0; line-height: 1.25;margin-top: -2px;&quot;&gt;&lt;span&gt;&lt;br&gt;&lt;/span&gt;&lt;/div&gt;" style="part=1;html=1;resizeHeight=0;strokeColor=none;fillColor=none;verticalAlign=middle;spacingLeft=4;spacingRight=4;overflow=hidden;rotatable=0;points=[[0,0.5],[1,0.5]];portConstraint=eastwest;swimlaneFillColor=#ffffff;strokeOpacity=100;fillOpacity=100;whiteSpace=wrap;fontSize=16.7;fontColor=#3a414a;align=left;" parent="706" vertex="1">
                    <mxGeometry y="25" width="270" height="310.75" as="geometry"/>
                </mxCell>
                <mxCell id="713" value="Office" style="html=1;overflow=block;blockSpacing=1;swimlane;childLayout=stackLayout;horizontal=1;horizontalStack=0;resizeParent=1;resizeParentMax=0;resizeLast=0;collapsible=0;fontStyle=0;marginBottom=0;swimlaneFillColor=#ffffff;startSize=25;whiteSpace=wrap;fontSize=16.7;fontColor=#333333;align=left;spacing=0;strokeColor=#666666;strokeOpacity=100;rounded=1;absoluteArcSize=1;arcSize=9;strokeWidth=0.8;fillColor=#f5f5f5;" parent="1" vertex="1">
                    <mxGeometry x="577" y="-2222" width="270" height="211" as="geometry"/>
                </mxCell>
                <mxCell id="714" value="OfficeID (PK)&lt;br&gt;Address&lt;br&gt;ContactNo" style="part=1;html=1;resizeHeight=0;strokeColor=none;fillColor=none;align=left;verticalAlign=middle;spacingLeft=4;spacingRight=4;overflow=hidden;rotatable=0;points=[[0,0.5],[1,0.5]];portConstraint=eastwest;swimlaneFillColor=#ffffff;strokeOpacity=100;whiteSpace=wrap;fontSize=16.7;fontColor=#3a414a;" parent="713" vertex="1">
                    <mxGeometry y="25" width="270" height="100" as="geometry"/>
                </mxCell>
                <mxCell id="715" value="" style="line;strokeWidth=1;fillColor=none;align=left;verticalAlign=middle;spacingTop=-1;spacingLeft=3;spacingRight=3;rotatable=0;labelPosition=right;points=[];portConstraint=eastwest;" parent="713" vertex="1">
                    <mxGeometry y="125" width="270" height="8" as="geometry"/>
                </mxCell>
                <mxCell id="716" value="" style="part=1;html=1;resizeHeight=0;strokeColor=none;fillColor=none;align=left;verticalAlign=middle;spacingLeft=4;spacingRight=4;overflow=hidden;rotatable=0;points=[[0,0.5],[1,0.5]];portConstraint=eastwest;swimlaneFillColor=#ffffff;strokeOpacity=100;whiteSpace=wrap;fontSize=13;" parent="713" vertex="1">
                    <mxGeometry y="133" width="270" height="78" as="geometry"/>
                </mxCell>
                <mxCell id="717" value="CarOwner" style="html=1;overflow=block;blockSpacing=1;swimlane;childLayout=stackLayout;horizontal=1;horizontalStack=0;resizeParent=1;resizeParentMax=0;resizeLast=0;collapsible=0;fontStyle=0;marginBottom=0;swimlaneFillColor=#ffffff;startSize=25;whiteSpace=wrap;fontSize=16.7;fontColor=#333333;align=left;spacing=0;strokeColor=#666666;strokeOpacity=100;rounded=1;absoluteArcSize=1;arcSize=9;strokeWidth=0.8;fillColor=#f5f5f5;" parent="1" vertex="1">
                    <mxGeometry x="577" y="-1991" width="270" height="211" as="geometry"/>
                </mxCell>
                <mxCell id="718" value="NationalID (PK)&lt;br&gt;FullName&lt;br&gt;BankAccountNO" style="part=1;html=1;resizeHeight=0;strokeColor=none;fillColor=none;align=left;verticalAlign=middle;spacingLeft=4;spacingRight=4;overflow=hidden;rotatable=0;points=[[0,0.5],[1,0.5]];portConstraint=eastwest;swimlaneFillColor=#ffffff;strokeOpacity=100;whiteSpace=wrap;fontSize=16.7;fontColor=#3a414a;" parent="717" vertex="1">
                    <mxGeometry y="25" width="270" height="100" as="geometry"/>
                </mxCell>
                <mxCell id="719" value="" style="line;strokeWidth=1;fillColor=none;align=left;verticalAlign=middle;spacingTop=-1;spacingLeft=3;spacingRight=3;rotatable=0;labelPosition=right;points=[];portConstraint=eastwest;" parent="717" vertex="1">
                    <mxGeometry y="125" width="270" height="8" as="geometry"/>
                </mxCell>
                <mxCell id="720" value="" style="part=1;html=1;resizeHeight=0;strokeColor=none;fillColor=none;align=left;verticalAlign=middle;spacingLeft=4;spacingRight=4;overflow=hidden;rotatable=0;points=[[0,0.5],[1,0.5]];portConstraint=eastwest;swimlaneFillColor=#ffffff;strokeOpacity=100;whiteSpace=wrap;fontSize=13;" parent="717" vertex="1">
                    <mxGeometry y="133" width="270" height="78" as="geometry"/>
                </mxCell>
                <mxCell id="721" value="Car" style="html=1;overflow=block;blockSpacing=1;swimlane;childLayout=stackLayout;horizontal=1;horizontalStack=0;resizeParent=1;resizeParentMax=0;resizeLast=0;collapsible=0;fontStyle=0;marginBottom=0;swimlaneFillColor=#ffffff;startSize=25;whiteSpace=wrap;fontSize=16.7;fontColor=#333333;align=left;spacing=0;strokeColor=#666666;strokeOpacity=100;rounded=1;absoluteArcSize=1;arcSize=9;strokeWidth=0.8;fillColor=#f5f5f5;" parent="1" vertex="1">
                    <mxGeometry x="577" y="-1753" width="270" height="240" as="geometry"/>
                </mxCell>
                <mxCell id="722" value="CarID(PK)&lt;br&gt;ModelBrand&lt;br&gt;ModelName&lt;br&gt;ModelYear&lt;br&gt;LicenseImage&lt;br&gt;RentValue&lt;br&gt;CarStatus&lt;br&gt;OfficeID(FK)" style="part=1;html=1;resizeHeight=0;strokeColor=none;fillColor=none;align=left;verticalAlign=middle;spacingLeft=4;spacingRight=4;overflow=hidden;rotatable=0;points=[[0,0.5],[1,0.5]];portConstraint=eastwest;swimlaneFillColor=#ffffff;strokeOpacity=100;whiteSpace=wrap;fontSize=16.7;fontColor=#3a414a;" parent="721" vertex="1">
                    <mxGeometry y="25" width="270" height="165" as="geometry"/>
                </mxCell>
                <mxCell id="723" value="" style="line;strokeWidth=1;fillColor=none;align=left;verticalAlign=middle;spacingTop=-1;spacingLeft=3;spacingRight=3;rotatable=0;labelPosition=right;points=[];portConstraint=eastwest;" parent="721" vertex="1">
                    <mxGeometry y="190" width="270" height="50" as="geometry"/>
                </mxCell>
                <mxCell id="725" value="Tenant" style="html=1;overflow=block;blockSpacing=1;swimlane;childLayout=stackLayout;horizontal=1;horizontalStack=0;resizeParent=1;resizeParentMax=0;resizeLast=0;collapsible=0;fontStyle=0;marginBottom=0;swimlaneFillColor=#ffffff;startSize=25;whiteSpace=wrap;fontSize=16.7;fontColor=#333333;align=left;spacing=0;strokeColor=#666666;strokeOpacity=100;rounded=1;absoluteArcSize=1;arcSize=9;strokeWidth=0.8;fillColor=#f5f5f5;" parent="1" vertex="1">
                    <mxGeometry x="577" y="-1483" width="270" height="211" as="geometry"/>
                </mxCell>
                <mxCell id="726" value="NationalID (PK)&lt;br&gt;ValidDrivingLicense&lt;br&gt;MobileNumber" style="part=1;html=1;resizeHeight=0;strokeColor=none;fillColor=none;align=left;verticalAlign=middle;spacingLeft=4;spacingRight=4;overflow=hidden;rotatable=0;points=[[0,0.5],[1,0.5]];portConstraint=eastwest;swimlaneFillColor=#ffffff;strokeOpacity=100;whiteSpace=wrap;fontSize=16.7;fontColor=#3a414a;" parent="725" vertex="1">
                    <mxGeometry y="25" width="270" height="100" as="geometry"/>
                </mxCell>
                <mxCell id="727" value="" style="line;strokeWidth=1;fillColor=none;align=left;verticalAlign=middle;spacingTop=-1;spacingLeft=3;spacingRight=3;rotatable=0;labelPosition=right;points=[];portConstraint=eastwest;" parent="725" vertex="1">
                    <mxGeometry y="125" width="270" height="8" as="geometry"/>
                </mxCell>
                <mxCell id="728" value="" style="part=1;html=1;resizeHeight=0;strokeColor=none;fillColor=none;align=left;verticalAlign=middle;spacingLeft=4;spacingRight=4;overflow=hidden;rotatable=0;points=[[0,0.5],[1,0.5]];portConstraint=eastwest;swimlaneFillColor=#ffffff;strokeOpacity=100;whiteSpace=wrap;fontSize=13;" parent="725" vertex="1">
                    <mxGeometry y="133" width="270" height="78" as="geometry"/>
                </mxCell>
                <mxCell id="729" value="Orders" style="html=1;overflow=block;blockSpacing=1;swimlane;childLayout=stackLayout;horizontal=1;horizontalStack=0;resizeParent=1;resizeParentMax=0;resizeLast=0;collapsible=0;fontStyle=0;marginBottom=0;swimlaneFillColor=#ffffff;startSize=25;whiteSpace=wrap;fontSize=16.7;fontColor=#333333;align=left;spacing=0;strokeColor=#666666;strokeOpacity=100;rounded=1;absoluteArcSize=1;arcSize=9;strokeWidth=0.8;fillColor=#f5f5f5;" parent="1" vertex="1">
                    <mxGeometry x="577" y="-1247" width="270" height="240" as="geometry"/>
                </mxCell>
                <mxCell id="730" value="TransactionID(PK)&lt;br&gt;NationalID(FK)&lt;br&gt;CarID(FK)&lt;br&gt;OfficeID(FK)&lt;br&gt;StartDate&lt;br&gt;EndDate&lt;br&gt;Duration (Derived)&lt;br&gt;PaymentMethod" style="part=1;html=1;resizeHeight=0;strokeColor=none;fillColor=none;align=left;verticalAlign=middle;spacingLeft=4;spacingRight=4;overflow=hidden;rotatable=0;points=[[0,0.5],[1,0.5]];portConstraint=eastwest;swimlaneFillColor=#ffffff;strokeOpacity=100;whiteSpace=wrap;fontSize=16.7;fontColor=#3a414a;" parent="729" vertex="1">
                    <mxGeometry y="25" width="270" height="165" as="geometry"/>
                </mxCell>
                <mxCell id="731" value="" style="line;strokeWidth=1;fillColor=none;align=left;verticalAlign=middle;spacingTop=-1;spacingLeft=3;spacingRight=3;rotatable=0;labelPosition=right;points=[];portConstraint=eastwest;" parent="729" vertex="1">
                    <mxGeometry y="190" width="270" height="50" as="geometry"/>
                </mxCell>
                <mxCell id="796" value="1" style="edgeStyle=none;html=1;exitX=0.5;exitY=0;exitDx=0;exitDy=0;entryX=0.5;entryY=1;entryDx=0;entryDy=0;strokeColor=#080808;fontColor=#f1f4f9;endArrow=none;endFill=0;" parent="1" source="732" target="790" edge="1">
                    <mxGeometry relative="1" as="geometry"/>
                </mxCell>
                <UserObject label="Branch" lucidchartObjectId="gip4lvkgZnxG" id="732">
                    <mxCell style="html=1;overflow=block;blockSpacing=1;whiteSpace=wrap;fontSize=16.7;fontColor=#f1f4f9;spacing=3.8;strokeColor=#3a414a;strokeOpacity=100;rounded=1;absoluteArcSize=1;arcSize=9;strokeWidth=0.8;" parent="1" vertex="1">
                        <mxGeometry x="2904" y="-1409" width="120" height="90" as="geometry"/>
                    </mxCell>
                </UserObject>
                <UserObject label="" lucidchartObjectId="Cip4JzXWhaJQ" id="733">
                    <mxCell style="html=1;jettySize=18;whiteSpace=wrap;fontSize=13;strokeColor=#3a414a;strokeOpacity=100;strokeWidth=0.8;rounded=1;arcSize=12;edgeStyle=orthogonalEdgeStyle;startArrow=none;endArrow=none;exitX=0.5;exitY=1.004;exitPerimeter=0;entryX=0.5;entryY=-0.004;entryPerimeter=0;fontColor=#f1f4f9;" parent="1" source="732" target="734" edge="1">
                        <mxGeometry width="100" height="100" relative="1" as="geometry">
                            <Array as="points"/>
                        </mxGeometry>
                    </mxCell>
                </UserObject>
                <UserObject label="BranchID" lucidchartObjectId="Dip4H._0~UoP" id="734">
                    <mxCell style="html=1;overflow=block;blockSpacing=1;whiteSpace=wrap;ellipse;fontSize=16.7;fontColor=#f1f4f9;fontStyle=4;spacing=3.8;strokeColor=#3a414a;strokeOpacity=100;rounded=1;absoluteArcSize=1;arcSize=9;strokeWidth=0.8;" parent="1" vertex="1">
                        <mxGeometry x="2904" y="-1262" width="120" height="90" as="geometry"/>
                    </mxCell>
                </UserObject>
                <UserObject label="" lucidchartObjectId="Oip4JS5BBC4B" id="735">
                    <mxCell style="html=1;jettySize=18;whiteSpace=wrap;fontSize=13;strokeColor=#3a414a;strokeOpacity=100;strokeWidth=0.8;rounded=1;arcSize=12;edgeStyle=orthogonalEdgeStyle;startArrow=none;endArrow=none;exitX=0.009;exitY=0.988;exitPerimeter=0;entryX=1.003;entryY=0.5;entryPerimeter=0;fontColor=#f1f4f9;" parent="1" source="732" target="736" edge="1">
                        <mxGeometry width="100" height="100" relative="1" as="geometry">
                            <Array as="points"/>
                        </mxGeometry>
                    </mxCell>
                </UserObject>
                <UserObject label="Address" lucidchartObjectId="Pip4KUpaGcZa" id="736">
                    <mxCell style="html=1;overflow=block;blockSpacing=1;whiteSpace=wrap;ellipse;fontSize=16.7;fontColor=#f1f4f9;spacing=3.8;strokeColor=#3a414a;strokeOpacity=100;rounded=1;absoluteArcSize=1;arcSize=9;strokeWidth=0.8;" parent="1" vertex="1">
                        <mxGeometry x="2673" y="-1337" width="120" height="90" as="geometry"/>
                    </mxCell>
                </UserObject>
                <UserObject label="" lucidchartObjectId="Yip41IP10hq_" id="737">
                    <mxCell style="html=1;jettySize=18;whiteSpace=wrap;fontSize=13;strokeColor=#3a414a;strokeOpacity=100;strokeWidth=0.8;rounded=1;arcSize=12;edgeStyle=orthogonalEdgeStyle;startArrow=none;endArrow=none;exitX=0.983;exitY=0.996;exitPerimeter=0;entryX=-0.003;entryY=0.5;entryPerimeter=0;fontColor=#f1f4f9;" parent="1" source="732" target="738" edge="1">
                        <mxGeometry width="100" height="100" relative="1" as="geometry">
                            <Array as="points"/>
                        </mxGeometry>
                    </mxCell>
                </UserObject>
                <UserObject label="ContactNumber" lucidchartObjectId="Zip4nYbaJStq" id="738">
                    <mxCell style="html=1;overflow=block;blockSpacing=1;whiteSpace=wrap;ellipse;fontSize=16.7;fontColor=#f1f4f9;spacing=3.8;strokeColor=#3a414a;strokeOpacity=100;rounded=1;absoluteArcSize=1;arcSize=9;strokeWidth=0.8;" parent="1" vertex="1">
                        <mxGeometry x="3078" y="-1322" width="135" height="90" as="geometry"/>
                    </mxCell>
                </UserObject>
                <UserObject label="Staff" lucidchartObjectId="cjp4sO1IRBM-" id="739">
                    <mxCell style="html=1;overflow=block;blockSpacing=1;whiteSpace=wrap;fontSize=16.7;fontColor=#f1f4f9;spacing=3.8;strokeColor=#3a414a;strokeOpacity=100;rounded=1;absoluteArcSize=1;arcSize=9;strokeWidth=0.8;" parent="1" vertex="1">
                        <mxGeometry x="2904" y="-1832" width="120" height="90" as="geometry"/>
                    </mxCell>
                </UserObject>
                <UserObject label="" lucidchartObjectId="wjp4.Nu5rXyd" id="740">
                    <mxCell style="html=1;jettySize=18;whiteSpace=wrap;fontSize=13;strokeColor=#3a414a;strokeOpacity=100;strokeWidth=0.8;rounded=1;arcSize=12;edgeStyle=orthogonalEdgeStyle;startArrow=none;endArrow=none;exitX=0.5;exitY=-0.004;exitPerimeter=0;entryX=0.5;entryY=1.004;entryPerimeter=0;fontColor=#f1f4f9;" parent="1" source="739" target="741" edge="1">
                        <mxGeometry width="100" height="100" relative="1" as="geometry">
                            <Array as="points"/>
                        </mxGeometry>
                    </mxCell>
                </UserObject>
                <UserObject label="EmployeeID" lucidchartObjectId="xjp4EYhVFsow" id="741">
                    <mxCell style="html=1;overflow=block;blockSpacing=1;whiteSpace=wrap;ellipse;fontSize=16.7;fontColor=#f1f4f9;fontStyle=4;spacing=3.8;strokeColor=#3a414a;strokeOpacity=100;rounded=1;absoluteArcSize=1;arcSize=9;strokeWidth=0.8;" parent="1" vertex="1">
                        <mxGeometry x="2904" y="-1982" width="120" height="90" as="geometry"/>
                    </mxCell>
                </UserObject>
                <UserObject label="" lucidchartObjectId="Hjp4bF~K3lnw" id="742">
                    <mxCell style="html=1;jettySize=18;whiteSpace=wrap;fontSize=13;strokeColor=#3a414a;strokeOpacity=100;strokeWidth=0.8;rounded=1;arcSize=12;edgeStyle=orthogonalEdgeStyle;startArrow=none;endArrow=none;exitX=0.012;exitY=0.008;exitPerimeter=0;entryX=0.5;entryY=1.004;entryPerimeter=0;fontColor=#f1f4f9;" parent="1" source="739" target="743" edge="1">
                        <mxGeometry width="100" height="100" relative="1" as="geometry">
                            <Array as="points"/>
                        </mxGeometry>
                    </mxCell>
                </UserObject>
                <UserObject label="FullName" lucidchartObjectId="Ijp4QHWQFsS3" id="743">
                    <mxCell style="html=1;overflow=block;blockSpacing=1;whiteSpace=wrap;ellipse;fontSize=16.7;fontColor=#f1f4f9;spacing=3.8;strokeColor=#3a414a;strokeOpacity=100;rounded=1;absoluteArcSize=1;arcSize=9;strokeWidth=0.8;" parent="1" vertex="1">
                        <mxGeometry x="2763" y="-2012" width="120" height="90" as="geometry"/>
                    </mxCell>
                </UserObject>
                <UserObject label="" lucidchartObjectId="Vjp482Rz1CAI" id="744">
                    <mxCell style="html=1;jettySize=18;whiteSpace=wrap;fontSize=13;strokeColor=#3a414a;strokeOpacity=100;strokeWidth=0.8;rounded=1;arcSize=12;edgeStyle=orthogonalEdgeStyle;startArrow=none;endArrow=none;exitX=0.178;exitY=-0.004;exitPerimeter=0;entryX=0.5;entryY=1.004;entryPerimeter=0;fontColor=#f1f4f9;" parent="1" source="739" target="745" edge="1">
                        <mxGeometry width="100" height="100" relative="1" as="geometry">
                            <Array as="points">
                                <mxPoint x="2925" y="-1848"/>
                                <mxPoint x="2905" y="-1848"/>
                                <mxPoint x="2905" y="-1922"/>
                                <mxPoint x="2898" y="-1922"/>
                            </Array>
                        </mxGeometry>
                    </mxCell>
                </UserObject>
                <UserObject label="Age" lucidchartObjectId="Wjp4JIIp0x27" id="745">
                    <mxCell style="html=1;overflow=block;blockSpacing=1;whiteSpace=wrap;ellipse;fontSize=16.7;fontColor=#f1f4f9;spacing=3.8;strokeColor=#3a414a;strokeOpacity=100;rounded=1;absoluteArcSize=1;arcSize=9;strokeWidth=0.8;" parent="1" vertex="1">
                        <mxGeometry x="2838" y="-2102" width="120" height="90" as="geometry"/>
                    </mxCell>
                </UserObject>
                <UserObject label="" lucidchartObjectId="~jp4sFjlxPU-" id="746">
                    <mxCell style="html=1;jettySize=18;whiteSpace=wrap;fontSize=13;strokeColor=#3a414a;strokeOpacity=100;strokeWidth=0.8;rounded=1;arcSize=12;edgeStyle=orthogonalEdgeStyle;startArrow=none;endArrow=none;exitX=0.796;exitY=-0.004;exitPerimeter=0;entryX=0.5;entryY=1.004;entryPerimeter=0;fontColor=#f1f4f9;" parent="1" source="739" target="747" edge="1">
                        <mxGeometry width="100" height="100" relative="1" as="geometry">
                            <Array as="points"/>
                        </mxGeometry>
                    </mxCell>
                </UserObject>
                <UserObject label="Address" lucidchartObjectId="akp4~odglK6Z" id="747">
                    <mxCell style="html=1;overflow=block;blockSpacing=1;whiteSpace=wrap;ellipse;fontSize=16.7;fontColor=#f1f4f9;spacing=3.8;strokeColor=#3a414a;strokeOpacity=100;rounded=1;absoluteArcSize=1;arcSize=9;strokeWidth=0.8;" parent="1" vertex="1">
                        <mxGeometry x="3003" y="-2057" width="120" height="90" as="geometry"/>
                    </mxCell>
                </UserObject>
                <UserObject label="" lucidchartObjectId="gkp441K3gLFA" id="748">
                    <mxCell style="html=1;jettySize=18;whiteSpace=wrap;fontSize=13;strokeColor=#3a414a;strokeOpacity=100;strokeWidth=0.8;rounded=1;arcSize=12;edgeStyle=orthogonalEdgeStyle;startArrow=none;endArrow=none;exitX=0.274;exitY=0.05;exitPerimeter=0;entryX=0.5;entryY=1.004;entryPerimeter=0;fontColor=#f1f4f9;" parent="1" source="747" target="749" edge="1">
                        <mxGeometry width="100" height="100" relative="1" as="geometry">
                            <Array as="points"/>
                        </mxGeometry>
                    </mxCell>
                </UserObject>
                <UserObject label="City" lucidchartObjectId="hkp4EZomNJ_J" id="749">
                    <mxCell style="html=1;overflow=block;blockSpacing=1;whiteSpace=wrap;ellipse;fontSize=16.7;fontColor=#f1f4f9;spacing=3.8;strokeColor=#3a414a;strokeOpacity=100;rounded=1;absoluteArcSize=1;arcSize=9;strokeWidth=0.8;" parent="1" vertex="1">
                        <mxGeometry x="2958" y="-2207" width="120" height="90" as="geometry"/>
                    </mxCell>
                </UserObject>
                <UserObject label="" lucidchartObjectId="mkp4fCym1N1Z" id="750">
                    <mxCell style="html=1;jettySize=18;whiteSpace=wrap;fontSize=13;strokeColor=#3a414a;strokeOpacity=100;strokeWidth=0.8;rounded=1;arcSize=12;edgeStyle=orthogonalEdgeStyle;startArrow=none;endArrow=none;exitX=0.718;exitY=0.046;exitPerimeter=0;entryX=0.5;entryY=1.004;entryPerimeter=0;fontColor=#f1f4f9;" parent="1" source="747" target="751" edge="1">
                        <mxGeometry width="100" height="100" relative="1" as="geometry">
                            <Array as="points"/>
                        </mxGeometry>
                    </mxCell>
                </UserObject>
                <UserObject label="Region" lucidchartObjectId="mkp49Lsw~0Gn" id="751">
                    <mxCell style="html=1;overflow=block;blockSpacing=1;whiteSpace=wrap;ellipse;fontSize=16.7;fontColor=#f1f4f9;spacing=3.8;strokeColor=#3a414a;strokeOpacity=100;rounded=1;absoluteArcSize=1;arcSize=9;strokeWidth=0.8;" parent="1" vertex="1">
                        <mxGeometry x="3093" y="-2222" width="120" height="90" as="geometry"/>
                    </mxCell>
                </UserObject>
                <UserObject label="" lucidchartObjectId="vkp4~arkSHuc" id="752">
                    <mxCell style="html=1;jettySize=18;whiteSpace=wrap;fontSize=13;strokeColor=#3a414a;strokeOpacity=100;strokeWidth=0.8;rounded=1;arcSize=12;edgeStyle=orthogonalEdgeStyle;startArrow=none;endArrow=none;exitX=1.003;exitY=0.156;exitPerimeter=0;entryX=0.5;entryY=1.004;entryPerimeter=0;fontColor=#f1f4f9;" parent="1" source="739" target="753" edge="1">
                        <mxGeometry width="100" height="100" relative="1" as="geometry">
                            <Array as="points"/>
                        </mxGeometry>
                    </mxCell>
                </UserObject>
                <UserObject label="Role" lucidchartObjectId="wkp41JWvjWgV" id="753">
                    <mxCell style="html=1;overflow=block;blockSpacing=1;whiteSpace=wrap;ellipse;fontSize=16.7;fontColor=#f1f4f9;spacing=3.8;strokeColor=#3a414a;strokeOpacity=100;rounded=1;absoluteArcSize=1;arcSize=9;strokeWidth=0.8;" parent="1" vertex="1">
                        <mxGeometry x="3108" y="-1982" width="120" height="90" as="geometry"/>
                    </mxCell>
                </UserObject>
                <UserObject label="" lucidchartObjectId="Mkp4MCID30rv" id="754">
                    <mxCell style="html=1;jettySize=18;whiteSpace=wrap;fontSize=13;strokeColor=#3a414a;strokeOpacity=100;strokeWidth=0.8;rounded=1;arcSize=12;edgeStyle=orthogonalEdgeStyle;startArrow=none;endArrow=none;exitX=1.003;exitY=0.339;exitPerimeter=0;entryX=0.5;entryY=1.004;entryPerimeter=0;fontColor=#f1f4f9;" parent="1" source="739" target="755" edge="1">
                        <mxGeometry width="100" height="100" relative="1" as="geometry">
                            <Array as="points"/>
                        </mxGeometry>
                    </mxCell>
                </UserObject>
                <UserObject label="JoiningDate" lucidchartObjectId="Mkp4cFWrC0Fi" id="755">
                    <mxCell style="html=1;overflow=block;blockSpacing=1;whiteSpace=wrap;ellipse;fontSize=16.7;fontColor=#f1f4f9;spacing=3.8;strokeColor=#3a414a;strokeOpacity=100;rounded=1;absoluteArcSize=1;arcSize=9;strokeWidth=0.8;" parent="1" vertex="1">
                        <mxGeometry x="3243" y="-1982" width="120" height="90" as="geometry"/>
                    </mxCell>
                </UserObject>
                <UserObject label="" lucidchartObjectId="8kp4.mB4EQlu" id="756">
                    <mxCell style="html=1;jettySize=18;whiteSpace=wrap;fontSize=13;strokeColor=#3a414a;strokeOpacity=100;strokeWidth=0.8;rounded=1;arcSize=12;edgeStyle=orthogonalEdgeStyle;startArrow=none;endArrow=none;exitX=1.003;exitY=0.263;exitPerimeter=0;entryX=0.5;entryY=1.004;entryPerimeter=0;fontColor=#f1f4f9;" parent="1" source="739" target="757" edge="1">
                        <mxGeometry width="100" height="100" relative="1" as="geometry">
                            <Array as="points">
                                <mxPoint x="3236" y="-1808"/>
                                <mxPoint x="3236" y="-1966"/>
                                <mxPoint x="3228" y="-1966"/>
                            </Array>
                        </mxGeometry>
                    </mxCell>
                </UserObject>
                <UserObject label="Salary" lucidchartObjectId="9kp4X-Irhi8E" id="757">
                    <mxCell style="html=1;overflow=block;blockSpacing=1;whiteSpace=wrap;ellipse;fontSize=16.7;fontColor=#f1f4f9;spacing=3.8;strokeColor=#3a414a;strokeOpacity=100;rounded=1;absoluteArcSize=1;arcSize=9;strokeWidth=0.8;" parent="1" vertex="1">
                        <mxGeometry x="3168" y="-2072" width="120" height="90" as="geometry"/>
                    </mxCell>
                </UserObject>
                <UserObject label="Customer" lucidchartObjectId="Tlp4tp8c_TG-" id="758">
                    <mxCell style="html=1;overflow=block;blockSpacing=1;whiteSpace=wrap;fontSize=16.7;fontColor=#f1f4f9;spacing=3.8;strokeColor=#3a414a;strokeOpacity=100;rounded=1;absoluteArcSize=1;arcSize=9;strokeWidth=0.8;" parent="1" vertex="1">
                        <mxGeometry x="3573" y="-1847" width="120" height="90" as="geometry"/>
                    </mxCell>
                </UserObject>
                <UserObject label="" lucidchartObjectId="6lp412PMey74" id="759">
                    <mxCell style="html=1;jettySize=18;whiteSpace=wrap;fontSize=13;strokeColor=#3a414a;strokeOpacity=100;strokeWidth=0.8;rounded=1;arcSize=12;edgeStyle=orthogonalEdgeStyle;startArrow=none;endArrow=none;exitX=0.232;exitY=-0.004;exitPerimeter=0;entryX=0.5;entryY=1.004;entryPerimeter=0;fontColor=#f1f4f9;" parent="1" source="758" target="760" edge="1">
                        <mxGeometry width="100" height="100" relative="1" as="geometry">
                            <Array as="points"/>
                        </mxGeometry>
                    </mxCell>
                </UserObject>
                <UserObject label="CustomerID" lucidchartObjectId="7lp4Tt19xizj" id="760">
                    <mxCell style="html=1;overflow=block;blockSpacing=1;whiteSpace=wrap;ellipse;fontSize=16.7;fontColor=#f1f4f9;fontStyle=4;spacing=3.8;strokeColor=#3a414a;strokeOpacity=100;rounded=1;absoluteArcSize=1;arcSize=9;strokeWidth=0.8;" parent="1" vertex="1">
                        <mxGeometry x="3541" y="-2027" width="120" height="90" as="geometry"/>
                    </mxCell>
                </UserObject>
                <UserObject label="" lucidchartObjectId="imp4_7EbJSWB" id="761">
                    <mxCell style="html=1;jettySize=18;whiteSpace=wrap;fontSize=13;strokeColor=#3a414a;strokeOpacity=100;strokeWidth=0.8;rounded=1;arcSize=12;edgeStyle=orthogonalEdgeStyle;startArrow=none;endArrow=none;exitX=0.675;exitY=-0.004;exitPerimeter=0;entryX=-0.003;entryY=0.5;entryPerimeter=0;fontColor=#f1f4f9;" parent="1" source="758" target="762" edge="1">
                        <mxGeometry width="100" height="100" relative="1" as="geometry">
                            <Array as="points"/>
                        </mxGeometry>
                    </mxCell>
                </UserObject>
                <UserObject label="FullName" lucidchartObjectId="jmp4nTglwWJc" id="762">
                    <mxCell style="html=1;overflow=block;blockSpacing=1;whiteSpace=wrap;ellipse;fontSize=16.7;fontColor=#f1f4f9;spacing=3.8;strokeColor=#3a414a;strokeOpacity=100;rounded=1;absoluteArcSize=1;arcSize=9;strokeWidth=0.8;" parent="1" vertex="1">
                        <mxGeometry x="3738" y="-1967" width="120" height="90" as="geometry"/>
                    </mxCell>
                </UserObject>
                <UserObject label="" lucidchartObjectId="vmp4MOKVzju." id="763">
                    <mxCell style="html=1;jettySize=18;whiteSpace=wrap;fontSize=13;strokeColor=#3a414a;strokeOpacity=100;strokeWidth=0.8;rounded=1;arcSize=12;edgeStyle=orthogonalEdgeStyle;startArrow=none;endArrow=none;exitX=0.369;exitY=-0.004;exitPerimeter=0;entryX=0.5;entryY=1.004;entryPerimeter=0;fontColor=#f1f4f9;" parent="1" source="758" target="764" edge="1">
                        <mxGeometry width="100" height="100" relative="1" as="geometry">
                            <Array as="points"/>
                        </mxGeometry>
                    </mxCell>
                </UserObject>
                <UserObject label="ContactNumber" lucidchartObjectId="wmp4Lf71pwiO" id="764">
                    <mxCell style="html=1;overflow=block;blockSpacing=1;whiteSpace=wrap;ellipse;fontSize=16.7;fontColor=#f1f4f9;spacing=3.8;strokeColor=#3a414a;strokeOpacity=100;rounded=1;absoluteArcSize=1;arcSize=9;strokeWidth=0.8;" parent="1" vertex="1">
                        <mxGeometry x="3663" y="-2102" width="135" height="90" as="geometry"/>
                    </mxCell>
                </UserObject>
                <UserObject label="MenuItem" lucidchartObjectId="Pmp4AV_Z-7Yh" id="765">
                    <mxCell style="html=1;overflow=block;blockSpacing=1;whiteSpace=wrap;fontSize=16.7;fontColor=#f1f4f9;spacing=3.8;strokeColor=#3a414a;strokeOpacity=100;rounded=1;absoluteArcSize=1;arcSize=9;strokeWidth=0.8;" parent="1" vertex="1">
                        <mxGeometry x="3573" y="-1409" width="120" height="90" as="geometry"/>
                    </mxCell>
                </UserObject>
                <UserObject label="" lucidchartObjectId=".mp4Mx06IuFc" id="766">
                    <mxCell style="html=1;jettySize=18;whiteSpace=wrap;fontSize=13;strokeColor=#3a414a;strokeOpacity=100;strokeWidth=0.8;rounded=1;arcSize=12;edgeStyle=orthogonalEdgeStyle;startArrow=none;endArrow=none;exitX=1.003;exitY=0.123;exitPerimeter=0;entryX=-0.003;entryY=0.5;entryPerimeter=0;fontColor=#f1f4f9;" parent="1" source="765" target="767" edge="1">
                        <mxGeometry width="100" height="100" relative="1" as="geometry">
                            <Array as="points"/>
                        </mxGeometry>
                    </mxCell>
                </UserObject>
                <UserObject label="ItemCode" lucidchartObjectId="~mp4W6Notc4F" id="767">
                    <mxCell style="html=1;overflow=block;blockSpacing=1;whiteSpace=wrap;ellipse;fontSize=16.7;fontColor=#f1f4f9;fontStyle=4;spacing=3.8;strokeColor=#3a414a;strokeOpacity=100;rounded=1;absoluteArcSize=1;arcSize=9;strokeWidth=0.8;" parent="1" vertex="1">
                        <mxGeometry x="3813" y="-1443" width="120" height="90" as="geometry"/>
                    </mxCell>
                </UserObject>
                <UserObject label="" lucidchartObjectId="nnp4jEjAvv4k" id="768">
                    <mxCell style="html=1;jettySize=18;whiteSpace=wrap;fontSize=13;strokeColor=#3a414a;strokeOpacity=100;strokeWidth=0.8;rounded=1;arcSize=12;edgeStyle=orthogonalEdgeStyle;startArrow=none;endArrow=none;exitX=1.003;exitY=0.5;exitPerimeter=0;entryX=-0.003;entryY=0.5;entryPerimeter=0;fontColor=#f1f4f9;" parent="1" source="765" target="769" edge="1">
                        <mxGeometry width="100" height="100" relative="1" as="geometry">
                            <Array as="points"/>
                        </mxGeometry>
                    </mxCell>
                </UserObject>
                <UserObject label="ItemName" lucidchartObjectId="onp4SqvKWmo2" id="769">
                    <mxCell style="html=1;overflow=block;blockSpacing=1;whiteSpace=wrap;ellipse;fontSize=16.7;fontColor=#f1f4f9;spacing=3.8;strokeColor=#3a414a;strokeOpacity=100;rounded=1;absoluteArcSize=1;arcSize=9;strokeWidth=0.8;" parent="1" vertex="1">
                        <mxGeometry x="3813" y="-1352" width="120" height="90" as="geometry"/>
                    </mxCell>
                </UserObject>
                <UserObject label="" lucidchartObjectId="znp4C_yR5Ats" id="770">
                    <mxCell style="html=1;jettySize=18;whiteSpace=wrap;fontSize=13;strokeColor=#3a414a;strokeOpacity=100;strokeWidth=0.8;rounded=1;arcSize=12;edgeStyle=orthogonalEdgeStyle;startArrow=none;endArrow=none;exitX=0.995;exitY=0.982;exitPerimeter=0;entryX=-0.003;entryY=0.5;entryPerimeter=0;fontColor=#f1f4f9;" parent="1" source="765" target="771" edge="1">
                        <mxGeometry width="100" height="100" relative="1" as="geometry">
                            <Array as="points"/>
                        </mxGeometry>
                    </mxCell>
                </UserObject>
                <UserObject label="Price" lucidchartObjectId="Anp4m~m4R~-R" id="771">
                    <mxCell style="html=1;overflow=block;blockSpacing=1;whiteSpace=wrap;ellipse;fontSize=16.7;fontColor=#f1f4f9;spacing=3.8;strokeColor=#3a414a;strokeOpacity=100;rounded=1;absoluteArcSize=1;arcSize=9;strokeWidth=0.8;" parent="1" vertex="1">
                        <mxGeometry x="3813" y="-1247" width="120" height="90" as="geometry"/>
                    </mxCell>
                </UserObject>
                <UserObject label="" lucidchartObjectId="Wnp48DY11hWH" id="772">
                    <mxCell style="html=1;jettySize=18;whiteSpace=wrap;fontSize=13;strokeColor=#3a414a;strokeOpacity=100;strokeWidth=0.8;rounded=1;arcSize=12;edgeStyle=orthogonalEdgeStyle;startArrow=none;endArrow=none;exitX=0.835;exitY=1.004;exitPerimeter=0;entryX=-0.003;entryY=0.5;entryPerimeter=0;fontColor=#f1f4f9;" parent="1" source="765" target="773" edge="1">
                        <mxGeometry width="100" height="100" relative="1" as="geometry">
                            <Array as="points"/>
                        </mxGeometry>
                    </mxCell>
                </UserObject>
                <UserObject label="Category" lucidchartObjectId="Xnp4VIRJm_LV" id="773">
                    <mxCell style="html=1;overflow=block;blockSpacing=1;whiteSpace=wrap;ellipse;fontSize=16.7;fontColor=#f1f4f9;spacing=3.8;strokeColor=#3a414a;strokeOpacity=100;rounded=1;absoluteArcSize=1;arcSize=9;strokeWidth=0.8;" parent="1" vertex="1">
                        <mxGeometry x="3813" y="-1142" width="120" height="90" as="geometry"/>
                    </mxCell>
                </UserObject>
                <UserObject label="Order" lucidchartObjectId="dop475zk7OyU" id="774">
                    <mxCell style="html=1;overflow=block;blockSpacing=1;whiteSpace=wrap;fontSize=16.7;fontColor=#f1f4f9;spacing=3.8;strokeColor=#3a414a;strokeOpacity=100;rounded=1;absoluteArcSize=1;arcSize=9;strokeWidth=0.8;" parent="1" vertex="1">
                        <mxGeometry x="3573" y="-1622" width="120" height="90" as="geometry"/>
                    </mxCell>
                </UserObject>
                <UserObject label="" lucidchartObjectId="Aop4mEjkjOi~" id="775">
                    <mxCell style="html=1;jettySize=18;whiteSpace=wrap;fontSize=13;strokeColor=#3a414a;strokeOpacity=100;strokeWidth=0.8;rounded=1;arcSize=12;edgeStyle=orthogonalEdgeStyle;startArrow=none;endArrow=none;exitX=0.981;exitY=0.002;exitPerimeter=0;entryX=-0.003;entryY=0.5;entryPerimeter=0;fontColor=#f1f4f9;" parent="1" source="774" target="776" edge="1">
                        <mxGeometry width="100" height="100" relative="1" as="geometry">
                            <Array as="points"/>
                        </mxGeometry>
                    </mxCell>
                </UserObject>
                <UserObject label="OrderID" lucidchartObjectId="Bop4ED-8r4Rn" id="776">
                    <mxCell style="html=1;overflow=block;blockSpacing=1;whiteSpace=wrap;ellipse;fontSize=16.7;fontColor=#f1f4f9;spacing=3.8;strokeColor=#3a414a;strokeOpacity=100;rounded=1;absoluteArcSize=1;arcSize=9;strokeWidth=0.8;" parent="1" vertex="1">
                        <mxGeometry x="3858" y="-1712" width="120" height="90" as="geometry"/>
                    </mxCell>
                </UserObject>
                <UserObject label="" lucidchartObjectId="Lop4nLmmzhKJ" id="777">
                    <mxCell style="html=1;jettySize=18;whiteSpace=wrap;fontSize=13;strokeColor=#3a414a;strokeOpacity=100;strokeWidth=0.8;rounded=1;arcSize=12;edgeStyle=orthogonalEdgeStyle;startArrow=none;endArrow=none;exitX=1.003;exitY=0.275;exitPerimeter=0;entryX=-0.003;entryY=0.5;entryPerimeter=0;fontColor=#f1f4f9;" parent="1" source="774" target="778" edge="1">
                        <mxGeometry width="100" height="100" relative="1" as="geometry">
                            <Array as="points"/>
                        </mxGeometry>
                    </mxCell>
                </UserObject>
                <UserObject label="DeliveryAddress" lucidchartObjectId="Mop4.l5-veL-" id="778">
                    <mxCell style="html=1;overflow=block;blockSpacing=1;whiteSpace=wrap;ellipse;fontSize=16.7;fontColor=#f1f4f9;spacing=3.8;strokeColor=#3a414a;strokeOpacity=100;rounded=1;absoluteArcSize=1;arcSize=9;strokeWidth=0.8;" parent="1" vertex="1">
                        <mxGeometry x="3858" y="-1607" width="150" height="90" as="geometry"/>
                    </mxCell>
                </UserObject>
                <UserObject label="" lucidchartObjectId="4op4nV9LefMe" id="779">
                    <mxCell style="html=1;jettySize=18;whiteSpace=wrap;fontSize=13;strokeColor=#3a414a;strokeOpacity=100;strokeWidth=0.8;rounded=1;arcSize=12;edgeStyle=orthogonalEdgeStyle;startArrow=none;endArrow=none;exitX=1.003;exitY=0.143;exitPerimeter=0;entryX=-0.003;entryY=0.5;entryPerimeter=0;fontColor=#f1f4f9;" parent="1" source="774" target="780" edge="1">
                        <mxGeometry width="100" height="100" relative="1" as="geometry">
                            <Array as="points"/>
                        </mxGeometry>
                    </mxCell>
                </UserObject>
                <UserObject label="TotalBill" lucidchartObjectId="5op4yrw.3omH" id="780">
                    <mxCell style="html=1;overflow=block;blockSpacing=1;whiteSpace=wrap;ellipse;fontSize=16.7;fontColor=#f1f4f9;spacing=3.8;strokeColor=#3a414a;strokeOpacity=100;rounded=1;absoluteArcSize=1;arcSize=9;strokeWidth=0.8;" parent="1" vertex="1">
                        <mxGeometry x="4008" y="-1654" width="120" height="90" as="geometry"/>
                    </mxCell>
                </UserObject>
                <UserObject label="" lucidchartObjectId="dpp4_gka3.p4" id="781">
                    <mxCell style="html=1;jettySize=18;whiteSpace=wrap;fontSize=13;strokeColor=#3a414a;strokeOpacity=100;strokeWidth=0.8;rounded=1;arcSize=12;edgeStyle=orthogonalEdgeStyle;startArrow=none;endArrow=none;exitX=1.003;exitY=0.744;exitPerimeter=0;entryX=-0.003;entryY=0.5;entryPerimeter=0;fontColor=#f1f4f9;" parent="1" source="774" target="782" edge="1">
                        <mxGeometry width="100" height="100" relative="1" as="geometry">
                            <Array as="points"/>
                        </mxGeometry>
                    </mxCell>
                </UserObject>
                <UserObject label="DateTime" lucidchartObjectId="epp4ath-SCjd" id="782">
                    <mxCell style="html=1;overflow=block;blockSpacing=1;whiteSpace=wrap;ellipse;fontSize=16.7;fontColor=#f1f4f9;spacing=3.8;strokeColor=#3a414a;strokeOpacity=100;rounded=1;absoluteArcSize=1;arcSize=9;strokeWidth=0.8;" parent="1" vertex="1">
                        <mxGeometry x="4023" y="-1532" width="120" height="90" as="geometry"/>
                    </mxCell>
                </UserObject>
                <UserObject label="DeliveryBoy" lucidchartObjectId="Epp4kVIYfYsT" id="783">
                    <mxCell style="html=1;overflow=block;blockSpacing=1;whiteSpace=wrap;fontSize=16.7;fontColor=#f1f4f9;spacing=3.8;strokeColor=#3a414a;strokeOpacity=100;rounded=1;absoluteArcSize=1;arcSize=9;strokeWidth=0.8;" parent="1" vertex="1">
                        <mxGeometry x="3333" y="-1217" width="120" height="90" as="geometry"/>
                    </mxCell>
                </UserObject>
                <UserObject label="" lucidchartObjectId="7pp4FndJa01v" id="784">
                    <mxCell style="html=1;jettySize=18;whiteSpace=wrap;fontSize=13;strokeColor=#3a414a;strokeOpacity=100;strokeWidth=0.8;rounded=1;arcSize=12;edgeStyle=orthogonalEdgeStyle;startArrow=none;endArrow=none;exitX=0.171;exitY=1.004;exitPerimeter=0;entryX=0.5;entryY=-0.004;entryPerimeter=0;fontColor=#f1f4f9;" parent="1" source="783" target="785" edge="1">
                        <mxGeometry width="100" height="100" relative="1" as="geometry">
                            <Array as="points"/>
                        </mxGeometry>
                    </mxCell>
                </UserObject>
                <UserObject label="DeliveryBoyID" lucidchartObjectId="8pp4WK.j4z1j" id="785">
                    <mxCell style="html=1;overflow=block;blockSpacing=1;whiteSpace=wrap;ellipse;fontSize=16.7;fontColor=#f1f4f9;fontStyle=4;spacing=3.8;strokeColor=#3a414a;strokeOpacity=100;rounded=1;absoluteArcSize=1;arcSize=9;strokeWidth=0.8;" parent="1" vertex="1">
                        <mxGeometry x="3273" y="-1067" width="120" height="90" as="geometry"/>
                    </mxCell>
                </UserObject>
                <UserObject label="" lucidchartObjectId="iqp4foYuoJde" id="786">
                    <mxCell style="html=1;jettySize=18;whiteSpace=wrap;fontSize=13;strokeColor=#3a414a;strokeOpacity=100;strokeWidth=0.8;rounded=1;arcSize=12;edgeStyle=orthogonalEdgeStyle;startArrow=none;endArrow=none;exitX=0.647;exitY=1.004;exitPerimeter=0;entryX=0.5;entryY=-0.004;entryPerimeter=0;fontColor=#f1f4f9;" parent="1" source="783" target="787" edge="1">
                        <mxGeometry width="100" height="100" relative="1" as="geometry">
                            <Array as="points"/>
                        </mxGeometry>
                    </mxCell>
                </UserObject>
                <UserObject label="FullName" lucidchartObjectId="jqp4zFutPP.5" id="787">
                    <mxCell style="html=1;overflow=block;blockSpacing=1;whiteSpace=wrap;ellipse;fontSize=16.7;fontColor=#f1f4f9;spacing=3.8;strokeColor=#3a414a;strokeOpacity=100;rounded=1;absoluteArcSize=1;arcSize=9;strokeWidth=0.8;" parent="1" vertex="1">
                        <mxGeometry x="3408" y="-1067" width="120" height="90" as="geometry"/>
                    </mxCell>
                </UserObject>
                <UserObject label="" lucidchartObjectId="yqp430GplZLs" id="788">
                    <mxCell style="html=1;jettySize=18;whiteSpace=wrap;fontSize=13;strokeColor=#3a414a;strokeOpacity=100;strokeWidth=0.8;rounded=1;arcSize=12;edgeStyle=orthogonalEdgeStyle;startArrow=none;endArrow=none;exitX=1.003;exitY=0.943;exitPerimeter=0;entryX=0.5;entryY=-0.004;entryPerimeter=0;fontColor=#f1f4f9;" parent="1" source="783" target="789" edge="1">
                        <mxGeometry width="100" height="100" relative="1" as="geometry">
                            <Array as="points"/>
                        </mxGeometry>
                    </mxCell>
                </UserObject>
                <UserObject label="ContactNumber" lucidchartObjectId="yqp4dn5L-KzR" id="789">
                    <mxCell style="html=1;overflow=block;blockSpacing=1;whiteSpace=wrap;ellipse;fontSize=16.7;fontColor=#f1f4f9;spacing=3.8;strokeColor=#3a414a;strokeOpacity=100;rounded=1;absoluteArcSize=1;arcSize=9;strokeWidth=0.8;" parent="1" vertex="1">
                        <mxGeometry x="3543" y="-1067" width="135" height="90" as="geometry"/>
                    </mxCell>
                </UserObject>
                <mxCell id="792" value="M" style="edgeStyle=none;html=1;exitX=0.5;exitY=0;exitDx=0;exitDy=0;entryX=0.5;entryY=1;entryDx=0;entryDy=0;strokeColor=#080808;fontColor=#f1f4f9;endArrow=none;endFill=0;" parent="1" source="790" target="739" edge="1">
                    <mxGeometry relative="1" as="geometry"/>
                </mxCell>
                <UserObject label="Has" lucidchartObjectId="6qp4TUooXjOu" id="790">
                    <mxCell style="html=1;overflow=block;blockSpacing=1;whiteSpace=wrap;shape=rhombus;fontSize=16.7;fontColor=#f1f4f9;spacing=3.8;strokeColor=#3a414a;strokeOpacity=100;rounded=1;absoluteArcSize=1;arcSize=9;strokeWidth=0.8;" parent="1" vertex="1">
                        <mxGeometry x="2781.5" y="-1638" width="131" height="114" as="geometry"/>
                    </mxCell>
                </UserObject>
                <mxCell id="794" value="1" style="edgeStyle=none;html=1;exitX=0.5;exitY=1;exitDx=0;exitDy=0;entryX=0.5;entryY=0;entryDx=0;entryDy=0;strokeColor=#080808;fontColor=#f1f4f9;endArrow=none;endFill=0;" parent="1" source="793" target="732" edge="1">
                    <mxGeometry relative="1" as="geometry"/>
                </mxCell>
                <mxCell id="795" value="1" style="edgeStyle=none;html=1;exitX=0.5;exitY=0;exitDx=0;exitDy=0;entryX=0.5;entryY=1;entryDx=0;entryDy=0;strokeColor=#080808;fontColor=#f1f4f9;endArrow=none;endFill=0;" parent="1" source="793" target="739" edge="1">
                    <mxGeometry relative="1" as="geometry"/>
                </mxCell>
                <UserObject label="Manage" lucidchartObjectId="6qp4TUooXjOu" id="793">
                    <mxCell style="html=1;overflow=block;blockSpacing=1;whiteSpace=wrap;shape=rhombus;fontSize=16.7;fontColor=#f1f4f9;spacing=3.8;strokeColor=#3a414a;strokeOpacity=100;rounded=1;absoluteArcSize=1;arcSize=9;strokeWidth=0.8;" parent="1" vertex="1">
                        <mxGeometry x="3015.5" y="-1638" width="131" height="114" as="geometry"/>
                    </mxCell>
                </UserObject>
                <mxCell id="798" value="M" style="edgeStyle=none;html=1;exitX=0.5;exitY=0;exitDx=0;exitDy=0;entryX=0;entryY=0.5;entryDx=0;entryDy=0;strokeColor=#080808;fontColor=#f1f4f9;endArrow=none;endFill=0;" parent="1" source="797" target="758" edge="1">
                    <mxGeometry relative="1" as="geometry"/>
                </mxCell>
                <mxCell id="799" value="M" style="edgeStyle=none;html=1;exitX=0.5;exitY=1;exitDx=0;exitDy=0;entryX=0;entryY=0.5;entryDx=0;entryDy=0;strokeColor=#080808;fontColor=#f1f4f9;endArrow=none;endFill=0;" parent="1" source="797" target="774" edge="1">
                    <mxGeometry relative="1" as="geometry"/>
                </mxCell>
                <UserObject label="PlacedBy" lucidchartObjectId="6qp4TUooXjOu" id="797">
                    <mxCell style="html=1;overflow=block;blockSpacing=1;whiteSpace=wrap;shape=rhombus;fontSize=16.7;fontColor=#f1f4f9;spacing=3.8;strokeColor=#3a414a;strokeOpacity=100;rounded=1;absoluteArcSize=1;arcSize=9;strokeWidth=0.8;" parent="1" vertex="1">
                        <mxGeometry x="3417.5" y="-1749" width="131" height="114" as="geometry"/>
                    </mxCell>
                </UserObject>
                <mxCell id="801" value="1" style="edgeStyle=none;html=1;exitX=0.5;exitY=0;exitDx=0;exitDy=0;entryX=0;entryY=0.5;entryDx=0;entryDy=0;strokeColor=#080808;fontColor=#f1f4f9;endArrow=none;endFill=0;" parent="1" source="800" target="774" edge="1">
                    <mxGeometry relative="1" as="geometry"/>
                </mxCell>
                <mxCell id="802" value="M" style="edgeStyle=none;html=1;exitX=0.5;exitY=1;exitDx=0;exitDy=0;entryX=0;entryY=0.5;entryDx=0;entryDy=0;strokeColor=#080808;fontColor=#f1f4f9;endArrow=none;endFill=0;" parent="1" source="800" target="765" edge="1">
                    <mxGeometry relative="1" as="geometry"/>
                </mxCell>
                <UserObject label="Contains" lucidchartObjectId="6qp4TUooXjOu" id="800">
                    <mxCell style="html=1;overflow=block;blockSpacing=1;whiteSpace=wrap;shape=rhombus;fontSize=16.7;fontColor=#f1f4f9;spacing=3.8;strokeColor=#3a414a;strokeOpacity=100;rounded=1;absoluteArcSize=1;arcSize=9;strokeWidth=0.8;" parent="1" vertex="1">
                        <mxGeometry x="3410" y="-1529" width="131" height="114" as="geometry"/>
                    </mxCell>
                </UserObject>
                <mxCell id="804" value="M" style="edgeStyle=none;html=1;exitX=1;exitY=0.5;exitDx=0;exitDy=0;entryX=0;entryY=0.5;entryDx=0;entryDy=0;strokeColor=#080808;fontColor=#f1f4f9;endArrow=none;endFill=0;" parent="1" source="803" target="774" edge="1">
                    <mxGeometry relative="1" as="geometry"/>
                </mxCell>
                <mxCell id="805" value="1" style="edgeStyle=none;html=1;exitX=0.5;exitY=1;exitDx=0;exitDy=0;entryX=0.5;entryY=0;entryDx=0;entryDy=0;strokeColor=#080808;fontColor=#f1f4f9;endArrow=none;endFill=0;" parent="1" source="803" target="732" edge="1">
                    <mxGeometry relative="1" as="geometry"/>
                </mxCell>
                <UserObject label="ServedBy" lucidchartObjectId="6qp4TUooXjOu" id="803">
                    <mxCell style="html=1;overflow=block;blockSpacing=1;whiteSpace=wrap;shape=rhombus;fontSize=16.7;fontColor=#f1f4f9;spacing=3.8;strokeColor=#3a414a;strokeOpacity=100;rounded=1;absoluteArcSize=1;arcSize=9;strokeWidth=0.8;" parent="1" vertex="1">
                        <mxGeometry x="3232" y="-1634" width="131" height="114" as="geometry"/>
                    </mxCell>
                </UserObject>
                <mxCell id="807" value="M" style="edgeStyle=none;html=1;entryX=0.5;entryY=1;entryDx=0;entryDy=0;strokeColor=#080808;fontColor=#f1f4f9;endArrow=none;endFill=0;exitX=0.328;exitY=0.719;exitDx=0;exitDy=0;exitPerimeter=0;" parent="1" source="806" target="774" edge="1">
                    <mxGeometry relative="1" as="geometry"/>
                </mxCell>
                <mxCell id="808" value="M" style="edgeStyle=none;html=1;exitX=0.5;exitY=1;exitDx=0;exitDy=0;entryX=0.5;entryY=0;entryDx=0;entryDy=0;strokeColor=#080808;fontColor=#f1f4f9;endArrow=none;endFill=0;" parent="1" source="806" target="783" edge="1">
                    <mxGeometry relative="1" as="geometry"/>
                </mxCell>
                <UserObject label="DeliveredBy" lucidchartObjectId="6qp4TUooXjOu" id="806">
                    <mxCell style="html=1;overflow=block;blockSpacing=1;whiteSpace=wrap;shape=rhombus;fontSize=16.7;fontColor=#f1f4f9;spacing=3.8;strokeColor=#3a414a;strokeOpacity=100;rounded=1;absoluteArcSize=1;arcSize=9;strokeWidth=0.8;" parent="1" vertex="1">
                        <mxGeometry x="3336.5" y="-1376" width="131" height="114" as="geometry"/>
                    </mxCell>
                </UserObject>
                <mxCell id="809" value="Branch" style="html=1;overflow=block;blockSpacing=1;swimlane;childLayout=stackLayout;horizontal=1;horizontalStack=0;resizeParent=1;resizeParentMax=0;resizeLast=0;collapsible=0;fontStyle=0;marginBottom=0;swimlaneFillColor=#ffffff;startSize=25;whiteSpace=wrap;fontSize=16.7;fontColor=#333333;align=left;spacing=0;strokeColor=#666666;strokeOpacity=100;rounded=1;absoluteArcSize=1;arcSize=9;strokeWidth=0.8;fillColor=#f5f5f5;" vertex="1" parent="1">
                    <mxGeometry x="3917.5" y="-2072.5" width="270" height="211" as="geometry"/>
                </mxCell>
                <mxCell id="810" value="BranchID (PK)&lt;br&gt;Address&lt;br&gt;ContactNo" style="part=1;html=1;resizeHeight=0;strokeColor=none;fillColor=none;align=left;verticalAlign=middle;spacingLeft=4;spacingRight=4;overflow=hidden;rotatable=0;points=[[0,0.5],[1,0.5]];portConstraint=eastwest;swimlaneFillColor=#ffffff;strokeOpacity=100;whiteSpace=wrap;fontSize=16.7;fontColor=#3a414a;" vertex="1" parent="809">
                    <mxGeometry y="25" width="270" height="100" as="geometry"/>
                </mxCell>
                <mxCell id="811" value="" style="line;strokeWidth=1;fillColor=none;align=left;verticalAlign=middle;spacingTop=-1;spacingLeft=3;spacingRight=3;rotatable=0;labelPosition=right;points=[];portConstraint=eastwest;" vertex="1" parent="809">
                    <mxGeometry y="125" width="270" height="8" as="geometry"/>
                </mxCell>
                <mxCell id="812" value="" style="part=1;html=1;resizeHeight=0;strokeColor=none;fillColor=none;align=left;verticalAlign=middle;spacingLeft=4;spacingRight=4;overflow=hidden;rotatable=0;points=[[0,0.5],[1,0.5]];portConstraint=eastwest;swimlaneFillColor=#ffffff;strokeOpacity=100;whiteSpace=wrap;fontSize=13;" vertex="1" parent="809">
                    <mxGeometry y="133" width="270" height="78" as="geometry"/>
                </mxCell>
                <mxCell id="813" value="Staff" style="html=1;overflow=block;blockSpacing=1;swimlane;childLayout=stackLayout;horizontal=1;horizontalStack=0;resizeParent=1;resizeParentMax=0;resizeLast=0;collapsible=0;fontStyle=0;marginBottom=0;swimlaneFillColor=#ffffff;startSize=25;whiteSpace=wrap;fontSize=16.7;fontColor=#333333;align=left;spacing=0;strokeColor=#666666;strokeOpacity=100;rounded=1;absoluteArcSize=1;arcSize=9;strokeWidth=0.8;fillColor=#f5f5f5;" vertex="1" parent="1">
                    <mxGeometry x="4206.5" y="-2072" width="270" height="296" as="geometry"/>
                </mxCell>
                <mxCell id="814" value="EmployeeID(PK)&lt;br&gt;FullName&lt;br&gt;Age&lt;br&gt;Address(City,Region)&lt;br&gt;Role&lt;br&gt;JoiningDate&lt;br&gt;Salary&lt;br&gt;BranchID" style="part=1;html=1;resizeHeight=0;strokeColor=none;fillColor=none;align=left;verticalAlign=middle;spacingLeft=4;spacingRight=4;overflow=hidden;rotatable=0;points=[[0,0.5],[1,0.5]];portConstraint=eastwest;swimlaneFillColor=#ffffff;strokeOpacity=100;whiteSpace=wrap;fontSize=16.7;fontColor=#3a414a;" vertex="1" parent="813">
                    <mxGeometry y="25" width="270" height="185" as="geometry"/>
                </mxCell>
                <mxCell id="815" value="" style="line;strokeWidth=1;fillColor=none;align=left;verticalAlign=middle;spacingTop=-1;spacingLeft=3;spacingRight=3;rotatable=0;labelPosition=right;points=[];portConstraint=eastwest;" vertex="1" parent="813">
                    <mxGeometry y="210" width="270" height="8" as="geometry"/>
                </mxCell>
                <mxCell id="816" value="" style="part=1;html=1;resizeHeight=0;strokeColor=none;fillColor=none;align=left;verticalAlign=middle;spacingLeft=4;spacingRight=4;overflow=hidden;rotatable=0;points=[[0,0.5],[1,0.5]];portConstraint=eastwest;swimlaneFillColor=#ffffff;strokeOpacity=100;whiteSpace=wrap;fontSize=13;" vertex="1" parent="813">
                    <mxGeometry y="218" width="270" height="78" as="geometry"/>
                </mxCell>
                <mxCell id="817" value="Customer" style="html=1;overflow=block;blockSpacing=1;swimlane;childLayout=stackLayout;horizontal=1;horizontalStack=0;resizeParent=1;resizeParentMax=0;resizeLast=0;collapsible=0;fontStyle=0;marginBottom=0;swimlaneFillColor=#ffffff;startSize=25;whiteSpace=wrap;fontSize=16.7;fontColor=#333333;align=left;spacing=0;strokeColor=#666666;strokeOpacity=100;rounded=1;absoluteArcSize=1;arcSize=9;strokeWidth=0.8;fillColor=#f5f5f5;" vertex="1" parent="1">
                    <mxGeometry x="4486.5" y="-2072.5" width="270" height="211" as="geometry"/>
                </mxCell>
                <mxCell id="818" value="CustomerID (PK)&lt;br&gt;FullName&lt;br&gt;ContactNo" style="part=1;html=1;resizeHeight=0;strokeColor=none;fillColor=none;align=left;verticalAlign=middle;spacingLeft=4;spacingRight=4;overflow=hidden;rotatable=0;points=[[0,0.5],[1,0.5]];portConstraint=eastwest;swimlaneFillColor=#ffffff;strokeOpacity=100;whiteSpace=wrap;fontSize=16.7;fontColor=#3a414a;" vertex="1" parent="817">
                    <mxGeometry y="25" width="270" height="100" as="geometry"/>
                </mxCell>
                <mxCell id="819" value="" style="line;strokeWidth=1;fillColor=none;align=left;verticalAlign=middle;spacingTop=-1;spacingLeft=3;spacingRight=3;rotatable=0;labelPosition=right;points=[];portConstraint=eastwest;" vertex="1" parent="817">
                    <mxGeometry y="125" width="270" height="8" as="geometry"/>
                </mxCell>
                <mxCell id="820" value="" style="part=1;html=1;resizeHeight=0;strokeColor=none;fillColor=none;align=left;verticalAlign=middle;spacingLeft=4;spacingRight=4;overflow=hidden;rotatable=0;points=[[0,0.5],[1,0.5]];portConstraint=eastwest;swimlaneFillColor=#ffffff;strokeOpacity=100;whiteSpace=wrap;fontSize=13;" vertex="1" parent="817">
                    <mxGeometry y="133" width="270" height="78" as="geometry"/>
                </mxCell>
                <mxCell id="822" value="MenuItem" style="html=1;overflow=block;blockSpacing=1;swimlane;childLayout=stackLayout;horizontal=1;horizontalStack=0;resizeParent=1;resizeParentMax=0;resizeLast=0;collapsible=0;fontStyle=0;marginBottom=0;swimlaneFillColor=#ffffff;startSize=25;whiteSpace=wrap;fontSize=16.7;fontColor=#333333;align=left;spacing=0;strokeColor=#666666;strokeOpacity=100;rounded=1;absoluteArcSize=1;arcSize=9;strokeWidth=0.8;fillColor=#f5f5f5;" vertex="1" parent="1">
                    <mxGeometry x="4206.5" y="-1759" width="270" height="211" as="geometry"/>
                </mxCell>
                <mxCell id="823" value="ItemCode(PK)&lt;br&gt;ItemName&lt;br&gt;Price&lt;br&gt;Category" style="part=1;html=1;resizeHeight=0;strokeColor=none;fillColor=none;align=left;verticalAlign=middle;spacingLeft=4;spacingRight=4;overflow=hidden;rotatable=0;points=[[0,0.5],[1,0.5]];portConstraint=eastwest;swimlaneFillColor=#ffffff;strokeOpacity=100;whiteSpace=wrap;fontSize=16.7;fontColor=#3a414a;" vertex="1" parent="822">
                    <mxGeometry y="25" width="270" height="100" as="geometry"/>
                </mxCell>
                <mxCell id="824" value="" style="line;strokeWidth=1;fillColor=none;align=left;verticalAlign=middle;spacingTop=-1;spacingLeft=3;spacingRight=3;rotatable=0;labelPosition=right;points=[];portConstraint=eastwest;" vertex="1" parent="822">
                    <mxGeometry y="125" width="270" height="8" as="geometry"/>
                </mxCell>
                <mxCell id="825" value="" style="part=1;html=1;resizeHeight=0;strokeColor=none;fillColor=none;align=left;verticalAlign=middle;spacingLeft=4;spacingRight=4;overflow=hidden;rotatable=0;points=[[0,0.5],[1,0.5]];portConstraint=eastwest;swimlaneFillColor=#ffffff;strokeOpacity=100;whiteSpace=wrap;fontSize=13;" vertex="1" parent="822">
                    <mxGeometry y="133" width="270" height="78" as="geometry"/>
                </mxCell>
                <mxCell id="826" value="Order" style="html=1;overflow=block;blockSpacing=1;swimlane;childLayout=stackLayout;horizontal=1;horizontalStack=0;resizeParent=1;resizeParentMax=0;resizeLast=0;collapsible=0;fontStyle=0;marginBottom=0;swimlaneFillColor=#ffffff;startSize=25;whiteSpace=wrap;fontSize=16.7;fontColor=#333333;align=left;spacing=0;strokeColor=#666666;strokeOpacity=100;rounded=1;absoluteArcSize=1;arcSize=9;strokeWidth=0.8;fillColor=#f5f5f5;" vertex="1" parent="1">
                    <mxGeometry x="4491.5" y="-1849" width="270" height="219" as="geometry"/>
                </mxCell>
                <mxCell id="827" value="OrderID(PK)&lt;br&gt;DeliveryAddress&lt;br&gt;TotalBill&lt;br&gt;DateTime&lt;br&gt;CustomerID(FK)" style="part=1;html=1;resizeHeight=0;strokeColor=none;fillColor=none;align=left;verticalAlign=middle;spacingLeft=4;spacingRight=4;overflow=hidden;rotatable=0;points=[[0,0.5],[1,0.5]];portConstraint=eastwest;swimlaneFillColor=#ffffff;strokeOpacity=100;whiteSpace=wrap;fontSize=16.7;fontColor=#3a414a;" vertex="1" parent="826">
                    <mxGeometry y="25" width="270" height="108" as="geometry"/>
                </mxCell>
                <mxCell id="828" value="" style="line;strokeWidth=1;fillColor=none;align=left;verticalAlign=middle;spacingTop=-1;spacingLeft=3;spacingRight=3;rotatable=0;labelPosition=right;points=[];portConstraint=eastwest;" vertex="1" parent="826">
                    <mxGeometry y="133" width="270" height="8" as="geometry"/>
                </mxCell>
                <mxCell id="829" value="" style="part=1;html=1;resizeHeight=0;strokeColor=none;fillColor=none;align=left;verticalAlign=middle;spacingLeft=4;spacingRight=4;overflow=hidden;rotatable=0;points=[[0,0.5],[1,0.5]];portConstraint=eastwest;swimlaneFillColor=#ffffff;strokeOpacity=100;whiteSpace=wrap;fontSize=13;" vertex="1" parent="826">
                    <mxGeometry y="141" width="270" height="78" as="geometry"/>
                </mxCell>
                <mxCell id="830" value="DeliveryBoy" style="html=1;overflow=block;blockSpacing=1;swimlane;childLayout=stackLayout;horizontal=1;horizontalStack=0;resizeParent=1;resizeParentMax=0;resizeLast=0;collapsible=0;fontStyle=0;marginBottom=0;swimlaneFillColor=#ffffff;startSize=25;whiteSpace=wrap;fontSize=16.7;fontColor=#333333;align=left;spacing=0;strokeColor=#666666;strokeOpacity=100;rounded=1;absoluteArcSize=1;arcSize=9;strokeWidth=0.8;fillColor=#f5f5f5;" vertex="1" parent="1">
                    <mxGeometry x="4206.5" y="-1529" width="270" height="211" as="geometry"/>
                </mxCell>
                <mxCell id="831" value="DeliveryBoyID(PK)&lt;br&gt;FullName&lt;br&gt;ContactNumber" style="part=1;html=1;resizeHeight=0;strokeColor=none;fillColor=none;align=left;verticalAlign=middle;spacingLeft=4;spacingRight=4;overflow=hidden;rotatable=0;points=[[0,0.5],[1,0.5]];portConstraint=eastwest;swimlaneFillColor=#ffffff;strokeOpacity=100;whiteSpace=wrap;fontSize=16.7;fontColor=#3a414a;" vertex="1" parent="830">
                    <mxGeometry y="25" width="270" height="100" as="geometry"/>
                </mxCell>
                <mxCell id="832" value="" style="line;strokeWidth=1;fillColor=none;align=left;verticalAlign=middle;spacingTop=-1;spacingLeft=3;spacingRight=3;rotatable=0;labelPosition=right;points=[];portConstraint=eastwest;" vertex="1" parent="830">
                    <mxGeometry y="125" width="270" height="8" as="geometry"/>
                </mxCell>
                <mxCell id="833" value="" style="part=1;html=1;resizeHeight=0;strokeColor=none;fillColor=none;align=left;verticalAlign=middle;spacingLeft=4;spacingRight=4;overflow=hidden;rotatable=0;points=[[0,0.5],[1,0.5]];portConstraint=eastwest;swimlaneFillColor=#ffffff;strokeOpacity=100;whiteSpace=wrap;fontSize=13;" vertex="1" parent="830">
                    <mxGeometry y="133" width="270" height="78" as="geometry"/>
                </mxCell>
                <mxCell id="834" value="Parent" style="html=1;overflow=block;blockSpacing=1;swimlane;childLayout=stackLayout;horizontal=1;horizontalStack=0;resizeParent=1;resizeParentMax=0;resizeLast=0;collapsible=0;fontStyle=0;marginBottom=0;swimlaneFillColor=#ffffff;startSize=25;whiteSpace=wrap;fontSize=16.7;fontColor=#333333;align=left;spacing=0;strokeColor=#666666;strokeOpacity=100;rounded=1;absoluteArcSize=1;arcSize=9;strokeWidth=0.8;fillColor=#f5f5f5;" vertex="1" parent="1">
                    <mxGeometry x="3851" y="146" width="270" height="211" as="geometry"/>
                </mxCell>
                <mxCell id="835" value="ParentID(PK)&lt;br&gt;StudentSN(FK)&lt;br&gt;FullName&lt;br&gt;Relationship" style="part=1;html=1;resizeHeight=0;strokeColor=none;fillColor=none;align=left;verticalAlign=middle;spacingLeft=4;spacingRight=4;overflow=hidden;rotatable=0;points=[[0,0.5],[1,0.5]];portConstraint=eastwest;swimlaneFillColor=#ffffff;strokeOpacity=100;whiteSpace=wrap;fontSize=16.7;fontColor=#3a414a;" vertex="1" parent="834">
                    <mxGeometry y="25" width="270" height="100" as="geometry"/>
                </mxCell>
                <mxCell id="836" value="" style="line;strokeWidth=1;fillColor=none;align=left;verticalAlign=middle;spacingTop=-1;spacingLeft=3;spacingRight=3;rotatable=0;labelPosition=right;points=[];portConstraint=eastwest;" vertex="1" parent="834">
                    <mxGeometry y="125" width="270" height="8" as="geometry"/>
                </mxCell>
                <mxCell id="837" value="" style="part=1;html=1;resizeHeight=0;strokeColor=none;fillColor=none;align=left;verticalAlign=middle;spacingLeft=4;spacingRight=4;overflow=hidden;rotatable=0;points=[[0,0.5],[1,0.5]];portConstraint=eastwest;swimlaneFillColor=#ffffff;strokeOpacity=100;whiteSpace=wrap;fontSize=13;" vertex="1" parent="834">
                    <mxGeometry y="133" width="270" height="78" as="geometry"/>
                </mxCell>
                <mxCell id="838" value="Student" style="html=1;overflow=block;blockSpacing=1;swimlane;childLayout=stackLayout;horizontal=1;horizontalStack=0;resizeParent=1;resizeParentMax=0;resizeLast=0;collapsible=0;fontStyle=0;marginBottom=0;swimlaneFillColor=#ffffff;startSize=25;whiteSpace=wrap;fontSize=16.7;fontColor=#333333;align=left;spacing=0;strokeColor=#666666;strokeOpacity=100;rounded=1;absoluteArcSize=1;arcSize=9;strokeWidth=0.8;fillColor=#f5f5f5;" vertex="1" parent="1">
                    <mxGeometry x="3851" y="392" width="270" height="297" as="geometry"/>
                </mxCell>
                <mxCell id="839" value="SN(PK)&lt;br&gt;FullName&lt;br&gt;Age&lt;br&gt;Gender&lt;br&gt;DOB&lt;br&gt;CompletionCertificate&lt;br&gt;Email&lt;br&gt;Division&lt;br&gt;SiblingInfo" style="part=1;html=1;resizeHeight=0;strokeColor=none;fillColor=none;align=left;verticalAlign=middle;spacingLeft=4;spacingRight=4;overflow=hidden;rotatable=0;points=[[0,0.5],[1,0.5]];portConstraint=eastwest;swimlaneFillColor=#ffffff;strokeOpacity=100;whiteSpace=wrap;fontSize=16.7;fontColor=#3a414a;" vertex="1" parent="838">
                    <mxGeometry y="25" width="270" height="186" as="geometry"/>
                </mxCell>
                <mxCell id="840" value="" style="line;strokeWidth=1;fillColor=none;align=left;verticalAlign=middle;spacingTop=-1;spacingLeft=3;spacingRight=3;rotatable=0;labelPosition=right;points=[];portConstraint=eastwest;" vertex="1" parent="838">
                    <mxGeometry y="211" width="270" height="8" as="geometry"/>
                </mxCell>
                <mxCell id="841" value="" style="part=1;html=1;resizeHeight=0;strokeColor=none;fillColor=none;align=left;verticalAlign=middle;spacingLeft=4;spacingRight=4;overflow=hidden;rotatable=0;points=[[0,0.5],[1,0.5]];portConstraint=eastwest;swimlaneFillColor=#ffffff;strokeOpacity=100;whiteSpace=wrap;fontSize=13;" vertex="1" parent="838">
                    <mxGeometry y="219" width="270" height="78" as="geometry"/>
                </mxCell>
                <mxCell id="842" value="MedicalReport" style="html=1;overflow=block;blockSpacing=1;swimlane;childLayout=stackLayout;horizontal=1;horizontalStack=0;resizeParent=1;resizeParentMax=0;resizeLast=0;collapsible=0;fontStyle=0;marginBottom=0;swimlaneFillColor=#ffffff;startSize=25;whiteSpace=wrap;fontSize=16.7;fontColor=#333333;align=left;spacing=0;strokeColor=#666666;strokeOpacity=100;rounded=1;absoluteArcSize=1;arcSize=9;strokeWidth=0.8;fillColor=#f5f5f5;" vertex="1" parent="1">
                    <mxGeometry x="4138" y="148" width="270" height="211" as="geometry"/>
                </mxCell>
                <mxCell id="843" value="StudentSN(FK)&lt;br&gt;Weight&lt;br&gt;Length&lt;br&gt;Diseases" style="part=1;html=1;resizeHeight=0;strokeColor=none;fillColor=none;align=left;verticalAlign=middle;spacingLeft=4;spacingRight=4;overflow=hidden;rotatable=0;points=[[0,0.5],[1,0.5]];portConstraint=eastwest;swimlaneFillColor=#ffffff;strokeOpacity=100;whiteSpace=wrap;fontSize=16.7;fontColor=#3a414a;" vertex="1" parent="842">
                    <mxGeometry y="25" width="270" height="100" as="geometry"/>
                </mxCell>
                <mxCell id="844" value="" style="line;strokeWidth=1;fillColor=none;align=left;verticalAlign=middle;spacingTop=-1;spacingLeft=3;spacingRight=3;rotatable=0;labelPosition=right;points=[];portConstraint=eastwest;" vertex="1" parent="842">
                    <mxGeometry y="125" width="270" height="8" as="geometry"/>
                </mxCell>
                <mxCell id="845" value="" style="part=1;html=1;resizeHeight=0;strokeColor=none;fillColor=none;align=left;verticalAlign=middle;spacingLeft=4;spacingRight=4;overflow=hidden;rotatable=0;points=[[0,0.5],[1,0.5]];portConstraint=eastwest;swimlaneFillColor=#ffffff;strokeOpacity=100;whiteSpace=wrap;fontSize=13;" vertex="1" parent="842">
                    <mxGeometry y="133" width="270" height="78" as="geometry"/>
                </mxCell>
                <mxCell id="846" value="Teacher" style="html=1;overflow=block;blockSpacing=1;swimlane;childLayout=stackLayout;horizontal=1;horizontalStack=0;resizeParent=1;resizeParentMax=0;resizeLast=0;collapsible=0;fontStyle=0;marginBottom=0;swimlaneFillColor=#ffffff;startSize=25;whiteSpace=wrap;fontSize=16.7;fontColor=#333333;align=left;spacing=0;strokeColor=#666666;strokeOpacity=100;rounded=1;absoluteArcSize=1;arcSize=9;strokeWidth=0.8;fillColor=#f5f5f5;" vertex="1" parent="1">
                    <mxGeometry x="4138" y="392" width="270" height="251" as="geometry"/>
                </mxCell>
                <mxCell id="847" value="TeacherID(PK)&lt;br&gt;FullName&lt;br&gt;Subject&lt;br&gt;PhoneNumber&lt;br&gt;Email&lt;br&gt;Salary" style="part=1;html=1;resizeHeight=0;strokeColor=none;fillColor=none;align=left;verticalAlign=middle;spacingLeft=4;spacingRight=4;overflow=hidden;rotatable=0;points=[[0,0.5],[1,0.5]];portConstraint=eastwest;swimlaneFillColor=#ffffff;strokeOpacity=100;whiteSpace=wrap;fontSize=16.7;fontColor=#3a414a;" vertex="1" parent="846">
                    <mxGeometry y="25" width="270" height="140" as="geometry"/>
                </mxCell>
                <mxCell id="848" value="" style="line;strokeWidth=1;fillColor=none;align=left;verticalAlign=middle;spacingTop=-1;spacingLeft=3;spacingRight=3;rotatable=0;labelPosition=right;points=[];portConstraint=eastwest;" vertex="1" parent="846">
                    <mxGeometry y="165" width="270" height="8" as="geometry"/>
                </mxCell>
                <mxCell id="849" value="" style="part=1;html=1;resizeHeight=0;strokeColor=none;fillColor=none;align=left;verticalAlign=middle;spacingLeft=4;spacingRight=4;overflow=hidden;rotatable=0;points=[[0,0.5],[1,0.5]];portConstraint=eastwest;swimlaneFillColor=#ffffff;strokeOpacity=100;whiteSpace=wrap;fontSize=13;" vertex="1" parent="846">
                    <mxGeometry y="173" width="270" height="78" as="geometry"/>
                </mxCell>
                <mxCell id="850" value="SeniorTeacher" style="html=1;overflow=block;blockSpacing=1;swimlane;childLayout=stackLayout;horizontal=1;horizontalStack=0;resizeParent=1;resizeParentMax=0;resizeLast=0;collapsible=0;fontStyle=0;marginBottom=0;swimlaneFillColor=#ffffff;startSize=25;whiteSpace=wrap;fontSize=16.7;fontColor=#333333;align=left;spacing=0;strokeColor=#666666;strokeOpacity=100;rounded=1;absoluteArcSize=1;arcSize=9;strokeWidth=0.8;fillColor=#f5f5f5;" vertex="1" parent="1">
                    <mxGeometry x="4138" y="659" width="270" height="167" as="geometry"/>
                </mxCell>
                <mxCell id="851" value="TeacherID(FK)&lt;br&gt;Subject" style="part=1;html=1;resizeHeight=0;strokeColor=none;fillColor=none;align=left;verticalAlign=middle;spacingLeft=4;spacingRight=4;overflow=hidden;rotatable=0;points=[[0,0.5],[1,0.5]];portConstraint=eastwest;swimlaneFillColor=#ffffff;strokeOpacity=100;whiteSpace=wrap;fontSize=16.7;fontColor=#3a414a;" vertex="1" parent="850">
                    <mxGeometry y="25" width="270" height="56" as="geometry"/>
                </mxCell>
                <mxCell id="852" value="" style="line;strokeWidth=1;fillColor=none;align=left;verticalAlign=middle;spacingTop=-1;spacingLeft=3;spacingRight=3;rotatable=0;labelPosition=right;points=[];portConstraint=eastwest;" vertex="1" parent="850">
                    <mxGeometry y="81" width="270" height="8" as="geometry"/>
                </mxCell>
                <mxCell id="853" value="" style="part=1;html=1;resizeHeight=0;strokeColor=none;fillColor=none;align=left;verticalAlign=middle;spacingLeft=4;spacingRight=4;overflow=hidden;rotatable=0;points=[[0,0.5],[1,0.5]];portConstraint=eastwest;swimlaneFillColor=#ffffff;strokeOpacity=100;whiteSpace=wrap;fontSize=13;" vertex="1" parent="850">
                    <mxGeometry y="89" width="270" height="78" as="geometry"/>
                </mxCell>
                <mxCell id="854" value="Class" style="html=1;overflow=block;blockSpacing=1;swimlane;childLayout=stackLayout;horizontal=1;horizontalStack=0;resizeParent=1;resizeParentMax=0;resizeLast=0;collapsible=0;fontStyle=0;marginBottom=0;swimlaneFillColor=#ffffff;startSize=25;whiteSpace=wrap;fontSize=16.7;fontColor=#333333;align=left;spacing=0;strokeColor=#666666;strokeOpacity=100;rounded=1;absoluteArcSize=1;arcSize=9;strokeWidth=0.8;fillColor=#f5f5f5;" vertex="1" parent="1">
                    <mxGeometry x="3851" y="711" width="270" height="205" as="geometry"/>
                </mxCell>
                <mxCell id="855" value="UniqueName&lt;br&gt;Location&lt;br&gt;Capacity&lt;br&gt;Schedule" style="part=1;html=1;resizeHeight=0;strokeColor=none;fillColor=none;align=left;verticalAlign=middle;spacingLeft=4;spacingRight=4;overflow=hidden;rotatable=0;points=[[0,0.5],[1,0.5]];portConstraint=eastwest;swimlaneFillColor=#ffffff;strokeOpacity=100;whiteSpace=wrap;fontSize=16.7;fontColor=#3a414a;" vertex="1" parent="854">
                    <mxGeometry y="25" width="270" height="94" as="geometry"/>
                </mxCell>
                <mxCell id="856" value="" style="line;strokeWidth=1;fillColor=none;align=left;verticalAlign=middle;spacingTop=-1;spacingLeft=3;spacingRight=3;rotatable=0;labelPosition=right;points=[];portConstraint=eastwest;" vertex="1" parent="854">
                    <mxGeometry y="119" width="270" height="8" as="geometry"/>
                </mxCell>
                <mxCell id="857" value="" style="part=1;html=1;resizeHeight=0;strokeColor=none;fillColor=none;align=left;verticalAlign=middle;spacingLeft=4;spacingRight=4;overflow=hidden;rotatable=0;points=[[0,0.5],[1,0.5]];portConstraint=eastwest;swimlaneFillColor=#ffffff;strokeOpacity=100;whiteSpace=wrap;fontSize=13;" vertex="1" parent="854">
                    <mxGeometry y="127" width="270" height="78" as="geometry"/>
                </mxCell>
                <mxCell id="867" style="edgeStyle=none;html=1;exitX=0;exitY=0;exitDx=0;exitDy=0;entryX=1;entryY=0.5;entryDx=0;entryDy=0;strokeColor=#272525;endArrow=none;endFill=0;" edge="1" parent="1" source="858" target="866">
                    <mxGeometry relative="1" as="geometry">
                        <mxPoint x="3090.2245330810547" y="1.8877983093261719" as="targetPoint"/>
                        <Array as="points">
                            <mxPoint x="3052" y="5"/>
                        </Array>
                    </mxGeometry>
                </mxCell>
                <mxCell id="868" style="edgeStyle=none;html=1;exitX=0;exitY=0;exitDx=0;exitDy=0;entryX=1;entryY=0.5;entryDx=0;entryDy=0;strokeColor=#272525;endArrow=none;endFill=0;" edge="1" parent="1" source="858" target="865">
                    <mxGeometry relative="1" as="geometry"/>
                </mxCell>
                <mxCell id="869" style="edgeStyle=none;html=1;exitX=0;exitY=0.25;exitDx=0;exitDy=0;strokeColor=#272525;endArrow=none;endFill=0;entryX=1;entryY=0.5;entryDx=0;entryDy=0;" edge="1" parent="1" source="858" target="862">
                    <mxGeometry relative="1" as="geometry">
                        <mxPoint x="3029.0487510279604" y="121.37919857627458" as="targetPoint"/>
                        <Array as="points">
                            <mxPoint x="3044" y="138"/>
                        </Array>
                    </mxGeometry>
                </mxCell>
                <mxCell id="870" style="edgeStyle=none;html=1;exitX=0;exitY=0.5;exitDx=0;exitDy=0;entryX=1;entryY=0.5;entryDx=0;entryDy=0;strokeColor=#272525;endArrow=none;endFill=0;" edge="1" parent="1" source="858" target="859">
                    <mxGeometry relative="1" as="geometry"/>
                </mxCell>
                <mxCell id="871" style="edgeStyle=none;html=1;exitX=0;exitY=0.75;exitDx=0;exitDy=0;entryX=1;entryY=0.5;entryDx=0;entryDy=0;strokeColor=#272525;endArrow=none;endFill=0;" edge="1" parent="1" source="858" target="861">
                    <mxGeometry relative="1" as="geometry">
                        <Array as="points">
                            <mxPoint x="3032" y="246"/>
                        </Array>
                    </mxGeometry>
                </mxCell>
                <mxCell id="872" style="edgeStyle=none;html=1;exitX=0;exitY=1;exitDx=0;exitDy=0;entryX=1;entryY=0.5;entryDx=0;entryDy=0;strokeColor=#272525;endArrow=none;endFill=0;" edge="1" parent="1" source="858" target="860">
                    <mxGeometry relative="1" as="geometry"/>
                </mxCell>
                <mxCell id="873" style="edgeStyle=none;html=1;exitX=0.25;exitY=1;exitDx=0;exitDy=0;entryX=1;entryY=0.5;entryDx=0;entryDy=0;strokeColor=#272525;endArrow=none;endFill=0;" edge="1" parent="1" source="858" target="863">
                    <mxGeometry relative="1" as="geometry"/>
                </mxCell>
                <mxCell id="874" style="edgeStyle=none;html=1;exitX=0.5;exitY=1;exitDx=0;exitDy=0;entryX=1;entryY=0.5;entryDx=0;entryDy=0;strokeColor=#272525;endArrow=none;endFill=0;" edge="1" parent="1" source="858" target="864">
                    <mxGeometry relative="1" as="geometry"/>
                </mxCell>
                <mxCell id="888" value="1" style="edgeStyle=none;html=1;exitX=0.5;exitY=1;exitDx=0;exitDy=0;entryX=0.5;entryY=0;entryDx=0;entryDy=0;strokeColor=#272525;endArrow=none;endFill=0;" edge="1" parent="1" source="858" target="887">
                    <mxGeometry relative="1" as="geometry"/>
                </mxCell>
                <mxCell id="922" value="M" style="edgeStyle=none;html=1;exitX=1;exitY=0.5;exitDx=0;exitDy=0;entryX=0;entryY=0.5;entryDx=0;entryDy=0;strokeColor=#272525;endArrow=none;endFill=0;" edge="1" parent="1" source="858" target="921">
                    <mxGeometry relative="1" as="geometry"/>
                </mxCell>
                <UserObject label="Student" lucidchartObjectId="Epp4kVIYfYsT" id="858">
                    <mxCell style="html=1;overflow=block;blockSpacing=1;whiteSpace=wrap;fontSize=16.7;fontColor=#f1f4f9;spacing=3.8;strokeColor=#3a414a;strokeOpacity=100;rounded=1;absoluteArcSize=1;arcSize=9;strokeWidth=0.8;" vertex="1" parent="1">
                        <mxGeometry x="3136" y="227" width="120" height="90" as="geometry"/>
                    </mxCell>
                </UserObject>
                <UserObject label="SN" lucidchartObjectId="8pp4WK.j4z1j" id="859">
                    <mxCell style="html=1;overflow=block;blockSpacing=1;whiteSpace=wrap;ellipse;fontSize=16.7;fontColor=#f1f4f9;fontStyle=4;spacing=3.8;strokeColor=#3a414a;strokeOpacity=100;rounded=1;absoluteArcSize=1;arcSize=9;strokeWidth=0.8;" vertex="1" parent="1">
                        <mxGeometry x="2915" y="139" width="120" height="90" as="geometry"/>
                    </mxCell>
                </UserObject>
                <UserObject label="Address" lucidchartObjectId="Pip4KUpaGcZa" id="860">
                    <mxCell style="html=1;overflow=block;blockSpacing=1;whiteSpace=wrap;ellipse;fontSize=16.7;fontColor=#f1f4f9;spacing=3.8;strokeColor=#3a414a;strokeOpacity=100;rounded=1;absoluteArcSize=1;arcSize=9;strokeWidth=0.8;" vertex="1" parent="1">
                        <mxGeometry x="2915" y="257" width="120" height="90" as="geometry"/>
                    </mxCell>
                </UserObject>
                <UserObject label="FullName" lucidchartObjectId="Pip4KUpaGcZa" id="861">
                    <mxCell style="html=1;overflow=block;blockSpacing=1;whiteSpace=wrap;ellipse;fontSize=16.7;fontColor=#f1f4f9;spacing=3.8;strokeColor=#3a414a;strokeOpacity=100;rounded=1;absoluteArcSize=1;arcSize=9;strokeWidth=0.8;" vertex="1" parent="1">
                        <mxGeometry x="2790" y="197" width="120" height="90" as="geometry"/>
                    </mxCell>
                </UserObject>
                <UserObject label="DOB" lucidchartObjectId="Pip4KUpaGcZa" id="862">
                    <mxCell style="html=1;overflow=block;blockSpacing=1;whiteSpace=wrap;ellipse;fontSize=16.7;fontColor=#f1f4f9;spacing=3.8;strokeColor=#3a414a;strokeOpacity=100;rounded=1;absoluteArcSize=1;arcSize=9;strokeWidth=0.8;" vertex="1" parent="1">
                        <mxGeometry x="2790" y="58" width="120" height="90" as="geometry"/>
                    </mxCell>
                </UserObject>
                <UserObject label="Completion&lt;br&gt;Certificate" lucidchartObjectId="Pip4KUpaGcZa" id="863">
                    <mxCell style="html=1;overflow=block;blockSpacing=1;whiteSpace=wrap;ellipse;fontSize=16.7;fontColor=#f1f4f9;spacing=3.8;strokeColor=#3a414a;strokeOpacity=100;rounded=1;absoluteArcSize=1;arcSize=9;strokeWidth=0.8;" vertex="1" parent="1">
                        <mxGeometry x="2790" y="331" width="120" height="90" as="geometry"/>
                    </mxCell>
                </UserObject>
                <UserObject label="Email" lucidchartObjectId="Pip4KUpaGcZa" id="864">
                    <mxCell style="html=1;overflow=block;blockSpacing=1;whiteSpace=wrap;ellipse;fontSize=16.7;fontColor=#f1f4f9;spacing=3.8;strokeColor=#3a414a;strokeOpacity=100;rounded=1;absoluteArcSize=1;arcSize=9;strokeWidth=0.8;" vertex="1" parent="1">
                        <mxGeometry x="2915" y="378" width="120" height="90" as="geometry"/>
                    </mxCell>
                </UserObject>
                <UserObject label="Division" lucidchartObjectId="Pip4KUpaGcZa" id="865">
                    <mxCell style="html=1;overflow=block;blockSpacing=1;whiteSpace=wrap;ellipse;fontSize=16.7;fontColor=#f1f4f9;spacing=3.8;strokeColor=#3a414a;strokeOpacity=100;rounded=1;absoluteArcSize=1;arcSize=9;strokeWidth=0.8;" vertex="1" parent="1">
                        <mxGeometry x="2910.5" y="17" width="120" height="90" as="geometry"/>
                    </mxCell>
                </UserObject>
                <UserObject label="SiblingInfo" lucidchartObjectId="Pip4KUpaGcZa" id="866">
                    <mxCell style="html=1;overflow=block;blockSpacing=1;whiteSpace=wrap;ellipse;fontSize=16.7;fontColor=#f1f4f9;spacing=3.8;strokeColor=#3a414a;strokeOpacity=100;rounded=1;absoluteArcSize=1;arcSize=9;strokeWidth=0.8;" vertex="1" parent="1">
                        <mxGeometry x="2790" y="-59" width="120" height="90" as="geometry"/>
                    </mxCell>
                </UserObject>
                <mxCell id="879" style="edgeStyle=none;html=1;exitX=0;exitY=0;exitDx=0;exitDy=0;entryX=1;entryY=1;entryDx=0;entryDy=0;strokeColor=#272525;endArrow=none;endFill=0;" edge="1" parent="1" source="875" target="876">
                    <mxGeometry relative="1" as="geometry"/>
                </mxCell>
                <mxCell id="880" style="edgeStyle=none;html=1;exitX=0.5;exitY=0;exitDx=0;exitDy=0;strokeColor=#272525;endArrow=none;endFill=0;" edge="1" parent="1" source="875">
                    <mxGeometry relative="1" as="geometry">
                        <mxPoint x="3200.9523809523807" y="-175.7842000325527" as="targetPoint"/>
                    </mxGeometry>
                </mxCell>
                <mxCell id="881" style="edgeStyle=none;html=1;exitX=1;exitY=0;exitDx=0;exitDy=0;strokeColor=#272525;endArrow=none;endFill=0;" edge="1" parent="1" source="875" target="878">
                    <mxGeometry relative="1" as="geometry"/>
                </mxCell>
                <UserObject label="Parent" lucidchartObjectId="Epp4kVIYfYsT" id="875">
                    <mxCell style="html=1;overflow=block;blockSpacing=1;whiteSpace=wrap;fontSize=16.7;fontColor=#f1f4f9;spacing=3.8;strokeColor=#3a414a;strokeOpacity=100;rounded=1;absoluteArcSize=1;arcSize=9;strokeWidth=0.8;" vertex="1" parent="1">
                        <mxGeometry x="3141" y="-120" width="120" height="90" as="geometry"/>
                    </mxCell>
                </UserObject>
                <UserObject label="&lt;u&gt;ParentID&lt;/u&gt;" lucidchartObjectId="Pip4KUpaGcZa" id="876">
                    <mxCell style="html=1;overflow=block;blockSpacing=1;whiteSpace=wrap;ellipse;fontSize=16.7;fontColor=#f1f4f9;spacing=3.8;strokeColor=#3a414a;strokeOpacity=100;rounded=1;absoluteArcSize=1;arcSize=9;strokeWidth=0.8;" vertex="1" parent="1">
                        <mxGeometry x="2970" y="-222" width="120" height="90" as="geometry"/>
                    </mxCell>
                </UserObject>
                <UserObject label="FullName" lucidchartObjectId="Pip4KUpaGcZa" id="877">
                    <mxCell style="html=1;overflow=block;blockSpacing=1;whiteSpace=wrap;ellipse;fontSize=16.7;fontColor=#f1f4f9;spacing=3.8;strokeColor=#3a414a;strokeOpacity=100;rounded=1;absoluteArcSize=1;arcSize=9;strokeWidth=0.8;" vertex="1" parent="1">
                        <mxGeometry x="3136" y="-267" width="120" height="90" as="geometry"/>
                    </mxCell>
                </UserObject>
                <UserObject label="Relationship" lucidchartObjectId="Pip4KUpaGcZa" id="878">
                    <mxCell style="html=1;overflow=block;blockSpacing=1;whiteSpace=wrap;ellipse;fontSize=16.7;fontColor=#f1f4f9;spacing=3.8;strokeColor=#3a414a;strokeOpacity=100;rounded=1;absoluteArcSize=1;arcSize=9;strokeWidth=0.8;" vertex="1" parent="1">
                        <mxGeometry x="3301" y="-229" width="120" height="90" as="geometry"/>
                    </mxCell>
                </UserObject>
                <mxCell id="883" value="1" style="edgeStyle=none;html=1;exitX=0.5;exitY=0;exitDx=0;exitDy=0;entryX=0.5;entryY=1;entryDx=0;entryDy=0;strokeColor=#272525;endArrow=none;endFill=0;" edge="1" parent="1" source="882" target="875">
                    <mxGeometry relative="1" as="geometry"/>
                </mxCell>
                <mxCell id="884" value="M" style="edgeStyle=none;html=1;exitX=0.5;exitY=1;exitDx=0;exitDy=0;strokeColor=#272525;endArrow=none;endFill=0;" edge="1" parent="1" source="882" target="858">
                    <mxGeometry relative="1" as="geometry"/>
                </mxCell>
                <UserObject label="ParentOf" lucidchartObjectId="6qp4TUooXjOu" id="882">
                    <mxCell style="html=1;overflow=block;blockSpacing=1;whiteSpace=wrap;shape=rhombus;fontSize=16.7;fontColor=#f1f4f9;spacing=3.8;strokeColor=#3a414a;strokeOpacity=100;rounded=1;absoluteArcSize=1;arcSize=9;strokeWidth=0.8;" vertex="1" parent="1">
                        <mxGeometry x="3130" y="23" width="131" height="114" as="geometry"/>
                    </mxCell>
                </UserObject>
                <mxCell id="893" style="edgeStyle=none;html=1;exitX=0;exitY=0.5;exitDx=0;exitDy=0;strokeColor=#272525;endArrow=none;endFill=0;" edge="1" parent="1" source="885" target="890">
                    <mxGeometry relative="1" as="geometry"/>
                </mxCell>
                <mxCell id="894" style="edgeStyle=none;html=1;exitX=0;exitY=1;exitDx=0;exitDy=0;entryX=1;entryY=0.5;entryDx=0;entryDy=0;strokeColor=#272525;endArrow=none;endFill=0;" edge="1" parent="1" source="885" target="891">
                    <mxGeometry relative="1" as="geometry"/>
                </mxCell>
                <mxCell id="895" style="edgeStyle=none;html=1;exitX=0.5;exitY=1;exitDx=0;exitDy=0;entryX=0.5;entryY=0;entryDx=0;entryDy=0;strokeColor=#272525;endArrow=none;endFill=0;" edge="1" parent="1" source="885" target="892">
                    <mxGeometry relative="1" as="geometry"/>
                </mxCell>
                <UserObject label="MedicalReport" lucidchartObjectId="Epp4kVIYfYsT" id="885">
                    <mxCell style="html=1;overflow=block;blockSpacing=1;whiteSpace=wrap;fontSize=16.7;fontColor=#f1f4f9;spacing=3.8;strokeColor=#3a414a;strokeOpacity=100;rounded=1;absoluteArcSize=1;arcSize=9;strokeWidth=0.8;" vertex="1" parent="1">
                        <mxGeometry x="3130" y="598" width="120" height="90" as="geometry"/>
                    </mxCell>
                </UserObject>
                <mxCell id="889" value="1" style="edgeStyle=none;html=1;exitX=0.5;exitY=1;exitDx=0;exitDy=0;entryX=0.5;entryY=0;entryDx=0;entryDy=0;strokeColor=#272525;endArrow=none;endFill=0;" edge="1" parent="1" source="887" target="885">
                    <mxGeometry relative="1" as="geometry"/>
                </mxCell>
                <UserObject label="Has" lucidchartObjectId="6qp4TUooXjOu" id="887">
                    <mxCell style="html=1;overflow=block;blockSpacing=1;whiteSpace=wrap;shape=rhombus;fontSize=16.7;fontColor=#f1f4f9;spacing=3.8;strokeColor=#3a414a;strokeOpacity=100;rounded=1;absoluteArcSize=1;arcSize=9;strokeWidth=0.8;" vertex="1" parent="1">
                        <mxGeometry x="3130.5" y="406" width="131" height="114" as="geometry"/>
                    </mxCell>
                </UserObject>
                <UserObject label="Weight" lucidchartObjectId="Pip4KUpaGcZa" id="890">
                    <mxCell style="html=1;overflow=block;blockSpacing=1;whiteSpace=wrap;ellipse;fontSize=16.7;fontColor=#f1f4f9;spacing=3.8;strokeColor=#3a414a;strokeOpacity=100;rounded=1;absoluteArcSize=1;arcSize=9;strokeWidth=0.8;" vertex="1" parent="1">
                        <mxGeometry x="2937" y="589" width="120" height="90" as="geometry"/>
                    </mxCell>
                </UserObject>
                <UserObject label="Length" lucidchartObjectId="Pip4KUpaGcZa" id="891">
                    <mxCell style="html=1;overflow=block;blockSpacing=1;whiteSpace=wrap;ellipse;fontSize=16.7;fontColor=#f1f4f9;spacing=3.8;strokeColor=#3a414a;strokeOpacity=100;rounded=1;absoluteArcSize=1;arcSize=9;strokeWidth=0.8;" vertex="1" parent="1">
                        <mxGeometry x="2941" y="720" width="120" height="90" as="geometry"/>
                    </mxCell>
                </UserObject>
                <UserObject label="Diseases" lucidchartObjectId="Pip4KUpaGcZa" id="892">
                    <mxCell style="html=1;overflow=block;blockSpacing=1;whiteSpace=wrap;ellipse;fontSize=16.7;fontColor=#f1f4f9;spacing=3.8;strokeColor=#3a414a;strokeOpacity=100;rounded=1;absoluteArcSize=1;arcSize=9;strokeWidth=0.8;" vertex="1" parent="1">
                        <mxGeometry x="3115" y="734" width="120" height="90" as="geometry"/>
                    </mxCell>
                </UserObject>
                <mxCell id="903" style="edgeStyle=none;html=1;exitX=0.5;exitY=0;exitDx=0;exitDy=0;strokeColor=#272525;endArrow=none;endFill=0;" edge="1" parent="1" source="896" target="897">
                    <mxGeometry relative="1" as="geometry"/>
                </mxCell>
                <mxCell id="904" style="edgeStyle=none;html=1;exitX=1;exitY=0;exitDx=0;exitDy=0;strokeColor=#272525;endArrow=none;endFill=0;" edge="1" parent="1" source="896" target="900">
                    <mxGeometry relative="1" as="geometry">
                        <Array as="points">
                            <mxPoint x="3705" y="-98"/>
                        </Array>
                    </mxGeometry>
                </mxCell>
                <mxCell id="905" style="edgeStyle=none;html=1;exitX=1;exitY=0.25;exitDx=0;exitDy=0;entryX=0;entryY=0.5;entryDx=0;entryDy=0;strokeColor=#272525;endArrow=none;endFill=0;" edge="1" parent="1" source="896" target="902">
                    <mxGeometry relative="1" as="geometry">
                        <Array as="points">
                            <mxPoint x="3763" y="-81"/>
                            <mxPoint x="3832" y="-41"/>
                        </Array>
                    </mxGeometry>
                </mxCell>
                <mxCell id="906" style="edgeStyle=none;html=1;exitX=1;exitY=0.5;exitDx=0;exitDy=0;entryX=0;entryY=0.5;entryDx=0;entryDy=0;strokeColor=#272525;endArrow=none;endFill=0;" edge="1" parent="1" source="896" target="898">
                    <mxGeometry relative="1" as="geometry"/>
                </mxCell>
                <mxCell id="907" style="edgeStyle=none;html=1;exitX=1;exitY=0.75;exitDx=0;exitDy=0;entryX=0;entryY=0.5;entryDx=0;entryDy=0;strokeColor=#272525;endArrow=none;endFill=0;" edge="1" parent="1" source="896" target="901">
                    <mxGeometry relative="1" as="geometry">
                        <Array as="points">
                            <mxPoint x="3692" y="16"/>
                        </Array>
                    </mxGeometry>
                </mxCell>
                <mxCell id="908" style="edgeStyle=none;html=1;exitX=1;exitY=1;exitDx=0;exitDy=0;entryX=0;entryY=0.5;entryDx=0;entryDy=0;strokeColor=#272525;endArrow=none;endFill=0;" edge="1" parent="1" source="896" target="899">
                    <mxGeometry relative="1" as="geometry"/>
                </mxCell>
                <mxCell id="911" value="M" style="edgeStyle=none;html=1;exitX=0.5;exitY=1;exitDx=0;exitDy=0;entryX=0.5;entryY=0;entryDx=0;entryDy=0;strokeColor=#272525;endArrow=none;endFill=0;" edge="1" parent="1" source="896" target="909">
                    <mxGeometry relative="1" as="geometry"/>
                </mxCell>
                <UserObject label="Teacher" lucidchartObjectId="Epp4kVIYfYsT" id="896">
                    <mxCell style="html=1;overflow=block;blockSpacing=1;whiteSpace=wrap;fontSize=16.7;fontColor=#f1f4f9;spacing=3.8;strokeColor=#3a414a;strokeOpacity=100;rounded=1;absoluteArcSize=1;arcSize=9;strokeWidth=0.8;" vertex="1" parent="1">
                        <mxGeometry x="3501" y="-120" width="120" height="90" as="geometry"/>
                    </mxCell>
                </UserObject>
                <UserObject label="&lt;u&gt;TeacherID&lt;/u&gt;" lucidchartObjectId="Pip4KUpaGcZa" id="897">
                    <mxCell style="html=1;overflow=block;blockSpacing=1;whiteSpace=wrap;ellipse;fontSize=16.7;fontColor=#f1f4f9;spacing=3.8;strokeColor=#3a414a;strokeOpacity=100;rounded=1;absoluteArcSize=1;arcSize=9;strokeWidth=0.8;" vertex="1" parent="1">
                        <mxGeometry x="3674" y="-194" width="120" height="90" as="geometry"/>
                    </mxCell>
                </UserObject>
                <UserObject label="FullName" lucidchartObjectId="Pip4KUpaGcZa" id="898">
                    <mxCell style="html=1;overflow=block;blockSpacing=1;whiteSpace=wrap;ellipse;fontSize=16.7;fontColor=#f1f4f9;spacing=3.8;strokeColor=#3a414a;strokeOpacity=100;rounded=1;absoluteArcSize=1;arcSize=9;strokeWidth=0.8;" vertex="1" parent="1">
                        <mxGeometry x="3674" y="-76" width="120" height="90" as="geometry"/>
                    </mxCell>
                </UserObject>
                <UserObject label="Subject" lucidchartObjectId="Pip4KUpaGcZa" id="899">
                    <mxCell style="html=1;overflow=block;blockSpacing=1;whiteSpace=wrap;ellipse;fontSize=16.7;fontColor=#f1f4f9;spacing=3.8;strokeColor=#3a414a;strokeOpacity=100;rounded=1;absoluteArcSize=1;arcSize=9;strokeWidth=0.8;" vertex="1" parent="1">
                        <mxGeometry x="3674" y="38" width="120" height="90" as="geometry"/>
                    </mxCell>
                </UserObject>
                <UserObject label="PhoneNumber" lucidchartObjectId="Pip4KUpaGcZa" id="900">
                    <mxCell style="html=1;overflow=block;blockSpacing=1;whiteSpace=wrap;ellipse;fontSize=16.7;fontColor=#f1f4f9;spacing=3.8;strokeColor=#3a414a;strokeOpacity=100;rounded=1;absoluteArcSize=1;arcSize=9;strokeWidth=0.8;" vertex="1" parent="1">
                        <mxGeometry x="3794" y="-137" width="120" height="90" as="geometry"/>
                    </mxCell>
                </UserObject>
                <UserObject label="Email" lucidchartObjectId="Pip4KUpaGcZa" id="901">
                    <mxCell style="html=1;overflow=block;blockSpacing=1;whiteSpace=wrap;ellipse;fontSize=16.7;fontColor=#f1f4f9;spacing=3.8;strokeColor=#3a414a;strokeOpacity=100;rounded=1;absoluteArcSize=1;arcSize=9;strokeWidth=0.8;" vertex="1" parent="1">
                        <mxGeometry x="3790" y="-14" width="120" height="90" as="geometry"/>
                    </mxCell>
                </UserObject>
                <UserObject label="Salary" lucidchartObjectId="Pip4KUpaGcZa" id="902">
                    <mxCell style="html=1;overflow=block;blockSpacing=1;whiteSpace=wrap;ellipse;fontSize=16.7;fontColor=#f1f4f9;spacing=3.8;strokeColor=#3a414a;strokeOpacity=100;rounded=1;absoluteArcSize=1;arcSize=9;strokeWidth=0.8;" vertex="1" parent="1">
                        <mxGeometry x="3910" y="-76" width="120" height="90" as="geometry"/>
                    </mxCell>
                </UserObject>
                <mxCell id="912" value="M" style="edgeStyle=none;html=1;exitX=0.5;exitY=1;exitDx=0;exitDy=0;strokeColor=#272525;endArrow=none;endFill=0;" edge="1" parent="1" source="909" target="910">
                    <mxGeometry relative="1" as="geometry"/>
                </mxCell>
                <UserObject label="Teaches" lucidchartObjectId="6qp4TUooXjOu" id="909">
                    <mxCell style="html=1;overflow=block;blockSpacing=1;whiteSpace=wrap;shape=rhombus;fontSize=16.7;fontColor=#f1f4f9;spacing=3.8;strokeColor=#3a414a;strokeOpacity=100;rounded=1;absoluteArcSize=1;arcSize=9;strokeWidth=0.8;" vertex="1" parent="1">
                        <mxGeometry x="3495.5" y="65" width="131" height="114" as="geometry"/>
                    </mxCell>
                </UserObject>
                <mxCell id="917" style="edgeStyle=none;html=1;exitX=1;exitY=0.5;exitDx=0;exitDy=0;strokeColor=#272525;endArrow=none;endFill=0;" edge="1" parent="1" source="910" target="913">
                    <mxGeometry relative="1" as="geometry"/>
                </mxCell>
                <mxCell id="918" style="edgeStyle=none;html=1;exitX=1;exitY=0.75;exitDx=0;exitDy=0;entryX=0.558;entryY=0.054;entryDx=0;entryDy=0;entryPerimeter=0;strokeColor=#272525;endArrow=none;endFill=0;" edge="1" parent="1" source="910" target="914">
                    <mxGeometry relative="1" as="geometry"/>
                </mxCell>
                <mxCell id="919" style="edgeStyle=none;html=1;exitX=0.75;exitY=1;exitDx=0;exitDy=0;entryX=0.5;entryY=0;entryDx=0;entryDy=0;strokeColor=#272525;endArrow=none;endFill=0;" edge="1" parent="1" source="910" target="915">
                    <mxGeometry relative="1" as="geometry"/>
                </mxCell>
                <mxCell id="920" style="edgeStyle=none;html=1;exitX=0.25;exitY=1;exitDx=0;exitDy=0;entryX=0.5;entryY=0;entryDx=0;entryDy=0;strokeColor=#272525;endArrow=none;endFill=0;" edge="1" parent="1" source="910" target="916">
                    <mxGeometry relative="1" as="geometry"/>
                </mxCell>
                <UserObject label="Class" lucidchartObjectId="Epp4kVIYfYsT" id="910">
                    <mxCell style="html=1;overflow=block;blockSpacing=1;whiteSpace=wrap;fontSize=16.7;fontColor=#f1f4f9;spacing=3.8;strokeColor=#3a414a;strokeOpacity=100;rounded=1;absoluteArcSize=1;arcSize=9;strokeWidth=0.8;" vertex="1" parent="1">
                        <mxGeometry x="3501" y="227" width="120" height="90" as="geometry"/>
                    </mxCell>
                </UserObject>
                <UserObject label="&lt;u&gt;UniqueName&lt;/u&gt;" lucidchartObjectId="Pip4KUpaGcZa" id="913">
                    <mxCell style="html=1;overflow=block;blockSpacing=1;whiteSpace=wrap;ellipse;fontSize=16.7;fontColor=#f1f4f9;spacing=3.8;strokeColor=#3a414a;strokeOpacity=100;rounded=1;absoluteArcSize=1;arcSize=9;strokeWidth=0.8;" vertex="1" parent="1">
                        <mxGeometry x="3691" y="227" width="120" height="90" as="geometry"/>
                    </mxCell>
                </UserObject>
                <UserObject label="Location" lucidchartObjectId="Pip4KUpaGcZa" id="914">
                    <mxCell style="html=1;overflow=block;blockSpacing=1;whiteSpace=wrap;ellipse;fontSize=16.7;fontColor=#f1f4f9;spacing=3.8;strokeColor=#3a414a;strokeOpacity=100;rounded=1;absoluteArcSize=1;arcSize=9;strokeWidth=0.8;" vertex="1" parent="1">
                        <mxGeometry x="3691" y="358" width="120" height="90" as="geometry"/>
                    </mxCell>
                </UserObject>
                <UserObject label="Capacity" lucidchartObjectId="Pip4KUpaGcZa" id="915">
                    <mxCell style="html=1;overflow=block;blockSpacing=1;whiteSpace=wrap;ellipse;fontSize=16.7;fontColor=#f1f4f9;spacing=3.8;strokeColor=#3a414a;strokeOpacity=100;rounded=1;absoluteArcSize=1;arcSize=9;strokeWidth=0.8;" vertex="1" parent="1">
                        <mxGeometry x="3540" y="358" width="120" height="90" as="geometry"/>
                    </mxCell>
                </UserObject>
                <UserObject label="Schedule" lucidchartObjectId="Pip4KUpaGcZa" id="916">
                    <mxCell style="html=1;overflow=block;blockSpacing=1;whiteSpace=wrap;ellipse;fontSize=16.7;fontColor=#f1f4f9;spacing=3.8;strokeColor=#3a414a;strokeOpacity=100;rounded=1;absoluteArcSize=1;arcSize=9;strokeWidth=0.8;" vertex="1" parent="1">
                        <mxGeometry x="3389" y="358" width="120" height="90" as="geometry"/>
                    </mxCell>
                </UserObject>
                <mxCell id="923" value="1" style="edgeStyle=none;html=1;exitX=1;exitY=0.5;exitDx=0;exitDy=0;entryX=0;entryY=0.5;entryDx=0;entryDy=0;strokeColor=#272525;endArrow=none;endFill=0;" edge="1" parent="1" source="921" target="910">
                    <mxGeometry relative="1" as="geometry"/>
                </mxCell>
                <UserObject label="Attends" lucidchartObjectId="6qp4TUooXjOu" id="921">
                    <mxCell style="html=1;overflow=block;blockSpacing=1;whiteSpace=wrap;shape=rhombus;fontSize=16.7;fontColor=#f1f4f9;spacing=3.8;strokeColor=#3a414a;strokeOpacity=100;rounded=1;absoluteArcSize=1;arcSize=9;strokeWidth=0.8;" vertex="1" parent="1">
                        <mxGeometry x="3308.5" y="217" width="131" height="114" as="geometry"/>
                    </mxCell>
                </UserObject>
            </root>
        </mxGraphModel>
    </diagram>
</mxfile>